<?xml version="1.0" encoding="UTF-8" standalone="no"?>
<!-- Created with Inkscape (http://www.inkscape.org/) -->

<svg
   width="240mm"
   height="240mm"
   viewBox="-1 0 242 242"
   version="1.1"
   id="svg5"
   inkscape:version="1.2.1 (9c6d41e410, 2022-07-14)"
   sodipodi:docname="butterfly.svg"
   xmlns:inkscape="http://www.inkscape.org/namespaces/inkscape"
   xmlns:sodipodi="http://sodipodi.sourceforge.net/DTD/sodipodi-0.dtd"
   xmlns:xlink="http://www.w3.org/1999/xlink"
   xmlns="http://www.w3.org/2000/svg"
   xmlns:svg="http://www.w3.org/2000/svg">
  <sodipodi:namedview
     id="namedview7"
     pagecolor="#181818"
     bordercolor="#666666"
     borderopacity="1.0"
     inkscape:showpageshadow="2"
     inkscape:pageopacity="0"
     inkscape:pagecheckerboard="0"
     inkscape:deskcolor="#353535"
     inkscape:document-units="mm"
     showgrid="false"
     inkscape:zoom="0.25"
     inkscape:cx="242"
     inkscape:cy="738"
     inkscape:window-width="958"
     inkscape:window-height="1008"
     inkscape:window-x="946"
     inkscape:window-y="0"
     inkscape:window-maximized="0"
     inkscape:current-layer="layer1" />
  <defs
     id="defs2">
    <inkscape:path-effect
       effect="offset"
       id="path-effect9958"
       is_visible="true"
       lpeversion="1.2"
       linejoin_type="miter"
       unit="mm"
       offset="3"
       miter_limit="4"
       attempt_force_join="false"
       update_on_knot_move="true" />
    <inkscape:path-effect
       effect="offset"
       id="path-effect9956"
       is_visible="true"
       lpeversion="1.2"
       linejoin_type="miter"
       unit="mm"
       offset="5"
       miter_limit="4"
       attempt_force_join="false"
       update_on_knot_move="true" />
    <inkscape:path-effect
       effect="offset"
       id="path-effect9954"
       is_visible="true"
       lpeversion="1.2"
       linejoin_type="miter"
       unit="mm"
       offset="5"
       miter_limit="4"
       attempt_force_join="false"
       update_on_knot_move="true" />
    <inkscape:path-effect
       effect="offset"
       id="path-effect9952"
       is_visible="true"
       lpeversion="1.2"
       linejoin_type="miter"
       unit="mm"
       offset="5"
       miter_limit="4"
       attempt_force_join="false"
       update_on_knot_move="true" />
    <inkscape:path-effect
       effect="offset"
       id="path-effect9950"
       is_visible="true"
       lpeversion="1.2"
       linejoin_type="miter"
       unit="mm"
       offset="5"
       miter_limit="4"
       attempt_force_join="false"
       update_on_knot_move="true" />
    <inkscape:path-effect
       effect="offset"
       id="path-effect14976"
       is_visible="true"
       lpeversion="1.2"
       linejoin_type="miter"
       unit="mm"
       offset="-4"
       miter_limit="4"
       attempt_force_join="false"
       update_on_knot_move="true" />
    <linearGradient
       inkscape:collect="always"
       id="linearGradient14968">
      <stop
         style="stop-color:#ffffff;stop-opacity:0;"
         offset="0"
         id="stop14972" />
      <stop
         style="stop-color:#ffffff;stop-opacity:1;"
         offset="1"
         id="stop14964" />
    </linearGradient>
    <inkscape:path-effect
       effect="offset"
       id="path-effect14939"
       is_visible="true"
       lpeversion="1.2"
       linejoin_type="miter"
       unit="mm"
       offset="-2"
       miter_limit="4"
       attempt_force_join="false"
       update_on_knot_move="true" />
    <linearGradient
       inkscape:collect="always"
       id="linearGradient14803">
      <stop
         style="stop-color:#ffffff;stop-opacity:0.20564516;"
         offset="0"
         id="stop14933" />
      <stop
         style="stop-color:#ffffff;stop-opacity:0;"
         offset="0.24060151"
         id="stop14935" />
      <stop
         style="stop-color:#000000;stop-opacity:0;"
         offset="0.2781955"
         id="stop14801" />
      <stop
         style="stop-color:#000000;stop-opacity:1;"
         offset="1"
         id="stop14799" />
    </linearGradient>
    <inkscape:path-effect
       effect="offset"
       id="path-effect13344"
       is_visible="true"
       lpeversion="1.2"
       linejoin_type="miter"
       unit="mm"
       offset="3"
       miter_limit="4"
       attempt_force_join="false"
       update_on_knot_move="true" />
    <inkscape:path-effect
       effect="offset"
       id="path-effect13340"
       is_visible="true"
       lpeversion="1.2"
       linejoin_type="miter"
       unit="mm"
       offset="5"
       miter_limit="4"
       attempt_force_join="false"
       update_on_knot_move="true" />
    <inkscape:path-effect
       effect="offset"
       id="path-effect13336"
       is_visible="true"
       lpeversion="1.2"
       linejoin_type="miter"
       unit="mm"
       offset="5"
       miter_limit="4"
       attempt_force_join="false"
       update_on_knot_move="true" />
    <inkscape:path-effect
       effect="offset"
       id="path-effect13332"
       is_visible="true"
       lpeversion="1.2"
       linejoin_type="miter"
       unit="mm"
       offset="5"
       miter_limit="4"
       attempt_force_join="false"
       update_on_knot_move="true" />
    <inkscape:path-effect
       effect="offset"
       id="path-effect13328"
       is_visible="true"
       lpeversion="1.2"
       linejoin_type="miter"
       unit="mm"
       offset="5"
       miter_limit="4"
       attempt_force_join="false"
       update_on_knot_move="true" />
    <linearGradient
       inkscape:collect="always"
       id="linearGradient10369">
      <stop
         style="stop-color:#0036d2;stop-opacity:1;"
         offset="0.16130583"
         id="stop10365" />
      <stop
         style="stop-color:#ffffff;stop-opacity:1;"
         offset="1"
         id="stop10367" />
    </linearGradient>
    <inkscape:path-effect
       effect="fillet_chamfer"
       id="path-effect4801"
       is_visible="true"
       lpeversion="1"
       nodesatellites_param="F,0,0,1,0,1.5875,0,1 @ F,0,0,1,0,1.5875,0,1 @ F,0,0,1,0,1.5875,0,1"
       unit="px"
       method="auto"
       mode="F"
       radius="6"
       chamfer_steps="1"
       flexible="false"
       use_knot_distance="true"
       apply_no_radius="true"
       apply_with_radius="true"
       only_selected="false"
       hide_knots="false" />
    <inkscape:path-effect
       effect="fillet_chamfer"
       id="path-effect4795"
       is_visible="true"
       lpeversion="1"
       nodesatellites_param="F,0,0,1,0,1.5875,0,1 @ F,0,0,1,0,1.5875,0,1 @ F,0,0,1,0,1.5875,0,1 @ F,0,0,1,0,1.5875,0,1 @ F,0,0,1,0,1.5875,0,1 @ F,0,0,1,0,1.5875,0,1"
       unit="px"
       method="auto"
       mode="F"
       radius="6"
       chamfer_steps="1"
       flexible="false"
       use_knot_distance="true"
       apply_no_radius="true"
       apply_with_radius="true"
       only_selected="false"
       hide_knots="false" />
    <inkscape:path-effect
       effect="fillet_chamfer"
       id="path-effect4789"
       is_visible="true"
       lpeversion="1"
       nodesatellites_param="F,0,0,1,0,1.5875,0,1 @ F,0,0,1,0,1.5875,0,1 @ F,0,0,1,0,1.5875,0,1 @ F,0,0,1,0,1.5875,0,1 @ F,0,0,1,0,1.5875,0,1"
       unit="px"
       method="auto"
       mode="F"
       radius="6"
       chamfer_steps="1"
       flexible="false"
       use_knot_distance="true"
       apply_no_radius="true"
       apply_with_radius="true"
       only_selected="false"
       hide_knots="false" />
    <inkscape:path-effect
       effect="fillet_chamfer"
       id="path-effect1878"
       is_visible="true"
       lpeversion="1"
       nodesatellites_param="F,0,0,1,0,1.5875,0,1 @ F,0,0,1,0,1.5875,0,1 @ F,0,0,1,0,1.5875,0,1 @ F,0,0,1,0,1.5875,0,1"
       unit="px"
       method="auto"
       mode="F"
       radius="6"
       chamfer_steps="1"
       flexible="false"
       use_knot_distance="true"
       apply_no_radius="true"
       apply_with_radius="true"
       only_selected="false"
       hide_knots="false" />
    <inkscape:path-effect
       effect="fillet_chamfer"
       id="path-effect405"
       is_visible="true"
       lpeversion="1"
       nodesatellites_param="F,0,0,1,0,5.2916667,0,1 @ F,0,0,1,0,5.2916667,0,1 @ F,0,0,1,0,5.2916667,0,1 @ F,0,0,1,0,5.2916667,0,1 @ F,0,0,1,0,5.2916667,0,1"
       unit="px"
       method="auto"
       mode="F"
       radius="20"
       chamfer_steps="1"
       flexible="false"
       use_knot_distance="true"
       apply_no_radius="true"
       apply_with_radius="true"
       only_selected="false"
       hide_knots="false" />
    <inkscape:path-effect
       effect="offset"
       id="path-effect403"
       is_visible="true"
       lpeversion="1.2"
       linejoin_type="miter"
       unit="mm"
       offset="-7"
       miter_limit="4"
       attempt_force_join="false"
       update_on_knot_move="true" />
    <inkscape:path-effect
       effect="fillet_chamfer"
       id="path-effect17367"
       is_visible="true"
       lpeversion="1"
       nodesatellites_param="F,0,0,1,0,1.5875,0,1 @ F,0,0,1,0,1.5875,0,1 @ F,0,0,1,0,1.5875,0,1 @ F,0,0,1,0,1.5875,0,1 @ F,0,0,1,0,1.5875,0,1 | F,0,0,1,0,1.5875,0,1 @ F,0,0,1,0,1.5875,0,1 @ F,0,0,1,0,1.5875,0,1 @ F,0,0,1,0,1.5875,0,1 @ F,0,0,1,0,1.5875,0,1 | F,0,0,1,0,1.5875,0,1 @ F,0,0,1,0,1.5875,0,1 @ F,0,0,1,0,1.5875,0,1 @ F,0,0,1,0,1.5875,0,1 @ F,0,0,1,0,1.5875,0,1 | F,0,0,1,0,1.5875,0,1 @ F,0,0,1,0,1.5875,0,1 @ F,0,0,1,0,1.5875,0,1"
       unit="px"
       method="auto"
       mode="F"
       radius="6"
       chamfer_steps="1"
       flexible="false"
       use_knot_distance="true"
       apply_no_radius="true"
       apply_with_radius="true"
       only_selected="false"
       hide_knots="false" />
    <inkscape:path-effect
       effect="fillet_chamfer"
       id="path-effect17352"
       is_visible="true"
       lpeversion="1"
       nodesatellites_param="IF,0,0,1,0,5.2916667,0,1 @ IF,0,0,1,0,5.2916667,0,1 @ IF,0,0,1,0,5.2916667,0,1 @ IF,0,0,1,0,5.2916667,0,1 @ IF,0,0,1,0,5.2916667,0,1"
       unit="px"
       method="auto"
       mode="F"
       radius="20"
       chamfer_steps="1"
       flexible="false"
       use_knot_distance="true"
       apply_no_radius="true"
       apply_with_radius="true"
       only_selected="false"
       hide_knots="false" />
    <inkscape:path-effect
       effect="offset"
       id="path-effect17350"
       is_visible="true"
       lpeversion="1.2"
       linejoin_type="miter"
       unit="mm"
       offset="-7"
       miter_limit="4"
       attempt_force_join="false"
       update_on_knot_move="true" />
    <inkscape:path-effect
       effect="fillet_chamfer"
       id="path-effect17230"
       is_visible="true"
       lpeversion="1"
       nodesatellites_param="F,0,0,1,0,0,0,1 @ F,0,0,1,0,0,0,1 @ F,0,0,1,0,0,0,1 @ F,0,0,1,0,0,0,1"
       unit="px"
       method="auto"
       mode="F"
       radius="20"
       chamfer_steps="1"
       flexible="false"
       use_knot_distance="true"
       apply_no_radius="true"
       apply_with_radius="true"
       only_selected="false"
       hide_knots="false" />
    <inkscape:path-effect
       effect="fillet_chamfer"
       id="path-effect17228"
       is_visible="true"
       lpeversion="1"
       nodesatellites_param="F,0,0,1,0,5.2916667,0,1 @ F,0,0,1,0,5.2916667,0,1 @ F,0,0,1,0,5.2916667,0,1 @ F,0,0,1,0,5.2916667,0,1"
       unit="px"
       method="auto"
       mode="F"
       radius="20"
       chamfer_steps="1"
       flexible="false"
       use_knot_distance="true"
       apply_no_radius="true"
       apply_with_radius="true"
       only_selected="false"
       hide_knots="false" />
    <inkscape:path-effect
       effect="fillet_chamfer"
       id="path-effect17226"
       is_visible="true"
       lpeversion="1"
       nodesatellites_param="F,0,0,1,0,5.2916667,0,1 @ F,0,0,1,0,5.2916667,0,1 @ F,0,0,1,0,5.2916667,0,1 @ F,0,0,1,0,5.2916667,0,1 @ F,0,0,1,0,5.2916667,0,1"
       unit="px"
       method="auto"
       mode="F"
       radius="20"
       chamfer_steps="1"
       flexible="false"
       use_knot_distance="true"
       apply_no_radius="true"
       apply_with_radius="true"
       only_selected="false"
       hide_knots="false" />
    <inkscape:path-effect
       effect="fillet_chamfer"
       id="path-effect17224"
       is_visible="true"
       lpeversion="1"
       nodesatellites_param="F,0,0,1,0,5.2916667,0,1 @ F,0,0,1,0,5.2916667,0,1 @ F,0,0,1,0,5.2916667,0,1 @ F,0,0,1,0,5.2916667,0,1"
       unit="px"
       method="auto"
       mode="F"
       radius="20"
       chamfer_steps="1"
       flexible="false"
       use_knot_distance="true"
       apply_no_radius="true"
       apply_with_radius="true"
       only_selected="false"
       hide_knots="false" />
    <inkscape:path-effect
       effect="fillet_chamfer"
       id="path-effect17222"
       is_visible="true"
       lpeversion="1"
       nodesatellites_param="F,0,0,1,0,5.2916667,0,1 @ F,0,0,1,0,5.2916667,0,1 @ F,0,0,1,0,5.2916667,0,1 @ F,0,0,1,0,5.2916667,0,1"
       unit="px"
       method="auto"
       mode="F"
       radius="20"
       chamfer_steps="1"
       flexible="false"
       use_knot_distance="true"
       apply_no_radius="true"
       apply_with_radius="true"
       only_selected="false"
       hide_knots="false" />
    <inkscape:path-effect
       effect="offset"
       id="path-effect17220"
       is_visible="true"
       lpeversion="1.2"
       linejoin_type="miter"
       unit="mm"
       offset="-7"
       miter_limit="4"
       attempt_force_join="false"
       update_on_knot_move="true" />
    <inkscape:path-effect
       effect="offset"
       id="path-effect17218"
       is_visible="true"
       lpeversion="1.2"
       linejoin_type="miter"
       unit="mm"
       offset="-7"
       miter_limit="4"
       attempt_force_join="false"
       update_on_knot_move="true" />
    <inkscape:path-effect
       effect="offset"
       id="path-effect17216"
       is_visible="true"
       lpeversion="1.2"
       linejoin_type="miter"
       unit="mm"
       offset="-6.4878826"
       miter_limit="4"
       attempt_force_join="false"
       update_on_knot_move="true" />
    <inkscape:path-effect
       effect="offset"
       id="path-effect17214"
       is_visible="true"
       lpeversion="1.2"
       linejoin_type="miter"
       unit="mm"
       offset="-6.542615"
       miter_limit="4"
       attempt_force_join="false"
       update_on_knot_move="true" />
    <inkscape:path-effect
       effect="offset"
       id="path-effect17212"
       is_visible="true"
       lpeversion="1.2"
       linejoin_type="miter"
       unit="mm"
       offset="-6.8461016"
       miter_limit="4"
       attempt_force_join="false"
       update_on_knot_move="true" />
    <inkscape:path-effect
       effect="offset"
       id="path-effect3659"
       is_visible="true"
       lpeversion="1.2"
       linejoin_type="miter"
       unit="mm"
       offset="-5"
       miter_limit="4"
       attempt_force_join="false"
       update_on_knot_move="true" />
    <inkscape:path-effect
       effect="offset"
       id="path-effect3654"
       is_visible="true"
       lpeversion="1.2"
       linejoin_type="miter"
       unit="mm"
       offset="-5"
       miter_limit="4"
       attempt_force_join="false"
       update_on_knot_move="true" />
    <inkscape:path-effect
       effect="offset"
       id="path-effect2860"
       is_visible="true"
       lpeversion="1.2"
       linejoin_type="miter"
       unit="mm"
       offset="-5"
       miter_limit="4"
       attempt_force_join="false"
       update_on_knot_move="true" />
    <radialGradient
       inkscape:collect="always"
       xlink:href="#linearGradient10369"
       id="radialGradient5844"
       cx="48.334927"
       cy="84.599022"
       fx="48.334927"
       fy="84.599022"
       r="46.727638"
       gradientTransform="matrix(1.281101,-0.18957848,0.21972205,1.4848,-44.43817,-39.253371)"
       gradientUnits="userSpaceOnUse" />
    <radialGradient
       inkscape:collect="always"
       xlink:href="#linearGradient10369"
       id="radialGradient6600"
       cx="203.60747"
       cy="85.331886"
       fx="203.60747"
       fy="85.331886"
       r="47.1087"
       gradientTransform="matrix(1.2828874,0.09251836,-0.1065152,1.476972,-45.473839,-59.645698)"
       gradientUnits="userSpaceOnUse" />
    <radialGradient
       inkscape:collect="always"
       xlink:href="#linearGradient10369"
       id="radialGradient7377"
       cx="55.97834"
       cy="178.57971"
       fx="55.97834"
       fy="178.57971"
       r="35.473873"
       gradientTransform="matrix(1.7601365,0.0343088,-0.03598327,1.8460417,-39.065717,-142.30825)"
       gradientUnits="userSpaceOnUse" />
    <radialGradient
       inkscape:collect="always"
       xlink:href="#linearGradient10369"
       id="radialGradient7385"
       cx="180.39265"
       cy="177.66557"
       fx="180.39265"
       fy="177.66557"
       r="37.669029"
       gradientTransform="matrix(1.5653042,0.00428823,-0.00433381,1.5819404,-96.720524,-95.750733)"
       gradientUnits="userSpaceOnUse" />
    <radialGradient
       inkscape:collect="always"
       xlink:href="#linearGradient14803"
       id="radialGradient14805"
       cx="120.91043"
       cy="121.27904"
       fx="120.91043"
       fy="121.27904"
       r="108.85006"
       gradientTransform="matrix(2.9388795,0.06584293,-0.04485571,2.0021215,-228.99071,-129.49743)"
       gradientUnits="userSpaceOnUse" />
    <radialGradient
       inkscape:collect="always"
       xlink:href="#linearGradient14968"
       id="radialGradient14978"
       cx="117.72987"
       cy="126.12292"
       fx="117.72987"
       fy="126.12292"
       r="108.89399"
       gradientTransform="matrix(2.406848,-0.08363821,0.04005592,1.1526847,-170.67999,-10.554064)"
       gradientUnits="userSpaceOnUse" />
  </defs>
  <g
     inkscape:label="Layer 1"
     inkscape:groupmode="layer"
     id="layer1">
    <path
       id="path9858"
       style="fill:none;fill-opacity:1;stroke:#ffffff;stroke-width:24.1071;stroke-linecap:round;stroke-linejoin:round;stroke-dasharray:none;stroke-opacity:1;paint-order:stroke markers fill"
       d="M 38.044706,38.074162 C 12.030653,38.3582 5.564685,62.491389 18.578194,88.923771 c 10.739873,21.814279 1.184457,32.983119 27.76368,46.920129 1.363838,0.71514 2.830733,1.25277 4.378544,1.63866 -18.27805,14.80465 -20.171708,41.57557 -2.798795,55.91597 16.4072,13.54327 49.173333,12.05117 57.220797,-8.39484 8.07368,5.12259 22.15669,5.12846 30.29582,0.0336 8.43932,21.67395 45.8497,25.55062 62.93053,10.02937 15.66596,-14.23558 14.06899,-39.24873 -3.23184,-53.11976 0.56156,-0.23513 1.1082,-0.49833 1.63452,-0.7984 30.5904,-17.44005 20.886,-37.80211 28.55692,-55.131001 10.07529,-22.760479 3.13895,-45.183115 -22.51181,-45.01379 -13.57993,0.08965 -32.3281,6.880351 -55.95059,22.638928 C 144.89787,50.892289 133.11347,44.065569 121.22878,43.892411 109.74544,43.725102 98.170688,49.795026 95.243799,61.91405 71.418169,45.187721 52.051802,37.921222 38.044706,38.074162 Z" />
    <path
       id="path9012"
       style="fill:url(#radialGradient7377);fill-opacity:1;stroke:#ddb310;stroke-width:10;stroke-linecap:round;stroke-linejoin:round;stroke-dasharray:none;stroke-opacity:1"
       d="m 100.33858,117.42797 c -15.758834,7.14827 -32.865833,15.45178 -41.760243,20.67575 -20.391537,11.97661 -23.487473,38.21941 -7.472771,51.43868 15.776182,13.02239 51.566714,10.46078 50.847904,-15.45018 -10e-4,-0.0416 4e-4,-0.0853 -5.2e-4,-0.12713 -0.45381,-14.84257 -0.95185,-36.50786 -1.61437,-56.53712 z"
       sodipodi:nodetypes="cssscc" />
    <path
       id="path9010"
       style="fill:url(#radialGradient5844);fill-opacity:1;stroke:#ddb310;stroke-width:10;stroke-linecap:round;stroke-linejoin:round;stroke-dasharray:none;stroke-opacity:1"
       d="M 38.099483,43.073857 C 16.819859,43.306202 11.217987,62.654174 23.063708,86.714604 34.905123,110.76628 24.002458,118.48391 48.663658,131.4152 61.07296,137.92211 86.857967,125.72253 100.38147,118.75244 99.726464,98.6592 98.910977,80.131753 97.807983,71.956331 97.707474,71.211354 97.646121,70.48934 97.602311,69.77817 71.679482,50.576316 51.691319,42.925452 38.099483,43.073857 Z"
       sodipodi:nodetypes="ssscscs" />
    <path
       id="path3700"
       style="fill:url(#radialGradient7385);fill-opacity:1;stroke:#ddb310;stroke-width:10;stroke-linecap:round;stroke-linejoin:round;stroke-dasharray:none;stroke-opacity:1"
       d="m 140.61106,118.7111 c -0.75478,19.94091 -1.30519,41.3078 -1.86759,55.80125 -0.002,0.084 -0.002,0.17116 -0.005,0.25424 -0.8723,25.80971 39.93514,31.44098 56.26788,16.59951 14.86449,-13.50728 11.66505,-38.86793 -9.24233,-49.54272 -8.36029,-4.26855 -28.73272,-14.70142 -45.15331,-23.11228 z" />
    <path
       id="path295"
       style="fill:url(#radialGradient6600);fill-opacity:1;stroke:#ddb310;stroke-width:10;stroke-linecap:round;stroke-linejoin:round;stroke-dasharray:none;stroke-opacity:1"
       d="m 202.84912,46.003394 c -13.36876,0.08825 -32.9584,7.371001 -59.07185,25.823746 -0.0125,0.07576 -0.0199,0.148699 -0.0331,0.224793 -1.38427,7.976022 -2.34225,25.986792 -3.09594,45.662847 15.54952,10.28315 42.14311,25.64928 53.64686,19.09082 28.67575,-16.34848 17.64648,-32.89846 26.46143,-52.81176 8.89914,-20.103501 3.35476,-38.130801 -17.90743,-37.990446 z" />
    <path
       id="path1572"
       style="fill:#72490f;fill-opacity:1;stroke:#ddb310;stroke-width:6;stroke-linecap:round;stroke-linejoin:round;stroke-dasharray:none;stroke-opacity:1"
       d="M 121.1864,46.892745 C 108.41442,46.70666 95.50561,54.891062 97.807983,71.956331 100.01502,88.31498 101.5315,160.43766 101.98344,174.964 c 0.45194,14.52634 36.17566,14.46525 36.74298,0 0.56732,-14.46525 2.19688,-86.658302 5.01778,-102.912067 2.8492,-16.416871 -9.78582,-24.973103 -22.5578,-25.159188 z"
       sodipodi:nodetypes="sszzss" />
    <path
       style="fill:#ffe9cd;fill-opacity:1;stroke:none;stroke-width:0.264583px;stroke-linecap:butt;stroke-linejoin:miter;stroke-opacity:1"
       d="M 43.607705,91.468255 C 42.575996,102.05032 50.78109,104.39923 60.355557,97.879678 65.436161,94.42014 67.360102,86.87475 62.266284,77.974834 57.449063,69.55819 44.60847,62.034005 37.87985,60.522529 c -3.936885,-0.884358 -7.048067,1.132854 -5.666971,5.433896 1.581145,4.924041 12.098435,18.295042 11.394826,25.51183 z"
       id="path352"
       sodipodi:nodetypes="ssssss" />
    <path
       style="fill:#ffe9cd;fill-opacity:1;stroke:none;stroke-width:0.269674px;stroke-linecap:butt;stroke-linejoin:miter;stroke-opacity:1"
       d="m 199.04202,94.834619 c 1.05364,10.764401 -7.32589,13.153781 -17.10393,6.521891 -5.18863,-3.51914 -7.15347,-11.194542 -1.95136,-20.247804 4.91965,-8.561664 18.03325,-16.215491 24.90493,-17.75301 4.02058,-0.899595 7.19792,1.152373 5.78745,5.527523 -1.61476,5.008882 -12.35566,18.610266 -11.63709,25.9514 z"
       id="path352-7"
       sodipodi:nodetypes="ssssss" />
    <path
       style="fill:#ffe9cd;fill-opacity:1;stroke:none;stroke-width:0.264583px;stroke-linecap:butt;stroke-linejoin:miter;stroke-opacity:1"
       d="m 52.285176,173.61727 c -0.922286,-2.29108 -0.197579,-5.03797 3.421974,-6.33151 9.074047,-3.24288 19.760173,2.74108 20.442354,13.24217 0.236251,3.63671 -1.692141,6.683 -4.147975,6.42121 -8.072532,-0.86055 -16.32891,-4.917 -19.716353,-13.33187 z"
       id="path7387"
       sodipodi:nodetypes="sssss" />
    <path
       style="fill:#ffe9cd;fill-opacity:1;stroke:none;stroke-width:0.281456px;stroke-linecap:butt;stroke-linejoin:miter;stroke-opacity:1"
       d="m 192.21442,174.86796 c 0.97626,-2.44923 0.20914,-5.38574 -3.62229,-6.76857 -9.6052,-3.46674 -20.91685,2.9303 -21.63897,14.15628 -0.25008,3.88775 1.79119,7.14433 4.39079,6.86447 8.54506,-0.91996 17.28474,-5.25643 20.87047,-14.25218 z"
       id="path7941"
       sodipodi:nodetypes="sssss" />
    <path
       id="path14114"
       style="fill:#ddb310;fill-opacity:1;stroke:none;stroke-width:0.378021px;stroke-linecap:butt;stroke-linejoin:miter;stroke-opacity:1"
       d="m 113.61942,166.07903 c -4.46918,0 -4.70359,1.77454 -4.70359,5.01281 0,0.56852 0.0484,2.17071 0.0646,2.80187 0.16625,6.5006 22.54609,6.32143 22.7521,-0.0685 0.0173,-0.53754 0.0656,-1.8639 0.0656,-2.33415 0,-4.33244 -1.35551,-5.41201 -3.89537,-5.41201 -3.3661,0 -10.86059,0 -14.28337,0 z"
       sodipodi:nodetypes="sscssss" />
    <path
       id="path14254"
       style="fill:#ddb310;fill-opacity:1;stroke:none;stroke-width:0.306987px;stroke-linecap:butt;stroke-linejoin:miter;stroke-opacity:1"
       d="m 132.47781,149.46867 c -0.0588,1.85089 -0.11504,3.63454 -0.16857,5.34959 -0.0912,2.92108 -2.53181,5.26594 -5.45417,5.2373 l -12.9328,-0.12675 c -2.92236,-0.0286 -5.3534,-2.42021 -5.43248,-5.34165 -0.0369,-1.36443 -0.0754,-2.77102 -0.11519,-4.22134 -0.0803,-2.9214 2.22148,-5.37657 5.14202,-5.4838 l 13.84176,-0.50818 c 2.92054,-0.10723 5.21217,2.17379 5.11943,5.09483 z"
       inkscape:path-effect="#path-effect17218;#path-effect17228"
       inkscape:original-d="m 139.93823,136.84901 -38.95421,1.42937 c 0.3237,11.14364 0.58728,21.38543 0.77618,28.59154 l 37.22356,0.3638 c 0.23214,-7.52715 0.55037,-18.47692 0.95447,-30.38471 z" />
    <path
       id="path14256"
       style="fill:#ddb310;fill-opacity:1;stroke:none;stroke-width:0.284527px;stroke-linecap:butt;stroke-linejoin:miter;stroke-opacity:1"
       d="m 129.51323,124.72556 c 1.90205,0.0614 3.34433,2.48135 3.22747,5.40152 -0.0337,0.84239 -0.0669,1.68249 -0.0996,2.52057 -0.1139,2.92029 -2.5671,5.37836 -5.48748,5.48994 l -13.75641,0.5256 c -2.92038,0.11158 -5.36111,-2.16599 -5.45706,-5.08692 -0.0295,-0.89704 -0.0594,-1.7968 -0.0898,-2.69986 -0.0984,-2.92085 2.16769,-5.60218 5.08099,-5.82979 1.89587,-0.14812 3.90248,-0.25932 6.00067,-0.32927 2.92074,-0.0974 7.66042,-0.0861 10.58127,0.008 z"
       inkscape:path-effect="#path-effect17216;#path-effect17226"
       inkscape:original-d="m 124.22282,118.09028 c -8.65248,0 -17.9867,0.40914 -23.28507,1.89875 0.32849,8.70058 0.60795,17.51637 0.85096,25.66592 l 36.95085,-1.41468 c 0.28622,-8.2421 0.62139,-17.12591 1.01472,-25.77998 -3.77047,-0.17021 -9.48049,-0.37001 -15.53146,-0.37001 z" />
    <path
       id="path14258"
       style="fill:#ddb310;fill-opacity:1;stroke:none;stroke-width:0.286931px;stroke-linecap:butt;stroke-linejoin:miter;stroke-opacity:1"
       d="m 134.23422,108.14984 c -0.0721,1.28644 -0.14291,2.5895 -0.21212,3.91267 -0.15265,2.91851 -2.63095,5.33583 -5.55279,5.39834 l -15.89174,0.34002 c -2.92184,0.0625 -5.38264,-2.25419 -5.50896,-5.17396 -0.0613,-1.41591 -0.12377,-2.80989 -0.18741,-4.18511 -0.1351,-2.91938 2.11478,-5.31008 5.03713,-5.34034 l 17.33326,-0.17948 c 2.92235,-0.0303 5.14629,2.30994 4.98263,5.22786 z"
       inkscape:path-effect="#path-effect17214;#path-effect17224"
       inkscape:original-d="m 141.50971,96.196395 -41.04446,0.425192 -0.741102,-0.172488 c 0.471922,8.173841 0.894142,18.100171 1.260332,28.199441 l 39.03396,-0.83602 c 0.42593,-9.92468 0.92245,-19.63033 1.49127,-27.616125 z" />
    <path
       id="path14260"
       style="fill:#ddb310;fill-opacity:1;stroke:none;stroke-width:0.300249px;stroke-linecap:butt;stroke-linejoin:miter;stroke-opacity:1"
       d="m 134.94984,88.615219 c -0.12143,1.431255 -0.23932,2.947521 -0.35363,4.551634 -0.20774,2.91509 -2.70917,5.138502 -5.62643,4.963445 l -16.71105,-1.002783 c -2.91726,-0.175057 -5.40131,-2.683201 -5.58032,-5.60021 -0.0551,-0.898141 -0.11098,-1.765576 -0.16764,-2.601062 -0.19773,-2.915744 1.96178,-5.300288 4.88414,-5.330432 l 18.76682,-0.193575 c 2.92236,-0.03014 5.03515,2.301 4.78811,5.212983 z"
       inkscape:path-effect="#path-effect17212;#path-effect17222"
       inkscape:original-d="M 143.16024,76.365607 98.685373,76.82346 c 0.04156,0.729774 0.110303,1.476776 0.209085,2.24224 0.588045,4.556769 1.122712,13.509987 1.600512,24.27036 l 40.22249,2.41328 c 0.60627,-11.822365 1.30884,-21.728516 2.11556,-26.588038 0.15922,-0.959159 0.26618,-1.890303 0.32722,-2.795695 z" />
    <path
       style="fill:#ddb310;fill-opacity:1;stroke-width:6.00001;stroke-linecap:round;stroke-linejoin:round"
       inkscape:path-effect="#path-effect4801"
       inkscape:original-d="m 120.78177,72.37491 -3.35535,5.564519 h 6.71071 z"
       d="m 119.96202,73.734383 -1.71585,2.845573 a 0.89652709,0.89652709 60.544781 0 0 0.76775,1.359473 h 3.53571 a 0.89652571,0.89652571 119.45518 0 0 0.76775,-1.359472 l -1.71586,-2.845575 a 0.95724825,0.95724825 179.99996 0 0 -1.6395,10e-7 z"
       id="path4797" />
    <path
       style="fill:#ffe9cd;fill-opacity:1;stroke-width:6.00001;stroke-linecap:round;stroke-linejoin:round"
       inkscape:path-effect="#path-effect4795"
       inkscape:original-d="m 111.05937,56.251347 c -3.27719,1.889847 -5.71781,4.978154 -6.35207,9.495028 -0.40513,2.885104 0.13198,6.008571 0.21188,6.91689 0.25616,2.911233 2.7743,5.276164 5.69681,5.276164 h 0.0367 l 6.74222,-11.18123 z"
       d="m 109.73097,57.119011 c -2.23755,1.65124 -3.94221,3.976718 -4.72077,7.069732 -0.21393,0.84986 -0.40576,2.262868 -0.43879,3.13862 -0.0525,1.392816 0.0547,2.737512 0.16509,3.759656 0.0941,0.871296 0.22683,2.30219 0.54249,3.117037 0.64777,1.672184 2.06093,2.993146 3.77194,3.505163 0.83699,0.250467 1.58149,0.23021 1.60176,0.23021 l 5.92247,-9.821759 a 2.6327011,2.6327011 90.000068 0 0 0,-2.718944 l -4.69604,-7.787906 c -0.45274,-0.750816 -1.44307,-1.012137 -2.14815,-0.491809 z"
       id="path4791" />
    <path
       style="fill:#ffe9cd;fill-opacity:1;stroke-width:6.00001;stroke-linecap:round;stroke-linejoin:round"
       inkscape:path-effect="#path-effect4789"
       inkscape:original-d="m 130.51038,56.241012 -6.34173,10.517704 6.63835,11.00863 c 2.12241,-0.240242 4.10192,-0.771226 4.64571,-1.829346 1.33055,-2.588987 1.94247,-7.466721 1.55081,-10.351306 -0.59481,-4.380826 -3.10775,-7.452495 -6.49314,-9.345682 z"
       d="m 129.69066,57.600505 -4.70229,7.798718 a 2.6327335,2.6327335 89.998831 0 0 5e-5,2.718952 l 4.99881,8.289712 c 0.45275,0.750808 1.5294,1.292323 2.38801,1.116289 0.70886,-0.145335 1.35649,-0.336252 1.88233,-0.583826 0.7794,-0.366958 1.52133,-1.638111 1.79953,-2.468691 0.72249,-2.157107 1.10397,-5.015109 1.05982,-7.302477 -0.0169,-0.876062 -0.19842,-2.291261 -0.41793,-3.139563 -0.77732,-3.004036 -2.53396,-5.300431 -4.84659,-6.942086 -0.71458,-0.50725 -1.70902,-0.237855 -2.16174,0.512972 z"
       id="path4785" />
    <path
       style="fill:#ddb310;fill-opacity:1;stroke-width:6.00001;stroke-linecap:round;stroke-linejoin:round"
       inkscape:path-effect="#path-effect1878"
       inkscape:original-d="m 120.36578,53.982751 c -1.32843,0.0099 -2.6271,0.103982 -3.72949,0.284738 l 4.14548,6.874515 4.12844,-6.84661 c -1.37132,-0.218404 -2.97743,-0.32437 -4.54443,-0.312643 z"
       d="m 118.77937,54.03625 c -0.19154,0.01176 -0.38089,0.02544 -0.5675,0.04104 -0.87344,0.07302 -1.20855,0.798851 -0.7558,1.549657 l 2.50592,4.155605 a 0.95727189,0.95727189 179.99935 0 0 1.63953,-1.8e-5 l 2.48894,-4.127664 c 0.45274,-0.750816 0.11741,-1.473995 -0.75563,-1.552824 -0.45101,-0.04072 -0.91416,-0.07119 -1.38207,-0.09126 -0.8758,-0.03756 -2.29839,-0.02826 -3.17339,0.02546 z"
       id="rect390" />
    <path
       id="path13326"
       style="fill:url(#radialGradient14805);fill-opacity:1;stroke:none;stroke-width:10;stroke-linecap:round;stroke-linejoin:round;stroke-dasharray:none;stroke-opacity:1"
       d="m 38.089844,42.107422 c 12.930658,-0.141187 31.304025,6.587293 54.835937,23.107422 l 4.847657,3.404297 1.390624,-5.757813 c 2.398298,-9.930362 12.074078,-15.08025 22.005858,-14.935547 10.28546,0.149858 20.09913,5.902543 21.70899,16.332031 l 0.96484,6.248047 5.25977,-3.507812 c 23.34152,-15.571144 41.15026,-21.877823 53.74023,-21.960938 22.19167,-0.146491 27.8819,18.824225 18.79687,39.347657 -8.6636,19.571444 2.21628,36.678844 -26.86718,53.259764 -0.36564,0.20846 -0.76343,0.4012 -1.19532,0.58203 l -6.25976,2.6211 5.29492,4.24609 c 15.43968,12.37884 16.75256,34.53044 3.04297,46.98828 -15.11722,13.73693 -49.16183,10.23783 -56.46094,-8.50781 l -1.76758,-4.54102 -4.13085,2.58594 c -6.80818,4.26172 -19.26322,4.24915 -25.99415,-0.0215 l -4.125,-2.61719 -1.78906,4.54687 c -6.873194,17.46258 -36.36832,18.75361 -50.898436,6.75977 -15.235702,-12.57625 -13.657537,-36.36451 2.769532,-49.66992 l 6.285156,-5.0918 -7.847656,-1.95703 c -1.274583,-0.31777 -2.436559,-0.74847 -3.482422,-1.29688 C 23.184504,119.14664 33.835874,110.78232 22.197266,87.142578 10.179122,62.731932 15.805893,42.350732 38.089844,42.107422 Z"
       inkscape:path-effect="#path-effect14976"
       inkscape:original-d="M 38.044706,38.074162 C 12.030653,38.3582 5.564685,62.491389 18.578194,88.923771 c 10.739873,21.814279 1.184457,32.983119 27.76368,46.920129 1.363838,0.71514 2.830733,1.25277 4.378544,1.63866 -18.27805,14.80465 -20.171708,41.57557 -2.798795,55.91597 16.4072,13.54327 49.173333,12.05117 57.220797,-8.39484 8.07368,5.12259 22.15669,5.12846 30.29582,0.0336 8.43932,21.67395 45.8497,25.55062 62.93053,10.02937 15.66596,-14.23558 14.06899,-39.24873 -3.23184,-53.11976 0.56156,-0.23513 1.1082,-0.49833 1.63452,-0.7984 30.5904,-17.44005 20.886,-37.80211 28.55692,-55.131001 10.07529,-22.760479 3.13895,-45.183115 -22.51181,-45.01379 -13.57993,0.08965 -32.3281,6.880351 -55.95059,22.638928 C 144.89787,50.892289 133.11347,44.065569 121.22878,43.892411 109.74544,43.725102 98.170688,49.795026 95.243799,61.91405 71.418169,45.187721 52.051802,37.921222 38.044706,38.074162 Z" />
    <path
       id="path14937"
       style="display:inline;fill:none;fill-opacity:1;stroke:url(#radialGradient14978);stroke-width:4;stroke-linecap:round;stroke-linejoin:round;stroke-dasharray:none;stroke-opacity:1"
       d="m 38.066406,40.089844 c 13.468878,-0.147064 32.340761,6.851381 56.019532,23.474609 l 2.423828,1.701172 0.695312,-2.878906 c 2.662595,-11.024693 13.286582,-16.634522 23.994142,-16.478516 11.08507,0.161508 21.88485,6.45305 23.67383,18.042969 l 0.48047,3.123047 2.63086,-1.753907 c 23.48199,-15.66486 41.76075,-22.212445 54.8457,-22.298828 23.92236,-0.157915 30.23477,20.536989 20.6543,42.179688 -8.16645,18.448318 2.12723,37.184118 -27.71094,54.195308 -0.44598,0.25427 -0.9193,0.48343 -1.41602,0.69141 l -3.13086,1.31055 2.64844,2.12304 c 16.37025,13.12494 17.82645,36.70603 3.13867,50.05274 -16.09902,14.62909 -51.82805,10.94026 -59.69726,-9.26953 l -0.88282,-2.26953 -2.0664,1.29296 c -7.47365,4.6783 -20.74223,4.66927 -28.14453,-0.0273 l -2.0625,-1.30859 -0.89454,2.27343 c -7.460322,18.9543 -38.591884,20.34668 -54.060542,7.57813 -16.304308,-13.45832 -14.567403,-38.73989 2.785156,-52.79492 l 3.142578,-2.54492 -3.923828,-0.97852 c -1.411196,-0.35183 -2.726789,-0.83502 -3.93164,-1.4668 C 21.470897,120.52679 31.574993,110.75825 20.386719,88.033203 7.8705681,62.611031 13.91619,40.353531 38.066406,40.089844 Z"
       inkscape:path-effect="#path-effect14939"
       inkscape:original-d="M 38.044706,38.074162 C 12.030653,38.3582 5.564685,62.491389 18.578194,88.923771 c 10.739873,21.814279 1.184457,32.983119 27.76368,46.920129 1.363838,0.71514 2.830733,1.25277 4.378544,1.63866 -18.27805,14.80465 -20.171708,41.57557 -2.798795,55.91597 16.4072,13.54327 49.173333,12.05117 57.220797,-8.39484 8.07368,5.12259 22.15669,5.12846 30.29582,0.0336 8.43932,21.67395 45.8497,25.55062 62.93053,10.02937 15.66596,-14.23558 14.06899,-39.24873 -3.23184,-53.11976 0.56156,-0.23513 1.1082,-0.49833 1.63452,-0.7984 30.5904,-17.44005 20.886,-37.80211 28.55692,-55.131001 10.07529,-22.760479 3.13895,-45.183115 -22.51181,-45.01379 -13.57993,0.08965 -32.3281,6.880351 -55.95059,22.638928 C 144.89787,50.892289 133.11347,44.065569 121.22878,43.892411 109.74544,43.725102 98.170688,49.795026 95.243799,61.91405 71.418169,45.187721 52.051802,37.921222 38.044706,38.074162 Z" />
  </g>
</svg>
