<?xml version="1.0" encoding="UTF-8" standalone="no"?>
<!-- Created with Inkscape (http://www.inkscape.org/) -->
<svg width="240mm" height="240mm" viewBox="0 0 240 240" version="1.1" id="svg5" inkscape:version="1.2.1 (9c6d41e410, 2022-07-14)" sodipodi:docname="checkmark.svg" xmlns:inkscape="http://www.inkscape.org/namespaces/inkscape" xmlns:sodipodi="http://sodipodi.sourceforge.net/DTD/sodipodi-0.dtd" xmlns="http://www.w3.org/2000/svg" xmlns:svg="http://www.w3.org/2000/svg">
  <sodipodi:namedview id="namedview7" pagecolor="#181818" bordercolor="#666666" borderopacity="1.0" inkscape:showpageshadow="2" inkscape:pageopacity="0" inkscape:pagecheckerboard="0" inkscape:deskcolor="#353535" inkscape:document-units="mm" showgrid="false" inkscape:zoom="0.18641098" inkscape:cx="289.6825" inkscape:cy="-375.51436" inkscape:window-width="1920" inkscape:window-height="1017" inkscape:window-x="-8" inkscape:window-y="-8" inkscape:window-maximized="1" inkscape:current-layer="layer1"/>
  <defs id="defs2"/>
  <g inkscape:label="Layer 1" inkscape:groupmode="layer" id="layer1">
    <path style="color:#000000;fill:#ffffff;stroke:#000000;stroke-width:9.88562;stroke-linecap:round;stroke-linejoin:round;stroke-dasharray:none;stroke-opacity:1" d="m 216.89129,21.413974 c -5.06996,-0.004 -8.33439,2.714523 -11.63523,5.750748 -3.71211,3.414504 -52.28555,46.762827 -89.89979,111.168818 -16.022445,-22.2068 -28.467194,-36.34007 -36.321201,-42.059641 -5.473327,-3.98588 -16.942861,-2.19566 -20.971013,3.64516 -4.942518,7.166651 -1.323888,18.598341 4.963169,25.641191 7.525606,8.4303 15.104795,16.4975 31.372451,39.90937 9.472724,13.6328 33.055404,12.07089 40.234814,-1.45133 40.13177,-75.587091 78.25983,-115.197258 85.1051,-121.522948 6.49432,-6.001359 8.08155,-9.558277 6.60023,-14.731043 -1.04471,-3.648113 -4.86647,-6.3468 -9.44853,-6.350325 z" id="path242" sodipodi:nodetypes="sscsassssas"/>
  </g>
</svg>