<?xml version="1.0" encoding="UTF-8" standalone="no"?>
<!-- Created with Inkscape (http://www.inkscape.org/) -->

<svg
   width="240mm"
   height="240mm"
   viewBox="0 0 240 240"
   version="1.1"
   id="svg5"
   inkscape:version="1.2.1 (9c6d41e410, 2022-07-14)"
   sodipodi:docname="drop.svg"
   xmlns:inkscape="http://www.inkscape.org/namespaces/inkscape"
   xmlns:sodipodi="http://sodipodi.sourceforge.net/DTD/sodipodi-0.dtd"
   xmlns:xlink="http://www.w3.org/1999/xlink"
   xmlns="http://www.w3.org/2000/svg"
   xmlns:svg="http://www.w3.org/2000/svg">
  <sodipodi:namedview
     id="namedview7"
     pagecolor="#181818"
     bordercolor="#666666"
     borderopacity="1.0"
     inkscape:showpageshadow="2"
     inkscape:pageopacity="0"
     inkscape:pagecheckerboard="0"
     inkscape:deskcolor="#353535"
     inkscape:document-units="mm"
     showgrid="false"
     inkscape:zoom="0.1767767"
     inkscape:cx="251.73001"
     inkscape:cy="698.6215"
     inkscape:window-width="958"
     inkscape:window-height="1008"
     inkscape:window-x="953"
     inkscape:window-y="0"
     inkscape:window-maximized="0"
     inkscape:current-layer="layer1" />
  <defs
     id="defs2">
    <linearGradient
       inkscape:collect="always"
       id="linearGradient2365">
      <stop
         style="stop-color:#4053d3;stop-opacity:0;"
         offset="0"
         id="stop2361" />
      <stop
         style="stop-color:#4b00a3;stop-opacity:1;"
         offset="1"
         id="stop2363" />
    </linearGradient>
    <radialGradient
       inkscape:collect="always"
       xlink:href="#linearGradient2365"
       id="radialGradient2367"
       cx="107.46327"
       cy="129.20111"
       fx="107.46327"
       fy="129.20111"
       r="66.255276"
       gradientTransform="matrix(1.2935213,-0.07485807,0.113597,1.9629167,-49.276319,-110.60694)"
       gradientUnits="userSpaceOnUse" />
  </defs>
  <g
     inkscape:label="Layer 1"
     inkscape:groupmode="layer"
     id="layer1">
    <path
       style="fill:#4053d3;fill-opacity:1;stroke:none;stroke-width:0.264583px;stroke-linecap:butt;stroke-linejoin:miter;stroke-opacity:1"
       d="M 118.63684,18.653354 C 82.050843,44.953367 62.466349,91.190766 55.376461,123.71254 c -5.484505,25.15777 -5.550076,52.69259 7.852575,75.7674 20.118869,34.63785 85.585974,35.37879 106.385354,1.00363 13.97138,-23.09052 17.65075,-57.40226 12.73581,-80.01809 C 175.10714,87.136918 152.71374,43.036932 118.63684,18.653354 Z"
       id="path2256"
       sodipodi:nodetypes="cssssc" />
    <path
       style="fill:url(#radialGradient2367);fill-opacity:1;stroke:none;stroke-width:0.264583px;stroke-linecap:butt;stroke-linejoin:miter;stroke-opacity:1"
       d="M 118.63684,18.653354 C 82.050843,44.953367 62.466349,91.190766 55.376461,123.71254 c -5.484505,25.15777 -5.550076,52.69259 7.852575,75.7674 20.118869,34.63785 85.585974,35.37879 106.385354,1.00363 13.97138,-23.09052 17.65075,-57.40226 12.73581,-80.01809 C 175.10714,87.136918 152.71374,43.036932 118.63684,18.653354 Z"
       id="path2336"
       sodipodi:nodetypes="cssssc" />
    <path
       style="fill:#ffffff;stroke:none;stroke-width:0.264583px;stroke-linecap:butt;stroke-linejoin:miter;stroke-opacity:1;fill-opacity:0.59854013"
       d="m 96.599911,128.71625 22.832709,-31.61452 22.33089,31.86542 -22.5818,32.86906 z"
       id="path10019" />
    <path
       style="fill:#ffd3ff;fill-opacity:0.43795621;stroke:none;stroke-width:0.264583px;stroke-linecap:butt;stroke-linejoin:miter;stroke-opacity:1"
       d="m 119.43262,97.10173 21.43835,-30.74689 21.29032,32.290324 -20.39778,30.321986 z"
       id="path10747"
       sodipodi:nodetypes="ccccc" />
    <path
       style="fill:#c4ffff;stroke:none;stroke-width:0.264583px;stroke-linecap:butt;stroke-linejoin:miter;stroke-opacity:1;fill-opacity:0.38686135"
       d="M 97.178413,66.135869 119.43262,97.101728 96.599911,128.71625 75.608123,98.077659 Z"
       id="path11475"
       sodipodi:nodetypes="ccccc" />
    <path
       style="fill:#ffffff;stroke:none;stroke-width:0.264583px;stroke-linecap:butt;stroke-linejoin:miter;stroke-opacity:1;fill-opacity:0.31751823"
       d="m 96.599911,128.71625 22.581799,33.11996 -21.376572,31.61117 -22.92301,-33.46973 21.717783,-31.2614"
       id="path11477" />
    <path
       style="fill:#ffe4ff;stroke:none;stroke-width:0.264583px;stroke-linecap:butt;stroke-linejoin:miter;stroke-opacity:1;fill-opacity:0.42335767"
       d="m 119.18171,161.83621 22.09338,32.63194 22.85446,-33.62611 -22.36604,-31.87489 z"
       id="path11479"
       sodipodi:nodetypes="ccccc" />
    <path
       style="fill:#d7e4ff;stroke:none;stroke-width:0.264583px;stroke-linecap:butt;stroke-linejoin:miter;stroke-opacity:1;fill-opacity:0.58759123"
       d="M 119.43262,97.101728 97.178412,66.135868 118.63684,18.653354 140.87097,66.35484 Z"
       id="path11481" />
    <path
       style="fill:#ffffff;fill-opacity:0.27000001;stroke:none;stroke-width:0.264583px;stroke-linecap:butt;stroke-linejoin:miter;stroke-opacity:1"
       d="m 97.805136,193.44738 -18.513632,27.11376 38.580266,10.05707 1.88397,-4.80048 z"
       id="path13661"
       sodipodi:nodetypes="ccccc" />
    <path
       style="fill:#ffffff;fill-opacity:0.270073;stroke:none;stroke-width:0.264583px;stroke-linecap:butt;stroke-linejoin:miter;stroke-opacity:1"
       d="m 141.27509,194.46815 -21.51935,31.34958 2.98392,4.02155 36.65988,-8.70048 z"
       id="path13663"
       sodipodi:nodetypes="ccccc" />
    <path
       style="fill:#ffffff;fill-opacity:0.2591241;stroke:none;stroke-width:0.264583px;stroke-linecap:butt;stroke-linejoin:miter;stroke-opacity:1"
       d="m 54.17272,129.76812 -8.399804,2.78813 8.452477,56.72161 20.656735,-29.30021 z"
       id="path13665"
       sodipodi:nodetypes="ccccc" />
    <path
       style="fill:#ffdcf5;stroke:none;stroke-width:0.264583px;stroke-linecap:butt;stroke-linejoin:miter;stroke-opacity:1;fill-opacity:0.28832117"
       d="m 183.93994,130.96055 -21.77865,-32.315386 13.4682,-19.132481 12.7688,47.707607 z"
       id="path13667" />
    <path
       style="fill:#a7ffff;stroke:none;stroke-width:0.264583px;stroke-linecap:butt;stroke-linejoin:miter;stroke-opacity:1;fill-opacity:0.30291972"
       d="M 54.17272,129.76812 75.608121,98.077659 64.426041,82.020832 49.765584,128.15574 Z"
       id="path13669" />
    <path
       style="fill:#ffebff;stroke:none;stroke-width:0.264583px;stroke-linecap:butt;stroke-linejoin:miter;stroke-opacity:1;fill-opacity:0.25547445"
       d="m 183.93994,130.96055 -19.81039,29.88149 17.53354,25.49827 8.04482,-53.50736 z"
       id="path13671" />
    <path
       style="fill:#9fffff;stroke:none;stroke-width:0.264583px;stroke-linecap:butt;stroke-linejoin:miter;stroke-opacity:1;fill-opacity:0.13138686"
       d="m 74.882128,159.97765 -20.656735,29.30021 25.066109,31.28328 18.513634,-27.11376 z"
       id="path13673" />
    <path
       style="fill:#ffffff;stroke:none;stroke-width:0.264583px;stroke-linecap:butt;stroke-linejoin:miter;stroke-opacity:1;fill-opacity:0.15328467"
       d="m 141.27509,194.46815 22.85446,-33.62611 17.53354,25.49827 -22.26355,34.79849 z"
       id="path13675" />
    <path
       style="fill:#9cffff;stroke:none;stroke-width:0.264583px;stroke-linecap:butt;stroke-linejoin:miter;stroke-opacity:1;fill-opacity:0.18978101"
       d="M 75.608121,98.077659 64.426041,82.02083 82.045923,44.384835 97.178412,66.135868 Z"
       id="path13677" />
    <path
       style="fill:#ffffff;stroke:none;stroke-width:0.264583px;stroke-linecap:butt;stroke-linejoin:miter;stroke-opacity:1;fill-opacity:0.17"
       d="M 162.16129,98.645164 175.62949,79.512683 158.39319,41.37393 140.87097,66.35484 Z"
       id="path13681" />
  </g>
</svg>
