<?xml version="1.0" encoding="UTF-8" standalone="no"?>
<!-- Created with Inkscape (http://www.inkscape.org/) -->

<svg
   width="240mm"
   height="240mm"
   viewBox="0 0 240 240"
   version="1.1"
   id="svg5"
   inkscape:version="1.2.1 (9c6d41e410, 2022-07-14)"
   sodipodi:docname="flower.svg"
   xmlns:inkscape="http://www.inkscape.org/namespaces/inkscape"
   xmlns:sodipodi="http://sodipodi.sourceforge.net/DTD/sodipodi-0.dtd"
   xmlns:xlink="http://www.w3.org/1999/xlink"
   xmlns="http://www.w3.org/2000/svg"
   xmlns:svg="http://www.w3.org/2000/svg">
  <sodipodi:namedview
     id="namedview7"
     pagecolor="#181818"
     bordercolor="#666666"
     borderopacity="1.0"
     inkscape:showpageshadow="2"
     inkscape:pageopacity="0"
     inkscape:pagecheckerboard="0"
     inkscape:deskcolor="#353535"
     inkscape:document-units="mm"
     showgrid="false"
     inkscape:zoom="0.37282197"
     inkscape:cx="446.59386"
     inkscape:cy="1044.7346"
     inkscape:window-width="1276"
     inkscape:window-height="1008"
     inkscape:window-x="628"
     inkscape:window-y="0"
     inkscape:window-maximized="0"
     inkscape:current-layer="layer1" />
  <defs
     id="defs2">
    <linearGradient
       inkscape:collect="always"
       id="linearGradient28430">
      <stop
         style="stop-color:#a180ff;stop-opacity:1;"
         offset="0.35243553"
         id="stop28426" />
      <stop
         style="stop-color:#000000;stop-opacity:1;"
         offset="1"
         id="stop28428" />
    </linearGradient>
    <linearGradient
       inkscape:collect="always"
       id="linearGradient4938">
      <stop
         style="stop-color:#ffffff;stop-opacity:1;"
         offset="0.55300862"
         id="stop4936" />
      <stop
         style="stop-color:#3d7350;stop-opacity:1;"
         offset="0.67621773"
         id="stop4934" />
      <stop
         style="stop-color:#579d6a;stop-opacity:1;"
         offset="1"
         id="stop5284" />
    </linearGradient>
    <linearGradient
       inkscape:collect="always"
       id="linearGradient8317">
      <stop
         style="stop-color:#ffffff;stop-opacity:1;"
         offset="0.38395414"
         id="stop8309" />
      <stop
         style="stop-color:#597b00;stop-opacity:1;"
         offset="0.47851002"
         id="stop8311" />
      <stop
         style="stop-color:#91b300;stop-opacity:1;"
         offset="0.58739257"
         id="stop6012" />
      <stop
         style="stop-color:#91b300;stop-opacity:1;"
         offset="0.69914043"
         id="stop8313" />
      <stop
         style="stop-color:#ffffff;stop-opacity:1;"
         offset="1"
         id="stop8315" />
    </linearGradient>
    <radialGradient
       inkscape:collect="always"
       xlink:href="#linearGradient8317"
       id="radialGradient5189"
       cx="87.672752"
       cy="155.82982"
       fx="87.672752"
       fy="155.82982"
       r="28.914908"
       gradientTransform="matrix(0.8914702,-0.26944208,0.32562679,1.0773617,-41.331725,15.153627)"
       gradientUnits="userSpaceOnUse" />
    <radialGradient
       inkscape:collect="always"
       xlink:href="#linearGradient8317"
       id="radialGradient5329"
       cx="154.6022"
       cy="163.92468"
       fx="154.6022"
       fy="163.92468"
       r="27.392042"
       gradientTransform="matrix(0.87918719,0.36885165,-0.46791112,1.1153032,96.309946,-78.323263)"
       gradientUnits="userSpaceOnUse" />
    <radialGradient
       inkscape:collect="always"
       xlink:href="#linearGradient8317"
       id="radialGradient6828"
       cx="37.878483"
       cy="141.6958"
       fx="37.878483"
       fy="141.6958"
       r="16.130136"
       gradientTransform="matrix(0.78277803,-0.24532367,0.53094864,1.6941495,-69.033655,-94.429851)"
       gradientUnits="userSpaceOnUse" />
    <radialGradient
       inkscape:collect="always"
       xlink:href="#linearGradient8317"
       id="radialGradient6832"
       gradientUnits="userSpaceOnUse"
       gradientTransform="matrix(-0.96489489,-0.2919073,-0.50240107,1.660679,315.68583,-85.267574)"
       cx="39.160408"
       cy="141.68211"
       fx="39.160408"
       fy="141.68211"
       r="16.130136" />
    <radialGradient
       inkscape:collect="always"
       xlink:href="#linearGradient4938"
       id="radialGradient4940"
       cx="124.32287"
       cy="238.59348"
       fx="124.32287"
       fy="238.59348"
       r="38.684201"
       gradientTransform="matrix(0.90448526,0.0356973,-0.02931538,0.74278337,18.242663,31.487091)"
       gradientUnits="userSpaceOnUse" />
    <radialGradient
       inkscape:collect="always"
       xlink:href="#linearGradient4938"
       id="radialGradient6022"
       cx="193.9686"
       cy="187.55066"
       fx="193.9686"
       fy="187.55066"
       r="22.280769"
       gradientTransform="matrix(0.81533632,0.51102143,-0.68609828,1.0946719,165.46455,-113.90491)"
       gradientUnits="userSpaceOnUse" />
    <radialGradient
       inkscape:collect="always"
       xlink:href="#linearGradient4938"
       id="radialGradient6032"
       cx="51.30822"
       cy="188.33504"
       fx="51.30822"
       fy="188.33504"
       r="23.978571"
       gradientTransform="matrix(0.6780927,1.051846,-0.6609266,0.42607899,141.66913,56.318203)"
       gradientUnits="userSpaceOnUse" />
    <radialGradient
       inkscape:collect="always"
       xlink:href="#linearGradient4938"
       id="radialGradient6040"
       cx="24.483442"
       cy="172.36691"
       fx="24.483442"
       fy="172.36691"
       r="11.189507"
       gradientTransform="matrix(1.5910431,-0.72284123,1.224663,2.6956015,-225.57967,-265.0363)"
       gradientUnits="userSpaceOnUse" />
    <radialGradient
       inkscape:collect="always"
       xlink:href="#linearGradient4938"
       id="radialGradient6774"
       cx="214.8804"
       cy="169.83423"
       fx="214.8804"
       fy="169.83423"
       r="11.4114"
       gradientTransform="matrix(0.58975809,0.2340543,-0.76801317,1.9352005,215.68883,-202.22767)"
       gradientUnits="userSpaceOnUse" />
    <radialGradient
       inkscape:collect="always"
       xlink:href="#linearGradient28430"
       id="radialGradient28432"
       cx="118.57178"
       cy="50.245361"
       fx="118.57178"
       fy="50.245361"
       r="111.45578"
       gradientTransform="matrix(1.8789596,-0.00408813,0.00338046,1.553709,-102.29443,-13.289466)"
       gradientUnits="userSpaceOnUse" />
    <radialGradient
       inkscape:collect="always"
       xlink:href="#linearGradient28430"
       id="radialGradient28442"
       cx="122.37882"
       cy="46.789429"
       fx="122.37882"
       fy="46.789429"
       r="93.846771"
       gradientTransform="matrix(2.4010093,-0.0020695,0.00161154,1.8696815,-175.63644,-63.426313)"
       gradientUnits="userSpaceOnUse" />
    <radialGradient
       inkscape:collect="always"
       xlink:href="#linearGradient28430"
       id="radialGradient28450"
       cx="122.22511"
       cy="12.166641"
       fx="122.22511"
       fy="12.166641"
       r="86.291939"
       gradientTransform="matrix(2.2379217,-0.01523705,0.01409913,2.0707881,-149.50676,-39.313576)"
       gradientUnits="userSpaceOnUse" />
    <radialGradient
       inkscape:collect="always"
       xlink:href="#linearGradient28430"
       id="radialGradient28458"
       cx="122.33916"
       cy="-62.325333"
       fx="122.33916"
       fy="-62.325333"
       r="98.645164"
       gradientTransform="matrix(1.8953025,1.2550139e-4,-1.2545174e-4,1.8942234,-104.7949,27.065779)"
       gradientUnits="userSpaceOnUse" />
  </defs>
  <g
     inkscape:label="Layer 1"
     inkscape:groupmode="layer"
     id="layer1">
    <path
       id="path2237-2"
       style="fill:#ff80ff;stroke-width:0.355892"
       d="M 122.06438 17.742069 C 67.584272 17.742067 23.41924 61.9071 23.419242 116.38721 C 23.419243 125.69459 24.717535 134.69643 27.12806 143.23208 C 27.123427 143.22988 27.118741 143.22757 27.114107 143.22537 C 20.774239 170.46212 29.491928 189.72861 41.504443 187.79164 C 47.022081 199.09339 56.344683 207.18504 63.871037 205.09653 C 75.938972 201.74774 92.559677 205.26832 101.48373 213.6128 C 110.40778 221.95728 137.62993 222.33684 146.19366 212.90328 C 154.75739 203.46972 164.34537 201.8761 176.00011 204.38701 C 183.49151 206.00097 193.95852 199.10428 199.917 189.43857 C 221.71497 187.03936 219.24922 157.99188 216.99967 143.27963 C 216.99253 143.2813 216.98513 143.28357 216.97797 143.28531 C 219.3985 134.73318 220.70953 125.71483 220.70953 116.38721 C 220.70953 61.907103 176.5445 17.742071 122.06438 17.742069 z " />
    <path
       id="path2237"
       style="fill:url(#radialGradient28458);stroke-width:0.355892;fill-opacity:1"
       d="m 220.70967,116.38711 c 0,27.24011 -11.04124,51.9014 -28.8925,69.75266 -8.92563,8.92563 -18.9353,15.55769 -30.32367,17.6788 -12.24329,2.28034 -63.931494,4.6856 -77.368402,1.21181 -10.32343,-2.66887 -13.961989,-1.03934 -31.813254,-18.89061 -17.851264,-17.85126 -28.892501,-42.51255 -28.892502,-69.75266 -2e-6,-54.480223 44.164946,-98.645168 98.645168,-98.645166 54.48022,2e-6 98.64516,44.164946 98.64516,98.645166 z"
       sodipodi:nodetypes="ssssssss" />
    <path
       id="path14245-6"
       style="fill:url(#radialGradient28450);fill-opacity:1;stroke:none;stroke-width:0.264583px;stroke-linecap:butt;stroke-linejoin:miter;stroke-opacity:1"
       d="M 153.74049 14.175879 C 145.40646 14.124673 137.70865 15.489551 143.3003 18.13016 C 153.70787 23.045048 168.78012 28.602307 178.02893 45.532104 C 202.40982 90.160934 214.93559 74.657737 202.76333 50.389689 C 192.03825 29.006913 189.67193 24.936814 166.69577 15.827458 C 163.97057 14.746996 158.7409 14.206602 153.74049 14.175879 z M 89.858081 15.00942 C 84.557207 15.053573 78.735792 15.721492 75.783488 16.891992 C 52.807333 26.001348 50.440999 30.071447 39.715922 51.454224 C 27.543663 75.722271 39.223355 90.577891 65.578943 47.086015 C 77.79191 26.932232 85.509573 27.24594 99.178959 19.194694 C 104.24079 16.213283 97.605512 14.944887 89.858081 15.00942 z M 111.67897 18.656226 C 110.61055 18.655061 109.11902 18.981728 107.07512 19.792074 C 84.098963 28.901429 73.469122 36.114151 62.846293 57.547909 C 47.125651 89.267562 92.942925 99.655811 97.971281 57.16757 C 100.74085 33.765411 106.92282 41.13447 113.75636 22.501986 C 114.37871 20.805101 114.40939 18.659203 111.67897 18.656226 z M 133.72724 19.21123 C 129.09378 19.269302 127.33781 21.473123 130.1502 25.218616 C 136.31149 33.424135 143.06248 40.594245 149.23999 66.702389 C 155.79572 94.408995 186.91714 112.30701 182.04264 65.419263 C 179.86298 44.453279 159.30887 25.059718 140.38678 20.165177 C 137.7938 19.494457 135.54033 19.188507 133.72724 19.21123 z M 120.99933 21.583695 C 118.38678 21.528647 116.01493 24.468351 114.37235 29.570288 C 110.39128 41.935643 102.61825 41.857469 103.26863 59.755526 C 104.79848 101.85613 146.20676 100.34815 144.04961 70.659253 C 142.50866 49.451157 135.813 39.522658 125.8564 25.097176 C 124.22118 22.728004 122.56686 21.616725 120.99933 21.583695 z " />
    <path
       id="path11333"
       style="fill:url(#radialGradient28442);fill-opacity:1;stroke:none;stroke-width:0.264583px;stroke-linecap:butt;stroke-linejoin:miter;stroke-opacity:1"
       d="M 76.310588 35.517212 C 74.739394 35.475287 72.467207 36.258594 69.279492 38.150643 C 46.793655 51.496979 27.886613 87.485751 32.021818 108.05335 C 35.313974 124.42781 33.74071 128.20578 49.053853 121.53728 C 74.325508 110.53211 72.880616 66.758267 77.795768 48.795471 C 79.639797 42.056329 80.654477 35.633121 76.310588 35.517212 z M 171.28153 35.654154 C 169.50773 35.781168 168.74781 38.239641 169.07133 43.999898 C 169.45376 50.808938 172.07187 74.396766 179.71668 98.645142 C 191.06673 134.64605 233.00195 118.02882 214.49078 80.193555 C 203.57475 57.882104 194.45475 54.978335 178.29713 40.096777 C 175.20111 37.245276 172.84665 35.542084 171.28153 35.654154 z M 101.15662 45.140397 C 98.593451 45.28724 96.370163 48.38983 93.677486 54.264905 C 86.227387 70.520062 77.783601 77.634565 78.774003 97.555286 C 81.387251 150.11761 104.62855 140.24616 116.38721 105.00703 C 122.92441 85.415901 121.96347 69.199291 109.29049 51.781335 C 105.94465 47.182758 103.41823 45.01083 101.15662 45.140397 z M 143.12718 46.223535 C 140.9514 46.109216 138.7895 48.623536 136.4263 54.819393 C 127.5576 78.071382 127.3148 89.671768 126.84549 115.14233 C 126.17048 151.77688 172.81468 144.59424 170.13587 120.10998 C 166.98909 91.348468 167.64178 85.079769 149.91023 53.400358 C 147.49268 49.08113 145.30296 46.337854 143.12718 46.223535 z " />
    <path
       id="path8296"
       style="fill:url(#radialGradient28432);fill-opacity:1;stroke:none;stroke-width:0.264583px;stroke-linecap:butt;stroke-linejoin:miter;stroke-opacity:1"
       d="M 44.38127 58.578853 C 42.827162 58.548273 40.264018 60.049129 36.452039 63.600769 C 20.448278 78.511548 10.732855 88.523737 9.9353109 119.02064 C 9.7119046 127.56335 11.949888 159.70568 26.344128 133.95927 C 41.510945 106.83097 36.573612 92.353566 43.914115 71.873132 C 46.637184 64.27561 47.348205 58.637234 44.38127 58.578853 z M 200.03327 59.551921 C 197.83805 59.605612 196.47146 61.765911 197.83237 67.394853 C 204.86482 96.482292 201.42348 102.34309 203.67749 122.49123 C 206.96251 151.85538 229.06655 153.08602 232.23699 131.58938 C 235.9224 106.601 221.88163 85.370965 207.20492 64.348527 C 205.25211 61.551382 202.22849 59.498229 200.03327 59.551921 z M 167.10143 73.287516 C 164.05472 73.469991 162.98796 77.790249 163.72747 85.147257 C 166.43976 112.13053 149.50559 129.44005 155.87059 155.66388 C 168.56238 207.95416 210.64933 179.24401 204.38701 136.91826 C 200.5562 111.02661 191.07243 95.53405 177.88527 80.889636 C 173.03842 75.507183 169.47109 73.145591 167.10143 73.287516 z M 73.301469 74.98147 C 70.523529 74.893114 67.264078 77.064302 63.799723 80.76768 C 51.208119 94.228043 39.427998 112.00145 33.806205 128.25109 C 17.729276 174.721 74.997433 215.96243 84.416036 158.20843 C 91.824995 112.77739 84.141894 108.42705 81.040015 88.072144 C 79.648909 78.943561 76.873106 75.09507 73.301469 74.98147 z M 124.36864 85.005147 C 119.18507 85.024466 112.35822 94.487898 109.00007 103.67946 C 100.83614 126.02482 82.67916 144.86668 103.50221 203.83045 C 110.52406 223.71394 124.16461 213.12551 139.69587 198.86228 C 176.21494 165.32474 137.54821 137.50926 130.42666 94.145158 C 129.34789 87.576379 127.08384 84.995028 124.36864 85.005147 z " />
    <path
       style="fill:url(#radialGradient6828);fill-opacity:1.0;stroke:none;stroke-width:0.155521px;stroke-linecap:butt;stroke-linejoin:miter;stroke-opacity:1"
       d="m 29.04311,169.28185 c 0.694114,13.53746 16.103239,11.53928 22.118902,-0.494 15.437728,-53.90657 -52.2303254,-109.17799 -22.118902,0.494 z"
       id="path1502"
       sodipodi:nodetypes="ccc" />
    <path
       style="fill:url(#radialGradient6040);fill-opacity:1;stroke:none;stroke-width:0.264583px;stroke-linecap:butt;stroke-linejoin:miter;stroke-opacity:1"
       d="m 27.114208,143.22533 c -7.336028,31.51636 5.488731,52.36238 20.250904,42.03243 -0.815353,-19.53968 -9.805648,-37.06801 -20.250904,-42.03243 z"
       id="path1736"
       sodipodi:nodetypes="ccc" />
    <path
       style="fill:url(#radialGradient5189);fill-opacity:1;stroke:none;stroke-width:0.252898px;stroke-linecap:butt;stroke-linejoin:miter;stroke-opacity:1"
       d="m 61.872974,164.84084 c 39.423046,118.60281 50.314616,51.74114 54.826116,-2.28277 3.83898,-45.97033 -73.309047,-53.32243 -54.826116,2.28277 z"
       id="path462"
       sodipodi:nodetypes="sss" />
    <path
       style="fill:url(#radialGradient5329);fill-opacity:1.0;stroke:none;stroke-width:0.249448px;stroke-linecap:butt;stroke-linejoin:miter;stroke-opacity:1"
       d="m 179.88699,168.10955 c -18.6986,60.6327 -45.40841,75.52425 -51.81522,-2.22091 -3.75877,-45.61187 69.77078,-56.00238 51.81522,2.22091 z"
       id="path4420"
       sodipodi:nodetypes="sss" />
    <path
       style="fill:url(#radialGradient6832);fill-opacity:1.0;stroke:none;stroke-width:0.155521px;stroke-linecap:butt;stroke-linejoin:miter;stroke-opacity:1"
       d="m 216.78761,170.7873 c -1.69775,16.54837 -18.11051,14.04837 -24.8789,0.25873 -24.47044,-54.15748 54.4885,-108.174355 24.8789,-0.25873 z"
       id="path6830"
       sodipodi:nodetypes="ccc" />
    <path
       style="fill:url(#radialGradient6774);fill-opacity:1;stroke:none;stroke-width:0.264583px;stroke-linecap:butt;stroke-linejoin:miter;stroke-opacity:1"
       d="m 195.60222,189.56996 c 26.41916,1.10843 23.78553,-30.67062 21.39724,-46.2903 -6.42914,1.50252 -21.31823,32.46789 -21.39724,46.2903 z"
       id="path11019"
       sodipodi:nodetypes="ccc" />
    <path
       style="fill:#91b300;stroke:none;stroke-width:0.264583px;stroke-linecap:butt;stroke-linejoin:miter;stroke-opacity:1;fill-opacity:1"
       d="m 67.243576,170.11621 19.069073,9.28363 26.847251,-3.51273 34.62542,6.02181 12.79635,-1.75636 18.56726,-14.05089 -4.26545,39.39269 -101.367184,1.25454 z"
       id="path6014" />
    <path
       style="fill:url(#radialGradient6032);fill-opacity:1;stroke:none;stroke-width:0.264583px;stroke-linecap:butt;stroke-linejoin:miter;stroke-opacity:1"
       d="m 42.956034,149.55676 c -5.31436,0.16186 -8.250485,4.91148 -6.05286,15.798 -1.799534,20.27582 14.899928,43.09054 26.967863,39.74177 6.114021,-1.69661 13.395794,-1.62687 20.254061,-0.0631 v -0.003 C 81.469483,174.52506 55.54268,149.17343 42.956034,149.55676 Z"
       id="path9515" />
    <path
       id="path4161"
       style="fill:url(#radialGradient4940);fill-opacity:1;stroke:none;stroke-width:0.264583px;stroke-linecap:butt;stroke-linejoin:miter;stroke-opacity:1"
       d="M 123.95522 169.11474 C 105.55548 168.95524 86.848796 181.34358 84.125098 205.03038 L 84.125098 205.03348 C 90.803768 206.55635 97.080902 209.49591 101.48373 213.6128 C 110.40778 221.95728 137.62993 222.33684 146.19366 212.90328 C 150.92249 207.69414 155.96453 204.87921 161.4935 203.82218 L 161.4935 203.81857 C 158.25363 180.48739 141.23983 169.26458 123.95522 169.11474 z " />
    <path
       style="fill:url(#radialGradient6022);fill-opacity:1;stroke:none;stroke-width:0.264583px;stroke-linecap:butt;stroke-linejoin:miter;stroke-opacity:1"
       d="m 198.30779,151.68376 c -12.38085,-0.3851 -35.38863,20.84518 -36.81429,52.13481 v 0.004 c 4.48379,-0.8572 9.28753,-0.55957 14.50661,0.56483 11.65473,2.51092 30.53084,-15.56528 28.3869,-32.64504 3.97557,-13.72392 0.40599,-19.85649 -6.07922,-20.05821 z"
       id="path4169" />
  </g>
</svg>
