<?xml version="1.0" encoding="UTF-8" standalone="no"?>
<!-- Created with Inkscape (http://www.inkscape.org/) -->

<svg
   width="240mm"
   height="240mm"
   viewBox="0 0 240 240"
   version="1.1"
   id="svg5"
   inkscape:version="1.2.1 (9c6d41e410, 2022-07-14)"
   sodipodi:docname="flower.svg"
   xmlns:inkscape="http://www.inkscape.org/namespaces/inkscape"
   xmlns:sodipodi="http://sodipodi.sourceforge.net/DTD/sodipodi-0.dtd"
   xmlns:xlink="http://www.w3.org/1999/xlink"
   xmlns="http://www.w3.org/2000/svg"
   xmlns:svg="http://www.w3.org/2000/svg">
  <sodipodi:namedview
     id="namedview7"
     pagecolor="#181818"
     bordercolor="#666666"
     borderopacity="1.0"
     inkscape:showpageshadow="2"
     inkscape:pageopacity="0"
     inkscape:pagecheckerboard="0"
     inkscape:deskcolor="#353535"
     inkscape:document-units="mm"
     showgrid="false"
     inkscape:zoom="0.093205493"
     inkscape:cx="300.41148"
     inkscape:cy="595.45847"
     inkscape:window-width="957"
     inkscape:window-height="1008"
     inkscape:window-x="954"
     inkscape:window-y="0"
     inkscape:window-maximized="0"
     inkscape:current-layer="layer1" />
  <defs
     id="defs2">
    <linearGradient
       id="linearGradient7908">
      <stop
         style="stop-color:#ffffff;stop-opacity:1;"
         offset="0.08309457"
         id="stop7898" />
      <stop
         style="stop-color:#ffffff;stop-opacity:0.57868022;"
         offset="0.20916907"
         id="stop7900" />
      <stop
         style="stop-color:#ffffff;stop-opacity:0;"
         offset="0.48137537"
         id="stop7902" />
      <stop
         style="stop-color:#000000;stop-opacity:0;"
         offset="0.49856734"
         id="stop7904" />
      <stop
         style="stop-color:#000000;stop-opacity:0.33502537;"
         offset="1"
         id="stop7906" />
    </linearGradient>
    <linearGradient
       id="linearGradient7892">
      <stop
         style="stop-color:#ffffff;stop-opacity:1;"
         offset="0.08309406"
         id="stop7882" />
      <stop
         style="stop-color:#ffffff;stop-opacity:0.57868022;"
         offset="0.20916907"
         id="stop7884" />
      <stop
         style="stop-color:#ffffff;stop-opacity:0;"
         offset="0.48137537"
         id="stop7886" />
      <stop
         style="stop-color:#000000;stop-opacity:0;"
         offset="0.49856734"
         id="stop7888" />
      <stop
         style="stop-color:#000000;stop-opacity:1"
         offset="1"
         id="stop7890" />
    </linearGradient>
    <linearGradient
       id="linearGradient6738">
      <stop
         style="stop-color:#ffffff;stop-opacity:0.72588831;"
         offset="0.18624642"
         id="stop6748" />
      <stop
         style="stop-color:#ffffff;stop-opacity:0.40101519;"
         offset="0.49570203"
         id="stop6750" />
      <stop
         style="stop-color:#ffffff;stop-opacity:0;"
         offset="1"
         id="stop6752" />
    </linearGradient>
    <linearGradient
       id="linearGradient6738-1">
      <stop
         style="stop-color:#ffffff;stop-opacity:1;"
         offset="0.08309457"
         id="stop6732" />
      <stop
         style="stop-color:#ffffff;stop-opacity:0.57868022;"
         offset="0.20916907"
         id="stop6734" />
      <stop
         style="stop-color:#ffffff;stop-opacity:0;"
         offset="0.48137537"
         id="stop6736" />
      <stop
         style="stop-color:#000000;stop-opacity:0;"
         offset="0.49856734"
         id="stop6755" />
      <stop
         style="stop-color:#000000;stop-opacity:0.33502537;"
         offset="1"
         id="stop6757" />
    </linearGradient>
    <inkscape:path-effect
       effect="offset"
       id="path-effect16115"
       is_visible="true"
       lpeversion="1.2"
       linejoin_type="miter"
       unit="mm"
       offset="0"
       miter_limit="4"
       attempt_force_join="false"
       update_on_knot_move="true" />
    <inkscape:path-effect
       effect="offset"
       id="path-effect16113"
       is_visible="true"
       lpeversion="1.2"
       linejoin_type="round"
       unit="mm"
       offset="-3.9981449"
       miter_limit="4"
       attempt_force_join="false"
       update_on_knot_move="true" />
    <linearGradient
       inkscape:collect="always"
       id="linearGradient16107">
      <stop
         style="stop-color:#000000;stop-opacity:0;"
         offset="0.89111745"
         id="stop16105" />
      <stop
         style="stop-color:#000000;stop-opacity:0.09644671;"
         offset="1"
         id="stop16103" />
    </linearGradient>
    <linearGradient
       inkscape:collect="always"
       id="linearGradient10782">
      <stop
         style="stop-color:#ffffff;stop-opacity:0.84263957;"
         offset="0.0974212"
         id="stop10894" />
      <stop
         style="stop-color:#ffffff;stop-opacity:0.57999998;"
         offset="0.15472779"
         id="stop10896" />
      <stop
         style="stop-color:#ffffff;stop-opacity:0.11675127;"
         offset="0.48424068"
         id="stop10796" />
      <stop
         style="stop-color:#ffffff;stop-opacity:0;"
         offset="0.58166188"
         id="stop10780" />
      <stop
         style="stop-color:#000000;stop-opacity:0;"
         offset="0.58452719"
         id="stop10792" />
      <stop
         style="stop-color:#000000;stop-opacity:0.55837566;"
         offset="1"
         id="stop10788" />
    </linearGradient>
    <linearGradient
       inkscape:collect="always"
       id="linearGradient4526">
      <stop
         style="stop-color:#ff7cdc;stop-opacity:1;"
         offset="0.55300862"
         id="stop4520" />
      <stop
         style="stop-color:#2f098e;stop-opacity:1;"
         offset="0.67621773"
         id="stop4522" />
      <stop
         style="stop-color:#5605ff;stop-opacity:1;"
         offset="1"
         id="stop4524" />
    </linearGradient>
    <linearGradient
       inkscape:collect="always"
       id="linearGradient4518">
      <stop
         style="stop-color:#ff7cdc;stop-opacity:1;"
         offset="0.55300862"
         id="stop4512" />
      <stop
         style="stop-color:#2f098e;stop-opacity:1;"
         offset="0.67621773"
         id="stop4514" />
      <stop
         style="stop-color:#5605ff;stop-opacity:1;"
         offset="1"
         id="stop4516" />
    </linearGradient>
    <linearGradient
       inkscape:collect="always"
       id="linearGradient4510">
      <stop
         style="stop-color:#ff7cdc;stop-opacity:1;"
         offset="0.55300862"
         id="stop4504" />
      <stop
         style="stop-color:#2f098e;stop-opacity:1;"
         offset="0.67621773"
         id="stop4506" />
      <stop
         style="stop-color:#5605ff;stop-opacity:1;"
         offset="1"
         id="stop4508" />
    </linearGradient>
    <linearGradient
       inkscape:collect="always"
       id="linearGradient4502">
      <stop
         style="stop-color:#ff7cdc;stop-opacity:1;"
         offset="0.55300862"
         id="stop4496" />
      <stop
         style="stop-color:#2f098e;stop-opacity:1;"
         offset="0.67621773"
         id="stop4498" />
      <stop
         style="stop-color:#5605ff;stop-opacity:1;"
         offset="1"
         id="stop4500" />
    </linearGradient>
    <linearGradient
       inkscape:collect="always"
       id="linearGradient3393">
      <stop
         style="stop-color:#ffa8fa;stop-opacity:1;"
         offset="0.38395414"
         id="stop3383" />
      <stop
         style="stop-color:#4805d4;stop-opacity:1;"
         offset="0.47851002"
         id="stop3385" />
      <stop
         style="stop-color:#9d6ffb;stop-opacity:1;"
         offset="0.58739257"
         id="stop3387" />
      <stop
         style="stop-color:#9d6ffb;stop-opacity:1;"
         offset="0.69914043"
         id="stop3389" />
      <stop
         style="stop-color:#d4c0fb;stop-opacity:1;"
         offset="1"
         id="stop3391" />
    </linearGradient>
    <linearGradient
       inkscape:collect="always"
       id="linearGradient3381">
      <stop
         style="stop-color:#ffa8fa;stop-opacity:1;"
         offset="0.38395414"
         id="stop3371" />
      <stop
         style="stop-color:#4805d4;stop-opacity:1;"
         offset="0.47851002"
         id="stop3373" />
      <stop
         style="stop-color:#9d6ffb;stop-opacity:1;"
         offset="0.58739257"
         id="stop3375" />
      <stop
         style="stop-color:#9d6ffb;stop-opacity:1;"
         offset="0.69914043"
         id="stop3377" />
      <stop
         style="stop-color:#d4c0fb;stop-opacity:1;"
         offset="1"
         id="stop3379" />
    </linearGradient>
    <linearGradient
       inkscape:collect="always"
       id="linearGradient3369">
      <stop
         style="stop-color:#ffa8fa;stop-opacity:1;"
         offset="0.38395414"
         id="stop3359" />
      <stop
         style="stop-color:#4805d4;stop-opacity:1;"
         offset="0.47851002"
         id="stop3361" />
      <stop
         style="stop-color:#9d6ffb;stop-opacity:1;"
         offset="0.58739257"
         id="stop3363" />
      <stop
         style="stop-color:#9d6ffb;stop-opacity:1;"
         offset="0.69914043"
         id="stop3365" />
      <stop
         style="stop-color:#d4c0fb;stop-opacity:1;"
         offset="1"
         id="stop3367" />
    </linearGradient>
    <linearGradient
       inkscape:collect="always"
       id="linearGradient3345">
      <stop
         style="stop-color:#cc7cfb;stop-opacity:1;"
         offset="0.35243553"
         id="stop3341" />
      <stop
         style="stop-color:#000000;stop-opacity:1;"
         offset="1"
         id="stop3343" />
    </linearGradient>
    <linearGradient
       inkscape:collect="always"
       id="linearGradient1887">
      <stop
         style="stop-color:#cf006f;stop-opacity:1;"
         offset="0.35243553"
         id="stop1883" />
      <stop
         style="stop-color:#000000;stop-opacity:1;"
         offset="1"
         id="stop1885" />
    </linearGradient>
    <linearGradient
       inkscape:collect="always"
       id="linearGradient1881">
      <stop
         style="stop-color:#fb49b0;stop-opacity:1;"
         offset="0.35243553"
         id="stop1877" />
      <stop
         style="stop-color:#000000;stop-opacity:1;"
         offset="1"
         id="stop1879" />
    </linearGradient>
    <linearGradient
       inkscape:collect="always"
       id="linearGradient28430">
      <stop
         style="stop-color:#cf006f;stop-opacity:1;"
         offset="0.35243553"
         id="stop28426" />
      <stop
         style="stop-color:#000000;stop-opacity:1;"
         offset="1"
         id="stop28428" />
    </linearGradient>
    <linearGradient
       inkscape:collect="always"
       id="linearGradient4938">
      <stop
         style="stop-color:#ff7cdc;stop-opacity:1;"
         offset="0.55300862"
         id="stop4936" />
      <stop
         style="stop-color:#2f098e;stop-opacity:1;"
         offset="0.67621773"
         id="stop4934" />
      <stop
         style="stop-color:#5605ff;stop-opacity:1;"
         offset="1"
         id="stop5284" />
    </linearGradient>
    <linearGradient
       inkscape:collect="always"
       id="linearGradient8317">
      <stop
         style="stop-color:#ffa8fa;stop-opacity:1;"
         offset="0.38395414"
         id="stop8309" />
      <stop
         style="stop-color:#4805d4;stop-opacity:1;"
         offset="0.47851002"
         id="stop8311" />
      <stop
         style="stop-color:#9d6ffb;stop-opacity:1;"
         offset="0.58739257"
         id="stop6012" />
      <stop
         style="stop-color:#9d6ffb;stop-opacity:1;"
         offset="0.69914043"
         id="stop8313" />
      <stop
         style="stop-color:#d4c0fb;stop-opacity:1;"
         offset="1"
         id="stop8315" />
    </linearGradient>
    <radialGradient
       inkscape:collect="always"
       xlink:href="#linearGradient3369"
       id="radialGradient5189"
       cx="85.522545"
       cy="154.63335"
       fx="85.522545"
       fy="154.63335"
       r="28.914908"
       gradientTransform="matrix(0.8914702,-0.26944208,0.32562679,1.0773617,-39.744224,15.153627)"
       gradientUnits="userSpaceOnUse" />
    <radialGradient
       inkscape:collect="always"
       xlink:href="#linearGradient3381"
       id="radialGradient5329"
       cx="155.28859"
       cy="163.69768"
       fx="155.28859"
       fy="163.69768"
       r="27.392042"
       gradientTransform="matrix(0.87918719,0.36885165,-0.46791112,1.1153032,95.780779,-78.323263)"
       gradientUnits="userSpaceOnUse" />
    <radialGradient
       inkscape:collect="always"
       xlink:href="#linearGradient8317"
       id="radialGradient6828"
       cx="37.878483"
       cy="141.6958"
       fx="37.878483"
       fy="141.6958"
       r="16.130136"
       gradientTransform="matrix(0.78277803,-0.24532367,0.53094864,1.6941495,-69.033655,-94.429851)"
       gradientUnits="userSpaceOnUse" />
    <radialGradient
       inkscape:collect="always"
       xlink:href="#linearGradient3393"
       id="radialGradient6832"
       gradientUnits="userSpaceOnUse"
       gradientTransform="matrix(-0.96489489,-0.2919073,-0.50240107,1.660679,315.68583,-85.267574)"
       cx="39.160408"
       cy="141.68211"
       fx="39.160408"
       fy="141.68211"
       r="16.130136" />
    <radialGradient
       inkscape:collect="always"
       xlink:href="#linearGradient4502"
       id="radialGradient4940"
       cx="124.32287"
       cy="238.59348"
       fx="124.32287"
       fy="238.59348"
       r="38.684201"
       gradientTransform="matrix(0.90448526,0.0356973,-0.02931538,0.74278337,18.242663,31.487091)"
       gradientUnits="userSpaceOnUse" />
    <radialGradient
       inkscape:collect="always"
       xlink:href="#linearGradient4510"
       id="radialGradient6022"
       cx="193.9686"
       cy="187.55066"
       fx="193.9686"
       fy="187.55066"
       r="22.280769"
       gradientTransform="matrix(0.81533632,0.51102143,-0.68609828,1.0946719,165.46455,-113.90491)"
       gradientUnits="userSpaceOnUse" />
    <radialGradient
       inkscape:collect="always"
       xlink:href="#linearGradient4518"
       id="radialGradient6032"
       cx="51.30822"
       cy="188.33504"
       fx="51.30822"
       fy="188.33504"
       r="23.978571"
       gradientTransform="matrix(0.6780927,1.051846,-0.6609266,0.42607899,141.66913,56.318203)"
       gradientUnits="userSpaceOnUse" />
    <radialGradient
       inkscape:collect="always"
       xlink:href="#linearGradient4938"
       id="radialGradient6040"
       cx="24.483442"
       cy="172.36691"
       fx="24.483442"
       fy="172.36691"
       r="11.189507"
       gradientTransform="matrix(1.5910431,-0.72284123,1.224663,2.6956015,-225.57967,-265.0363)"
       gradientUnits="userSpaceOnUse" />
    <radialGradient
       inkscape:collect="always"
       xlink:href="#linearGradient4526"
       id="radialGradient6774"
       cx="214.8804"
       cy="169.83423"
       fx="214.8804"
       fy="169.83423"
       r="11.4114"
       gradientTransform="matrix(0.58975809,0.2340543,-0.76801317,1.9352005,215.68883,-202.22767)"
       gradientUnits="userSpaceOnUse" />
    <radialGradient
       inkscape:collect="always"
       xlink:href="#linearGradient3345"
       id="radialGradient28432"
       cx="118.57178"
       cy="50.245361"
       fx="118.57178"
       fy="50.245361"
       r="111.45578"
       gradientTransform="matrix(1.8789596,-0.00408813,0.00338046,1.553709,-102.29443,-13.289466)"
       gradientUnits="userSpaceOnUse" />
    <radialGradient
       inkscape:collect="always"
       xlink:href="#linearGradient1881"
       id="radialGradient28442"
       cx="122.37882"
       cy="46.789429"
       fx="122.37882"
       fy="46.789429"
       r="93.846771"
       gradientTransform="matrix(2.4010093,-0.0020695,0.00161154,1.8696815,-175.63644,-63.426313)"
       gradientUnits="userSpaceOnUse" />
    <radialGradient
       inkscape:collect="always"
       xlink:href="#linearGradient1887"
       id="radialGradient28450"
       cx="122.22511"
       cy="12.166641"
       fx="122.22511"
       fy="12.166641"
       r="86.291939"
       gradientTransform="matrix(2.2379217,-0.01523705,0.01409913,2.0707881,-149.50676,-39.313576)"
       gradientUnits="userSpaceOnUse" />
    <radialGradient
       inkscape:collect="always"
       xlink:href="#linearGradient28430"
       id="radialGradient28458"
       cx="122.33916"
       cy="-62.325333"
       fx="122.33916"
       fy="-62.325333"
       r="98.645164"
       gradientTransform="matrix(1.8953025,1.2550139e-4,-1.2545174e-4,1.8942234,-104.7949,27.065779)"
       gradientUnits="userSpaceOnUse" />
    <radialGradient
       inkscape:collect="always"
       xlink:href="#linearGradient10782"
       id="radialGradient10784"
       cx="122.24711"
       cy="98.534698"
       fx="122.24711"
       fy="98.534698"
       r="98.645144"
       gradientTransform="matrix(1.2126517,0.00941266,-0.01049028,1.3514852,-24.141487,-35.902256)"
       gradientUnits="userSpaceOnUse" />
    <radialGradient
       inkscape:collect="always"
       xlink:href="#linearGradient16107"
       id="radialGradient16109"
       cx="121.01438"
       cy="107.32164"
       fx="121.01438"
       fy="107.32164"
       r="98.645144"
       gradientTransform="matrix(1.0790216,-0.03820398,0.03944896,1.1163401,-13.67021,-8.3943797)"
       gradientUnits="userSpaceOnUse" />
    <radialGradient
       inkscape:collect="always"
       xlink:href="#linearGradient6738"
       id="radialGradient5827"
       cx="121.15443"
       cy="208.49298"
       fx="121.15443"
       fy="208.49298"
       r="16.32258"
       gradientTransform="matrix(1.2476025,-0.01003692,0.00473992,0.58918112,-30.872059,85.415358)"
       gradientUnits="userSpaceOnUse" />
    <radialGradient
       inkscape:collect="always"
       xlink:href="#linearGradient6738"
       id="radialGradient6730"
       gradientUnits="userSpaceOnUse"
       gradientTransform="matrix(0.82176232,-0.0766057,0.08331285,0.57617661,-38.027502,164.3841)"
       cx="123.88908"
       cy="206.14159"
       fx="123.88908"
       fy="206.14159"
       r="16.32258" />
    <radialGradient
       inkscape:collect="always"
       xlink:href="#linearGradient6738"
       id="radialGradient6742"
       gradientUnits="userSpaceOnUse"
       gradientTransform="matrix(0.82176232,-0.0766057,0.08331285,0.57617661,-259.71598,-6.6366981)"
       cx="123.88908"
       cy="206.14159"
       fx="123.88908"
       fy="206.14159"
       r="16.32258" />
    <radialGradient
       inkscape:collect="always"
       xlink:href="#linearGradient6738-1"
       id="radialGradient6746"
       gradientUnits="userSpaceOnUse"
       gradientTransform="matrix(0.97329009,0.20764145,-0.17414686,0.78052003,-163.36994,24.460744)"
       cx="124.10676"
       cy="203.465"
       fx="124.10676"
       fy="203.465"
       r="16.32258" />
    <radialGradient
       inkscape:collect="always"
       xlink:href="#linearGradient7892"
       id="radialGradient7608"
       gradientUnits="userSpaceOnUse"
       gradientTransform="matrix(0.81695529,0.09326784,-0.06057897,0.51505681,-228.67327,-114.36078)"
       cx="123.61456"
       cy="201.31801"
       fx="123.61456"
       fy="201.31801"
       r="16.32258" />
    <radialGradient
       inkscape:collect="always"
       xlink:href="#linearGradient7908"
       id="radialGradient7896"
       gradientUnits="userSpaceOnUse"
       gradientTransform="matrix(0.84113757,0.26492918,-0.24022415,0.72640237,-234.9375,-193.31549)"
       cx="123.91461"
       cy="204.20558"
       fx="123.91461"
       fy="204.20558"
       r="16.32258" />
    <radialGradient
       inkscape:collect="always"
       xlink:href="#linearGradient6738"
       id="radialGradient8049"
       gradientUnits="userSpaceOnUse"
       gradientTransform="matrix(0.37314295,-0.11646761,0.06560041,0.24702547,-130.11674,90.588457)"
       cx="123.88908"
       cy="206.14159"
       fx="123.88908"
       fy="206.14159"
       r="16.32258" />
    <radialGradient
       inkscape:collect="always"
       xlink:href="#linearGradient7892"
       id="radialGradient8192"
       gradientUnits="userSpaceOnUse"
       gradientTransform="matrix(0.81190989,0.16303265,-0.10132556,0.48841436,-179.70139,115.24137)"
       cx="123.70692"
       cy="202.96518"
       fx="123.70692"
       fy="202.96518"
       r="16.32258" />
    <radialGradient
       inkscape:collect="always"
       xlink:href="#linearGradient6738"
       id="radialGradient8196"
       gradientUnits="userSpaceOnUse"
       gradientTransform="matrix(0.40579182,-0.1317718,0.07134024,0.27948536,171.20245,305.38374)"
       cx="123.88908"
       cy="206.14159"
       fx="123.88908"
       fy="206.14159"
       r="16.32258" />
  </defs>
  <g
     inkscape:label="Layer 1"
     inkscape:groupmode="layer"
     id="layer1">
    <path
       id="path2237"
       style="fill:url(#radialGradient28458);stroke-width:0.355892;fill-opacity:1"
       d="m 220.70967,116.38711 c 0,27.24011 -11.04124,51.9014 -28.8925,69.75266 -8.92563,8.92563 -18.9353,15.55769 -30.32367,17.6788 -12.24329,2.28034 -63.931494,4.6856 -77.368402,1.21181 -10.32343,-2.66887 -13.961989,-1.03934 -31.813254,-18.89061 -17.851264,-17.85126 -28.892501,-42.51255 -28.892502,-69.75266 -2e-6,-54.480223 44.164946,-98.645168 98.645168,-98.645166 54.48022,2e-6 98.64516,44.164946 98.64516,98.645166 z"
       sodipodi:nodetypes="ssssssss" />
    <path
       id="path14245-6"
       style="fill:url(#radialGradient28450);fill-opacity:1;stroke:none;stroke-width:0.264583px;stroke-linecap:butt;stroke-linejoin:miter;stroke-opacity:1"
       d="M 111.67897 18.656226 C 110.61055 18.655061 109.11902 18.981728 107.07512 19.792074 C 84.098984 28.901419 73.469112 36.114172 62.846293 57.547909 C 47.125667 89.26753 92.94293 99.655768 97.971281 57.16757 C 100.74085 33.765434 106.92283 41.134451 113.75636 22.501986 C 114.37871 20.805102 114.40939 18.659203 111.67897 18.656226 z M 133.72724 19.21123 C 129.09378 19.269302 127.33781 21.473126 130.1502 25.218616 C 136.31148 33.424127 143.06248 40.594271 149.23999 66.702389 C 155.79571 94.408967 186.91713 112.30696 182.04264 65.419263 C 179.86298 44.4533 159.30885 25.059714 140.38678 20.165177 C 137.7938 19.494458 135.54033 19.188507 133.72724 19.21123 z M 95.03761 21.490678 C 69.081449 28.868921 47.490885 46.612004 35.01285 69.958521 C 36.280036 79.308026 47.462225 76.982143 65.578943 47.086015 C 76.499013 29.065764 83.837338 27.394941 95.03761 21.490678 z M 120.99933 21.583695 C 118.38679 21.528648 116.01493 24.468356 114.37235 29.570288 C 110.39128 41.935631 102.61825 41.857487 103.26863 59.755526 C 104.79848 101.85609 146.20675 100.34812 144.04961 70.659253 C 142.50866 49.451178 135.81299 39.522644 125.8564 25.097176 C 124.22118 22.728006 122.56686 21.616725 120.99933 21.583695 z M 152.98911 22.693188 C 161.75149 27.094845 171.38863 33.377153 178.02893 45.532104 C 195.88473 78.21687 207.38009 78.646895 207.47364 67.004179 C 195.46101 46.27286 176.11742 30.322858 152.98911 22.693188 z " />
    <path
       id="path11333"
       style="fill:url(#radialGradient28442);fill-opacity:1;stroke:none;stroke-width:0.264583px;stroke-linecap:butt;stroke-linejoin:miter;stroke-opacity:1"
       d="M 76.310588 35.517212 C 74.739395 35.475287 72.467204 36.258596 69.279492 38.150643 C 46.793678 51.496966 27.886617 87.485774 32.021818 108.05335 C 35.313971 124.4278 33.740726 128.20578 49.053853 121.53728 C 74.325483 110.53213 72.880621 66.758249 77.795768 48.795471 C 79.639795 42.056336 80.654472 35.633121 76.310588 35.517212 z M 171.28153 35.654154 C 169.50774 35.781168 168.74781 38.239647 169.07133 43.999898 C 169.45376 50.808931 172.07188 74.39679 179.71668 98.645142 C 188.97803 128.02097 218.59775 122.35956 219.13081 98.72679 C 217.511 89.765347 214.67942 81.226126 210.81401 73.282349 C 201.40383 57.074757 192.61234 53.281434 178.29713 40.096777 C 175.20111 37.245279 172.84665 35.542085 171.28153 35.654154 z M 101.15662 45.140397 C 98.59345 45.28724 96.37016 48.389836 93.677486 54.264905 C 86.227395 70.520046 77.783602 77.634585 78.774003 97.555286 C 81.387248 150.11756 104.62856 140.24612 116.38721 105.00703 C 122.9244 85.415918 121.96345 69.199274 109.29049 51.781335 C 105.94465 47.182763 103.41822 45.01083 101.15662 45.140397 z M 143.12718 46.223535 C 140.9514 46.109216 138.7895 48.623542 136.4263 54.819393 C 127.55761 78.071359 127.3148 89.671789 126.84549 115.14233 C 126.17048 151.77684 172.81468 144.59422 170.13587 120.10998 C 166.98909 91.348498 167.64176 85.079737 149.91023 53.400358 C 147.49268 49.081134 145.30296 46.337854 143.12718 46.223535 z " />
    <path
       id="path8296"
       style="fill:url(#radialGradient28432);fill-opacity:1;stroke:none;stroke-width:0.264583px;stroke-linecap:butt;stroke-linejoin:miter;stroke-opacity:1"
       d="M 44.38127 58.578853 C 43.615976 58.563795 42.602734 58.92451 41.319442 59.714185 C 30.043315 75.750191 23.419242 95.29421 23.419242 116.38721 C 23.419243 122.99746 24.08612 129.44957 25.329203 135.69404 C 25.662562 135.13898 25.996745 134.58062 26.344128 133.95927 C 41.51093 106.83099 36.57362 92.353546 43.914115 71.873132 C 46.637182 64.275618 47.348202 58.637234 44.38127 58.578853 z M 200.03327 59.551921 C 197.83805 59.605612 196.47146 61.765916 197.83237 67.394853 C 204.86481 96.482263 201.42348 102.34311 203.67749 122.49123 C 205.26657 136.6957 211.25959 144.29825 217.3826 145.9482 C 217.25712 145.0208 217.12831 144.12094 216.99967 143.27963 C 216.99253 143.2813 216.98513 143.28357 216.97797 143.28531 C 219.3985 134.73319 220.70953 125.71482 220.70953 116.38721 C 220.70953 95.762241 214.3759 76.61857 203.55295 60.786987 C 202.32881 59.994188 201.08586 59.526176 200.03327 59.551921 z M 167.10143 73.287516 C 164.05472 73.469991 162.98796 77.790257 163.72747 85.147257 C 166.43976 112.1305 149.5056 129.44008 155.87059 155.66388 C 168.56237 207.95411 210.64932 179.24397 204.38701 136.91826 C 200.5562 111.02663 191.07241 95.534036 177.88527 80.889636 C 173.03842 75.507189 169.47109 73.145591 167.10143 73.287516 z M 73.301469 74.98147 C 70.523532 74.893114 67.264075 77.064306 63.799723 80.76768 C 51.208132 94.228029 39.427993 112.00146 33.806205 128.25109 C 17.729292 174.72095 74.997442 215.96237 84.416036 158.20843 C 91.824988 112.77744 84.141891 108.42703 81.040015 88.072144 C 79.64891 78.94357 76.873102 75.09507 73.301469 74.98147 z M 124.36864 85.005147 C 119.18507 85.024466 112.35821 94.487907 109.00007 103.67946 C 100.83614 126.0248 82.67918 144.86674 103.50221 203.83045 C 110.52405 223.71392 124.16462 213.1255 139.69587 198.86228 C 176.2149 165.32477 137.54821 137.50922 130.42666 94.145158 C 129.3479 87.576385 127.08383 84.995028 124.36864 85.005147 z " />
    <path
       id="path1502"
       style="fill:url(#radialGradient6828);fill-opacity:1;stroke:none;stroke-width:0.155521px;stroke-linecap:butt;stroke-linejoin:miter;stroke-opacity:1"
       d="m 38.314851,87.583895 c -5.503245,4.095277 -12.541195,16.485885 -14.704406,22.734435 -0.121917,2.00803 -0.191203,4.03018 -0.191203,6.06888 1e-6,9.30737 1.298295,18.30923 3.708818,26.84487 -0.0046,-0.002 -0.0093,-0.005 -0.01395,-0.007 -0.901586,3.87331 -1.488491,7.57843 -1.814876,11.09131 1.027976,4.60639 2.266596,9.58412 3.743957,14.96498 0.694114,13.53744 15.925988,3.02311 21.941645,-9.01016 4.462464,-15.58235 1.580377,-23.82433 -2.543808,-35.97545 -5.012282,-14.76773 -3.980727,-27.360069 -2.583339,-32.002987 2.436004,-8.093791 -1.784882,-8.993988 -7.542835,-4.709168 z"
       sodipodi:nodetypes="scscccccssss" />
    <path
       style="fill:url(#radialGradient6040);fill-opacity:1;stroke:none;stroke-width:0.264583px;stroke-linecap:butt;stroke-linejoin:miter;stroke-opacity:1"
       d="m 27.114208,143.22533 c -7.336028,31.51636 5.488731,52.36238 20.250904,42.03243 -0.815353,-19.53968 -9.805648,-37.06801 -20.250904,-42.03243 z"
       id="path1736"
       sodipodi:nodetypes="ccc" />
    <path
       id="path462"
       style="fill:url(#radialGradient5189);fill-opacity:1;stroke:none;stroke-width:0.252898px;stroke-linecap:butt;stroke-linejoin:miter;stroke-opacity:1"
       d="m 76.895688,115.60173 c -23.058157,31.64094 -18.66402,42.29561 -13.434962,49.23885 10.456576,13.88444 10.411198,29.3911 14.849739,39.24464 8.737112,0.88485 17.506613,4.22895 23.173265,9.52758 1.93295,1.80741 4.72621,3.2396 8.00054,4.28088 4.56976,-13.44733 8.28919,-35.20962 8.80257,-55.33564 0.48792,-19.12807 -15.3624,-41.08949 -16.42612,-54.28471 -1.05654,-13.106246 -14.463685,-7.08179 -24.965032,7.3284 z"
       sodipodi:nodetypes="sscscsss" />
    <path
       id="path4420"
       style="fill:url(#radialGradient5329);fill-opacity:1;stroke:none;stroke-width:0.249448px;stroke-linecap:butt;stroke-linejoin:miter;stroke-opacity:1"
       d="m 143.42757,117.12988 c -3.822,11.61169 -15.85039,27.96668 -15.88497,48.7587 -0.0476,28.64139 7.44157,44.60141 13.86634,50.49149 1.90768,-0.9595 3.54599,-2.11223 4.78472,-3.47679 5.64828,-6.22198 11.7469,-9.01765 18.58543,-9.49037 5.06119,-8.65056 13.93462,-22.08957 17.33895,-37.05963 5.60315,-24.63911 -8.30381,-34.16879 -19.22205,-53.03444 -7.71869,-13.337133 -14.08391,-12.54773 -19.46842,3.81104 z"
       sodipodi:nodetypes="sscscsss" />
    <path
       id="path6830"
       style="fill:url(#radialGradient6832);fill-opacity:1;stroke:none;stroke-width:0.155521px;stroke-linecap:butt;stroke-linejoin:miter;stroke-opacity:1"
       d="m 191.49455,128.02432 c -5.04871,11.74166 -6.65933,27.36669 0.41415,43.02157 6.76838,13.78963 23.18135,16.28997 24.8791,-0.25838 0.51082,-1.86174 0.98571,-3.6707 1.43299,-5.43688 0.62265,-7.89763 -0.31522,-16.14637 -1.22112,-22.071 -0.007,0.002 -0.0145,0.004 -0.0217,0.006 2.42053,-8.55212 3.73156,-17.57049 3.73156,-26.8981 0,-0.63442 -0.0119,-1.26599 -0.0238,-1.89756 -1.53434,-4.94267 -6.81827,-13.97561 -16.53598,-23.09077 -4.60295,-4.31754 -11.43711,-5.587395 -10.12875,1.668164 2.66611,14.785116 -0.59957,30.475656 -2.52645,34.956956 z"
       sodipodi:nodetypes="scccccscsss" />
    <path
       style="fill:url(#radialGradient6774);fill-opacity:1;stroke:none;stroke-width:0.264583px;stroke-linecap:butt;stroke-linejoin:miter;stroke-opacity:1"
       d="m 195.60222,189.56996 c 26.41916,1.10843 23.78553,-30.67062 21.39724,-46.2903 -6.42914,1.50252 -21.31823,32.46789 -21.39724,46.2903 z"
       id="path11019"
       sodipodi:nodetypes="ccc" />
    <path
       id="path6014"
       style="fill:#9d6ffb;stroke:none;stroke-width:0.264583px;stroke-linecap:butt;stroke-linejoin:miter;stroke-opacity:1;fill-opacity:1"
       d="M 179.14875 166.10149 L 160.58141 180.15231 L 147.78529 181.90879 L 113.16002 175.88694 L 86.312561 179.3999 L 67.243441 170.11623 L 73.020349 203.85112 C 78.458443 203.76313 84.156922 204.71204 89.336666 206.55328 L 155.58275 205.73318 C 161.43923 202.98458 167.83948 202.7791 175.02394 204.19632 L 179.14875 166.10149 z " />
    <path
       style="fill:url(#radialGradient6032);fill-opacity:1;stroke:none;stroke-width:0.264583px;stroke-linecap:butt;stroke-linejoin:miter;stroke-opacity:1"
       d="m 42.956034,149.55676 c -5.31436,0.16186 -8.250485,4.91148 -6.05286,15.798 -1.799534,20.27582 14.899928,43.09054 26.967863,39.74177 6.114021,-1.69661 13.395794,-1.62687 20.254061,-0.0631 v -0.003 C 81.469483,174.52506 55.54268,149.17343 42.956034,149.55676 Z"
       id="path9515" />
    <path
       id="path4161"
       style="fill:url(#radialGradient4940);fill-opacity:1;stroke:none;stroke-width:0.264583px;stroke-linecap:butt;stroke-linejoin:miter;stroke-opacity:1"
       d="M 123.95522 169.11474 C 105.55548 168.95524 86.848796 181.34358 84.125098 205.03038 L 84.125098 205.03348 C 90.803768 206.55635 97.080902 209.49591 101.48373 213.6128 C 110.40778 221.95728 137.62993 222.33684 146.19366 212.90328 C 150.92249 207.69414 155.96453 204.87921 161.4935 203.82218 L 161.4935 203.81857 C 158.25363 180.48739 141.23983 169.26458 123.95522 169.11474 z " />
    <path
       style="fill:url(#radialGradient6022);fill-opacity:1;stroke:none;stroke-width:0.264583px;stroke-linecap:butt;stroke-linejoin:miter;stroke-opacity:1"
       d="m 198.30779,151.68376 c -12.38085,-0.3851 -35.38863,20.84518 -36.81429,52.13481 v 0.004 c 4.48379,-0.8572 9.28753,-0.55957 14.50661,0.56483 11.65473,2.51092 30.53084,-15.56528 28.3869,-32.64504 3.97557,-13.72392 0.40599,-19.85649 -6.07922,-20.05821 z"
       id="path4169" />
    <path
       id="path10776"
       style="display:inline;opacity:0.888889;fill:url(#radialGradient10784);fill-opacity:1;stroke-width:0.356;stroke-dasharray:none;stroke:none;stroke-opacity:1"
       d="m 122.06438,17.742069 c -54.480108,-2e-6 -98.64514,44.165031 -98.645138,98.645141 1e-6,9.30738 1.298293,18.30922 3.708818,26.84487 -0.0046,-0.002 -0.0093,-0.005 -0.01395,-0.007 -6.339868,27.23675 2.377821,46.50324 14.390336,44.56627 5.517638,11.30175 14.84024,19.3934 22.366594,17.30489 12.067935,-3.34879 28.68864,0.17179 37.61269,8.51627 8.92405,8.34448 36.1462,8.72404 44.70993,-0.70952 8.56373,-9.43356 18.15171,-11.02718 29.80645,-8.51627 7.4914,1.61396 17.95841,-5.28273 23.91689,-14.94844 21.79797,-2.39921 19.33222,-31.44669 17.08267,-46.15894 -0.007,0.002 -0.0145,0.004 -0.0217,0.006 2.42053,-8.55213 3.73156,-17.57048 3.73156,-26.8981 0,-54.480107 -44.16503,-98.645139 -98.64515,-98.645141 z"
       inkscape:path-effect="#path-effect16115"
       inkscape:original-d="m 122.06438,17.742069 c -54.480108,-2e-6 -98.64514,44.165031 -98.645138,98.645141 1e-6,9.30738 1.298293,18.30922 3.708818,26.84487 -0.0046,-0.002 -0.0093,-0.005 -0.01395,-0.007 -6.339868,27.23675 2.377821,46.50324 14.390336,44.56627 5.517638,11.30175 14.84024,19.3934 22.366594,17.30489 12.067935,-3.34879 28.68864,0.17179 37.61269,8.51627 8.92405,8.34448 36.1462,8.72404 44.70993,-0.70952 8.56373,-9.43356 18.15171,-11.02718 29.80645,-8.51627 7.4914,1.61396 17.95841,-5.28273 23.91689,-14.94844 21.79797,-2.39921 19.33222,-31.44669 17.08267,-46.15894 -0.007,0.002 -0.0145,0.004 -0.0217,0.006 2.42053,-8.55213 3.73156,-17.57048 3.73156,-26.8981 0,-54.480107 -44.16503,-98.645139 -98.64515,-98.645141 z" />
    <path
       id="path15715"
       style="display:inline;fill:none;stroke:url(#radialGradient16109);stroke-width:7.9963;stroke-dasharray:none"
       d="m 213.11858,142.23679 c 1.2e-4,-0.0132 3.1e-4,-0.0263 5.6e-4,-0.0395 2.32013,-8.20532 3.57813,-16.86009 3.57813,-25.81055 0,-52.254972 -42.35656,-94.648437 -94.55469,-94.648439 -52.198129,-2e-6 -94.552738,42.393367 -94.552736,94.648439 1e-6,8.93328 1.244834,17.5727 3.554687,25.75976 0.0056,0.0329 0.01073,0.0659 0.01547,0.0989 0.167732,0.67224 0.09588,1.30892 -0.05063,1.91089 l 0.05859,-0.0293 c -7.8e-4,0.003 -0.0016,0.007 -0.0023,0.0101 l 0.0121,-0.006 c -6.052789,26.02858 2.32148,40.92927 9.845704,39.71484 1.739877,-0.28058 3.458274,0.61114 4.230468,2.19532 5.148178,10.55518 12.91351,16.52947 17.681641,15.20507 13.262884,-3.68392 31.414522,0.12297 41.378903,9.44922 7.27442,6.80857 32.03236,7.17822 38.97461,-0.47656 9.61448,-10.60126 20.96051,-12.4601 33.58203,-9.73828 5.2008,1.12155 14.18189,-4.26363 19.64649,-13.13672 0.64623,-1.05034 1.74101,-1.74367 2.9668,-1.87891 17.7575,-1.95638 15.73801,-27.26349 13.55078,-41.58203 l 0.0112,0.007 c -4.6e-4,-0.003 -9.3e-4,-0.006 -0.001,-0.009 l 0.0742,0.0469 c -0.0915,-0.54428 -0.15753,-1.10316 -5.6e-4,-1.69094 z m 0.5339,2.03314 -0.53334,-0.3422 c 5.6e-4,0.003 0.001,0.007 0.002,0.01 l 0.53933,0.34551 c -0.003,-0.004 -0.005,-0.009 -0.008,-0.0133 z M 31.106766,144.16691 c 8.74e-4,-0.004 0.0017,-0.007 0.0026,-0.0107 l -0.173048,0.0874 c -0.0016,0.004 -0.0031,0.008 -0.0047,0.0122 z"
       inkscape:path-effect="#path-effect16113"
       inkscape:original-d="m 122.14332,17.740118 c -54.42854,-2e-6 -98.551766,44.165884 -98.551764,98.647042 1e-6,9.30756 1.297064,18.30958 3.705307,26.84538 -0.0046,-0.002 -0.0093,-0.005 -0.01394,-0.007 -6.333865,27.23728 2.37557,46.50415 14.376714,44.56714 5.512414,11.30197 14.826191,19.39377 22.345422,17.30522 12.056511,-3.34884 28.661483,0.1718 37.577081,8.51643 8.9156,8.34465 36.11199,8.72421 44.66761,-0.70952 8.55563,-9.43374 18.13454,-11.02739 29.77825,-8.51644 7.4843,1.61399 17.9414,-5.28283 23.89425,-14.94873 21.77733,-2.39926 19.31391,-31.44729 17.06649,-46.15983 -0.007,0.002 -0.0145,0.004 -0.0217,0.006 2.41824,-8.55229 3.72804,-17.57082 3.72804,-26.89862 0,-54.481155 -44.12323,-98.64704 -98.55178,-98.647042 z" />
    <ellipse
       style="opacity:1;fill:url(#radialGradient5827);fill-opacity:1;stroke:none;stroke-width:0.356;stroke-linecap:round;stroke-linejoin:round;stroke-dasharray:none"
       id="path5811"
       ry="12.064516"
       rx="20.403225"
       cy="206.16129"
       cx="122.41936" />
    <ellipse
       style="opacity:0.643791;fill:url(#radialGradient6730);fill-opacity:1;stroke:none;stroke-width:0.330683;stroke-linecap:round;stroke-linejoin:round;stroke-dasharray:none"
       id="ellipse6728"
       ry="9.0535021"
       rx="15.956912"
       cy="274.38184"
       cx="79.928619"
       transform="matrix(0.73529629,-0.6777458,0.48302836,0.87560471,0,0)" />
    <ellipse
       style="opacity:0.643791;fill:url(#radialGradient6742);fill-opacity:1;stroke:none;stroke-width:0.330683;stroke-linecap:round;stroke-linejoin:round;stroke-dasharray:none"
       id="ellipse6740"
       ry="11.675735"
       rx="18.190676"
       cy="103.36103"
       cx="-141.75987"
       transform="matrix(-0.73529629,-0.6777458,-0.48302836,0.87560471,0,0)" />
    <ellipse
       style="opacity:1;fill:url(#radialGradient6746);fill-opacity:1;stroke:none;stroke-width:0.381233;stroke-linecap:round;stroke-linejoin:round;stroke-dasharray:none"
       id="ellipse6744"
       transform="matrix(0.43331049,-0.90124471,0.90384885,0.42785191,0,0)"
       ry="12.666535"
       rx="15.726234"
       cy="210.16228"
       cx="-79.424805" />
    <ellipse
       style="opacity:0.47385621;fill:url(#radialGradient7608);fill-opacity:1;stroke:none;stroke-width:0.373412;stroke-linecap:round;stroke-linejoin:round;stroke-dasharray:none"
       id="ellipse7606"
       transform="matrix(-0.27340336,-0.96189948,-0.96894182,0.24728879,0,0)"
       ry="5.9036303"
       rx="12.873587"
       cy="2.6301641"
       cx="-141.06049" />
    <ellipse
       style="opacity:1;fill:url(#radialGradient7896);fill-opacity:1;stroke:none;stroke-width:0.367516;stroke-linecap:round;stroke-linejoin:round;stroke-dasharray:none"
       id="ellipse7894"
       transform="matrix(-0.42521851,-0.90509072,-0.8999607,0.43597103,0,0)"
       ry="12.88293"
       rx="14.607594"
       cy="-11.563473"
       cx="-180.79688" />
    <ellipse
       style="opacity:0.542484;fill:url(#radialGradient8049);fill-opacity:1;stroke:none;stroke-width:0.149332;stroke-linecap:round;stroke-linejoin:round;stroke-dasharray:none"
       id="ellipse8047"
       transform="matrix(-0.71863523,-0.69538723,-0.15391895,0.98808348,0,0)"
       ry="5.0237503"
       rx="6.6136265"
       cy="127.41715"
       cx="-70.810661" />
    <ellipse
       style="opacity:0.473856;fill:url(#radialGradient8192);fill-opacity:1;stroke:none;stroke-width:0.394349;stroke-linecap:round;stroke-linejoin:round;stroke-dasharray:none"
       id="ellipse8190"
       transform="matrix(0.25149354,-0.96785898,0.98495865,0.17279023,0,0)"
       ry="7.3017774"
       rx="12.895563"
       cy="235.85791"
       cx="-101.08979" />
    <ellipse
       style="opacity:0.542484;fill:url(#radialGradient8196);fill-opacity:1;stroke:none;stroke-width:0.165644;stroke-linecap:round;stroke-linejoin:round;stroke-dasharray:none"
       id="ellipse8194"
       ry="5.6838861"
       rx="8.8331356"
       cy="347.05185"
       cx="235.69766"
       transform="matrix(0.68897526,-0.72478486,0.14183975,0.98988963,0,0)" />
  </g>
</svg>
