<?xml version="1.0" encoding="UTF-8" standalone="no"?>
<!-- Created with Inkscape (http://www.inkscape.org/) -->

<svg
   width="240mm"
   height="240mm"
   viewBox="0 0 240 240"
   version="1.1"
   id="svg5"
   inkscape:version="1.2.1 (9c6d41e410, 2022-07-14)"
   sodipodi:docname="flower.svg"
   xmlns:inkscape="http://www.inkscape.org/namespaces/inkscape"
   xmlns:sodipodi="http://sodipodi.sourceforge.net/DTD/sodipodi-0.dtd"
   xmlns="http://www.w3.org/2000/svg"
   xmlns:svg="http://www.w3.org/2000/svg">
  <sodipodi:namedview
     id="namedview7"
     pagecolor="#181818"
     bordercolor="#666666"
     borderopacity="1.0"
     inkscape:showpageshadow="2"
     inkscape:pageopacity="0"
     inkscape:pagecheckerboard="0"
     inkscape:deskcolor="#353535"
     inkscape:document-units="mm"
     showgrid="false"
     inkscape:zoom="0.26362494"
     inkscape:cx="411.56955"
     inkscape:cy="-491.22817"
     inkscape:window-width="958"
     inkscape:window-height="1008"
     inkscape:window-x="953"
     inkscape:window-y="0"
     inkscape:window-maximized="0"
     inkscape:current-layer="layer1" />
  <defs
     id="defs2" />
  <g
     inkscape:label="Layer 1"
     inkscape:groupmode="layer"
     id="layer1">
    <path
       id="path2237"
       style="fill:#ff80ff;stroke-width:0.355892"
       d="m 220.70967,116.38711 c 0,27.24011 -11.04124,51.9014 -28.8925,69.75266 -8.92563,8.92563 -18.9353,15.55769 -30.32367,17.6788 -12.24329,2.28034 -63.931494,4.6856 -77.368402,1.21181 -10.32343,-2.66887 -13.961989,-1.03934 -31.813254,-18.89061 -17.851264,-17.85126 -28.892501,-42.51255 -28.892502,-69.75266 -2e-6,-54.480223 44.164946,-98.645168 98.645168,-98.645166 54.48022,2e-6 98.64516,44.164946 98.64516,98.645166 z"
       sodipodi:nodetypes="ssssssss" />
    <path
       style="fill:#437650;fill-opacity:1;stroke:none;stroke-width:0.264583px;stroke-linecap:butt;stroke-linejoin:miter;stroke-opacity:1"
       d="m 195.60222,189.56996 c 25.29007,12.27387 23.78553,-30.67062 21.39724,-46.2903 -6.42914,1.50252 -21.31823,32.46789 -21.39724,46.2903 z"
       id="path11019"
       sodipodi:nodetypes="ccc" />
    <path
       style="fill:#437650;fill-opacity:1;stroke:none;stroke-width:0.264583px;stroke-linecap:butt;stroke-linejoin:miter;stroke-opacity:1"
       d="m 27.114208,143.22533 c -7.336028,31.51636 5.488731,52.36238 20.250904,42.03243 -0.815353,-19.53968 -9.805648,-37.06801 -20.250904,-42.03243 z"
       id="path1736"
       sodipodi:nodetypes="ccc" />
    <path
       id="path9515"
       style="fill:#579d6a;fill-opacity:1;stroke:none;stroke-width:0.264583px;stroke-linecap:butt;stroke-linejoin:miter;stroke-opacity:1"
       d="M 42.956034 149.55676 C 37.641668 149.71862 34.705547 154.46822 36.903174 165.35476 C 35.103638 185.6306 51.80309 208.44531 63.871037 205.09653 C 75.938984 201.74774 92.559672 205.26831 101.48373 213.6128 C 110.40779 221.95729 137.62992 222.33685 146.19366 212.90328 C 154.7574 203.46971 164.34536 201.8761 176.00011 204.38701 C 187.65485 206.89793 206.53095 188.82175 204.38701 171.74197 C 215.95233 131.81778 163.66594 156.13909 161.4935 203.81857 C 154.80473 155.65094 89.407427 159.09229 84.125098 205.03038 C 81.469481 174.52503 55.542692 149.17343 42.956034 149.55676 z " />
  </g>
</svg>
