<?xml version="1.0" encoding="UTF-8" standalone="no"?>
<!-- Created with Inkscape (http://www.inkscape.org/) -->

<svg
   width="240mm"
   height="240mm"
   viewBox="1.845 0 240 240"
   version="1.1"
   id="svg5"
   inkscape:version="1.2.1 (9c6d41e410, 2022-07-14)"
   sodipodi:docname="leaf.svg"
   xmlns:inkscape="http://www.inkscape.org/namespaces/inkscape"
   xmlns:sodipodi="http://sodipodi.sourceforge.net/DTD/sodipodi-0.dtd"
   xmlns:xlink="http://www.w3.org/1999/xlink"
   xmlns="http://www.w3.org/2000/svg"
   xmlns:svg="http://www.w3.org/2000/svg">
  <sodipodi:namedview
     id="namedview7"
     pagecolor="#181818"
     bordercolor="#666666"
     borderopacity="1.0"
     inkscape:showpageshadow="2"
     inkscape:pageopacity="0"
     inkscape:pagecheckerboard="0"
     inkscape:deskcolor="#353535"
     inkscape:document-units="mm"
     showgrid="false"
     inkscape:zoom="0.065906241"
     inkscape:cx="-485.53823"
     inkscape:cy="-1714.5569"
     inkscape:window-width="1920"
     inkscape:window-height="1017"
     inkscape:window-x="-8"
     inkscape:window-y="-8"
     inkscape:window-maximized="1"
     inkscape:current-layer="layer1"
     showguides="true" />
  <defs
     id="defs2">
    <linearGradient
       inkscape:collect="always"
       id="linearGradient958">
      <stop
         style="stop-color:#ffffff;stop-opacity:1;"
         offset="0"
         id="stop954" />
      <stop
         style="stop-color:#cbaf3b;stop-opacity:1;"
         offset="1"
         id="stop956" />
    </linearGradient>
    <linearGradient
       inkscape:collect="always"
       id="linearGradient13164">
      <stop
         style="stop-color:#000000;stop-opacity:1;"
         offset="0"
         id="stop13160" />
      <stop
         style="stop-color:#000000;stop-opacity:0;"
         offset="1"
         id="stop13162" />
    </linearGradient>
    <inkscape:path-effect
       effect="offset"
       id="path-effect10968"
       is_visible="true"
       lpeversion="1.2"
       linejoin_type="miter"
       unit="mm"
       offset="1.5"
       miter_limit="4"
       attempt_force_join="false"
       update_on_knot_move="true" />
    <inkscape:path-effect
       effect="offset"
       id="path-effect10962"
       is_visible="true"
       lpeversion="1.2"
       linejoin_type="miter"
       unit="mm"
       offset="-2"
       miter_limit="4"
       attempt_force_join="false"
       update_on_knot_move="true" />
    <linearGradient
       id="linearGradient5625">
      <stop
         style="stop-color:#ffffff;stop-opacity:0;"
         offset="0.21489972"
         id="stop8043" />
      <stop
         style="stop-color:#000000;stop-opacity:1;"
         offset="1"
         id="stop8045" />
    </linearGradient>
    <inkscape:path-effect
       effect="offset"
       id="path-effect8041"
       is_visible="true"
       lpeversion="1.2"
       linejoin_type="round"
       unit="mm"
       offset="-9.5"
       miter_limit="4"
       attempt_force_join="false"
       update_on_knot_move="true" />
    <inkscape:path-effect
       effect="offset"
       id="path-effect8035"
       is_visible="true"
       lpeversion="1.2"
       linejoin_type="round"
       unit="mm"
       offset="-12"
       miter_limit="4"
       attempt_force_join="false"
       update_on_knot_move="true" />
    <linearGradient
       id="linearGradient13230">
      <stop
         style="stop-color:#00beff;stop-opacity:1;"
         offset="0.34383956"
         id="stop7150" />
      <stop
         style="stop-color:#a4ff8c;stop-opacity:1;"
         offset="0.70487112"
         id="stop1806" />
      <stop
         style="stop-color:#83ff62;stop-opacity:1;"
         offset="0.87679082"
         id="stop7152" />
      <stop
         style="stop-color:#30ff00;stop-opacity:1;"
         offset="1"
         id="stop1804" />
    </linearGradient>
    <linearGradient
       id="linearGradient5625-2">
      <stop
         style="stop-color:#ffffff;stop-opacity:0;"
         offset="0.57879657"
         id="stop7145" />
      <stop
         style="stop-color:#ffffff;stop-opacity:1;"
         offset="0.91117477"
         id="stop7147" />
    </linearGradient>
    <inkscape:path-effect
       effect="offset"
       id="path-effect5680"
       is_visible="true"
       lpeversion="1.2"
       linejoin_type="round"
       unit="mm"
       offset="-10.4"
       miter_limit="4"
       attempt_force_join="false"
       update_on_knot_move="true" />
    <inkscape:path-effect
       effect="offset"
       id="path-effect5645"
       is_visible="true"
       lpeversion="1.2"
       linejoin_type="round"
       unit="mm"
       offset="-14"
       miter_limit="4"
       attempt_force_join="false"
       update_on_knot_move="true" />
    <inkscape:path-effect
       effect="offset"
       id="path-effect5637"
       is_visible="true"
       lpeversion="1.2"
       linejoin_type="round"
       unit="mm"
       offset="-2.5"
       miter_limit="4"
       attempt_force_join="false"
       update_on_knot_move="true" />
    <linearGradient
       id="linearGradient5625-1">
      <stop
         style="stop-color:#ffffff;stop-opacity:0.7918781;"
         offset="0"
         id="stop5623" />
      <stop
         style="stop-color:#ffffff;stop-opacity:0;"
         offset="1"
         id="stop5621" />
    </linearGradient>
    <linearGradient
       id="linearGradient6992">
      <stop
         style="stop-color:#ffffff;stop-opacity:0;"
         offset="0"
         id="stop5614" />
      <stop
         style="stop-color:#000000;stop-opacity:0.16751269;"
         offset="1"
         id="stop5616" />
    </linearGradient>
    <linearGradient
       inkscape:collect="always"
       id="linearGradient5445">
      <stop
         style="stop-color:#0d0d0d;stop-opacity:1;"
         offset="0.3008596"
         id="stop5441" />
      <stop
         style="stop-color:#000000;stop-opacity:0;"
         offset="1"
         id="stop5443" />
    </linearGradient>
    <linearGradient
       id="linearGradient13230-1">
      <stop
         style="stop-color:#ffffff;stop-opacity:0;"
         offset="0.07411482"
         id="stop13228" />
      <stop
         style="stop-color:#ffffff;stop-opacity:1;"
         offset="0.74212033"
         id="stop13226" />
    </linearGradient>
    <linearGradient
       id="linearGradient11722">
      <stop
         style="stop-color:#3c3c3c;stop-opacity:0.31472084;"
         offset="0"
         id="stop12450" />
      <stop
         style="stop-color:#ffffff;stop-opacity:0;"
         offset="1"
         id="stop12452" />
    </linearGradient>
    <linearGradient
       id="linearGradient11722-1">
      <stop
         style="stop-color:#ffffff;stop-opacity:0.47208121;"
         offset="0"
         id="stop11718" />
      <stop
         style="stop-color:#ffffff;stop-opacity:0;"
         offset="1"
         id="stop11720" />
    </linearGradient>
    <inkscape:path-effect
       effect="offset"
       id="path-effect8732"
       is_visible="true"
       lpeversion="1.2"
       linejoin_type="round"
       unit="mm"
       offset="-2.4"
       miter_limit="4"
       attempt_force_join="false"
       update_on_knot_move="true" />
    <inkscape:path-effect
       effect="offset"
       id="path-effect7904"
       is_visible="true"
       lpeversion="1.2"
       linejoin_type="round"
       unit="mm"
       offset="6.5"
       miter_limit="4"
       attempt_force_join="false"
       update_on_knot_move="true" />
    <inkscape:path-effect
       effect="offset"
       id="path-effect7900"
       is_visible="true"
       lpeversion="1.2"
       linejoin_type="round"
       unit="mm"
       offset="6.5"
       miter_limit="4"
       attempt_force_join="false"
       update_on_knot_move="true" />
    <inkscape:path-effect
       effect="offset"
       id="path-effect7896"
       is_visible="true"
       lpeversion="1.2"
       linejoin_type="round"
       unit="mm"
       offset="6.5"
       miter_limit="4"
       attempt_force_join="false"
       update_on_knot_move="true" />
    <inkscape:path-effect
       effect="offset"
       id="path-effect7166"
       is_visible="true"
       lpeversion="1.2"
       linejoin_type="round"
       unit="mm"
       offset="6"
       miter_limit="4"
       attempt_force_join="false"
       update_on_knot_move="true" />
    <inkscape:path-effect
       effect="offset"
       id="path-effect7162"
       is_visible="true"
       lpeversion="1.2"
       linejoin_type="round"
       unit="mm"
       offset="6"
       miter_limit="4"
       attempt_force_join="false"
       update_on_knot_move="true" />
    <inkscape:path-effect
       effect="offset"
       id="path-effect7154"
       is_visible="true"
       lpeversion="1.2"
       linejoin_type="round"
       unit="mm"
       offset="2.5"
       miter_limit="4"
       attempt_force_join="false"
       update_on_knot_move="true" />
    <linearGradient
       id="linearGradient6992-1">
      <stop
         style="stop-color:#000000;stop-opacity:0.10659899;"
         offset="0"
         id="stop6988" />
      <stop
         style="stop-color:#000000;stop-opacity:0.34517765;"
         offset="1"
         id="stop6990" />
    </linearGradient>
    <inkscape:path-effect
       effect="offset"
       id="path-effect6984"
       is_visible="true"
       lpeversion="1.2"
       linejoin_type="round"
       unit="mm"
       offset="-4"
       miter_limit="4"
       attempt_force_join="false"
       update_on_knot_move="true" />
    <radialGradient
       inkscape:collect="always"
       xlink:href="#linearGradient6992"
       id="radialGradient6994"
       cx="120.1878"
       cy="135.37875"
       fx="120.1878"
       fy="135.37875"
       r="106.45666"
       gradientTransform="matrix(0.95871707,0.04863712,-0.04237351,0.83525118,10.992282,13.554817)"
       gradientUnits="userSpaceOnUse" />
    <radialGradient
       inkscape:collect="always"
       xlink:href="#linearGradient11722-1"
       id="radialGradient10990"
       gradientUnits="userSpaceOnUse"
       gradientTransform="matrix(0.27538062,-1.0479395,1.2071692,0.31722345,-112.94381,217.13401)"
       cx="110.77506"
       cy="171.83737"
       fx="110.77506"
       fy="171.83737"
       r="106.45666" />
    <radialGradient
       inkscape:collect="always"
       xlink:href="#linearGradient13230"
       id="radialGradient13232"
       cx="155.2101"
       cy="186.88911"
       fx="155.2101"
       fy="186.88911"
       r="106.45666"
       gradientTransform="matrix(0.61629155,-1.1877404,1.1924283,0.61872134,-152.96119,238.98643)"
       gradientUnits="userSpaceOnUse" />
    <radialGradient
       inkscape:collect="always"
       xlink:href="#linearGradient5445"
       id="radialGradient5447"
       cx="115.30654"
       cy="138.02643"
       fx="115.30654"
       fy="138.02643"
       r="106.43146"
       gradientTransform="matrix(1.4152709,-0.04253954,0.05458213,1.8159213,-54.922202,-108.71344)"
       gradientUnits="userSpaceOnUse" />
    <radialGradient
       inkscape:collect="always"
       xlink:href="#linearGradient5625"
       id="radialGradient5627"
       cx="121.07261"
       cy="126.2793"
       fx="121.07261"
       fy="126.2793"
       r="109.45856"
       gradientTransform="matrix(1.2426155,-0.04022293,0.03745676,1.1571601,-32.79361,-10.430125)"
       gradientUnits="userSpaceOnUse" />
    <radialGradient
       inkscape:collect="always"
       xlink:href="#linearGradient5625-2"
       id="radialGradient8048"
       gradientUnits="userSpaceOnUse"
       gradientTransform="matrix(1.4765821,-0.37582551,0.37335525,1.4668767,-109.46107,-23.0114)"
       cx="109.01022"
       cy="162.87332"
       fx="109.01022"
       fy="162.87332"
       r="109.45856" />
    <linearGradient
       inkscape:collect="always"
       xlink:href="#linearGradient13164"
       id="linearGradient13166"
       x1="101.36717"
       y1="-84.305374"
       x2="109.99231"
       y2="-56.244549"
       gradientUnits="userSpaceOnUse" />
    <radialGradient
       inkscape:collect="always"
       xlink:href="#linearGradient958"
       id="radialGradient15622"
       cx="149.86086"
       cy="136.52646"
       fx="149.86086"
       fy="136.52646"
       r="70.716301"
       gradientTransform="matrix(0.51484142,-0.37345229,1.0463643,1.4425181,-64.948014,-5.2312669)"
       gradientUnits="userSpaceOnUse" />
    <radialGradient
       inkscape:collect="always"
       xlink:href="#linearGradient958"
       id="radialGradient17196"
       cx="142.03151"
       cy="141.39482"
       fx="142.03151"
       fy="141.39482"
       r="25.376316"
       gradientTransform="matrix(1.5049202,-1.2010745,2.5251556,3.163965,-384.36908,-114.12589)"
       gradientUnits="userSpaceOnUse" />
    <radialGradient
       inkscape:collect="always"
       xlink:href="#linearGradient958"
       id="radialGradient17204"
       cx="136.58739"
       cy="129.42889"
       fx="136.58739"
       fy="129.42889"
       r="25.649851"
       gradientTransform="matrix(2.2612726,-1.8254316,2.3496986,2.9107137,-474.72237,4.4776579)"
       gradientUnits="userSpaceOnUse" />
  </defs>
  <g
     inkscape:label="Layer 1"
     inkscape:groupmode="layer"
     id="layer1">
    <path
       style="display:inline;fill:url(#radialGradient13232);fill-opacity:1;stroke:#ffffff;stroke-width:27;stroke-linecap:round;stroke-linejoin:round;stroke-dasharray:none;stroke-opacity:1;paint-order:stroke markers fill"
       d="m 94.342741,45.508901 c 3.31465,-24.053182 48.381589,-25.070991 52.938569,1.290121 23.69927,-14.628895 56.28202,9.901757 26.24869,50.763383 36.84329,-24.454204 52.60545,23.531025 38.06364,29.820385 25.58966,4.40941 21.28884,57.49031 -8.82838,54.76691 11.44357,27.78873 -15.69709,57.36033 -81.59132,18.26156 C 56.603511,237.61033 27.413342,208.91833 40.330254,180.92484 14.996339,189.81937 4.7388872,140.0932 30.085043,131.29847 10.439924,125.93694 30.461968,71.266758 70.124481,98.412351 35.8348,63.66202 72.483615,26.210052 94.342741,45.508901 Z"
       id="path119"
       sodipodi:nodetypes="cccccccccc" />
    <path
       style="display:inline;fill:url(#radialGradient10990);fill-opacity:1;stroke:none;stroke-width:0.405;stroke-linecap:butt;stroke-linejoin:miter;stroke-dasharray:none;stroke-opacity:1"
       d="m 94.342131,45.508891 c 3.314643,-24.053186 48.381489,-25.070995 52.938459,1.290121 23.69923,-14.628897 56.28191,9.901758 26.24864,50.76339 36.84322,-24.454208 52.60535,23.531028 38.06357,29.820388 25.58961,4.40941 21.28879,57.49032 -8.82837,54.76692 11.44355,27.78873 -15.69705,57.36034 -81.59115,18.26156 C 56.602976,237.61035 27.412865,208.91834 40.329751,180.92485 14.995887,189.81938 4.7384552,140.0932 30.084561,131.29847 10.439481,125.93694 30.461485,71.266751 70.123919,98.412348 35.834306,63.662012 72.483048,26.210039 94.342131,45.508891 Z"
       id="path10988"
       sodipodi:nodetypes="cccccccccc" />
    <path
       id="path7906"
       style="display:inline;fill:url(#linearGradient13166);fill-opacity:1;stroke:url(#radialGradient5447);stroke-width:5;stroke-linecap:round;stroke-linejoin:round;stroke-dasharray:none;stroke-opacity:0.249084"
       d="m 120.33984,29.648438 c 4.01292,0.01115 7.96022,0.848914 11.53907,2.30664 l 5.64257,36.25 c 0.29479,1.88636 2.56738,2.689958 3.98243,1.408203 l 26.27734,-23.820312 c 9.27976,2.519094 16.48011,10.956513 15.24414,24.066406 l -17.04297,28.677734 c -7.38625,8.436491 -15.06314,18.884071 -21.16211,31.082031 -1.58498,3.1719 -0.30952,6.99827 2.86133,8.58398 3.17172,1.58695 7.0006,0.31329 8.58789,-2.85937 7.42302,-14.84602 17.55607,-26.9814 26.22266,-35.705078 l 14.9414,-6.03711 c 8.60353,1.945083 14.07708,9.462948 16.125,16.999998 l -21.11328,18.28321 c -1.32637,1.14834 -1.0126,3.28531 0.58789,4.0039 l 32.41602,14.5586 c 1.46357,9.64544 -1.15856,20.57185 -7.47461,26.92773 l -29.69531,-5.57812 c -1.93558,-0.36468 -3.46213,1.62876 -2.60547,3.40234 l 15.2207,31.51562 c -6.73034,14.58634 -31.98701,22.22738 -78.49609,-5.36914 -0.74528,-0.44202 -1.67096,-0.448 -2.42188,-0.0156 C 75.493169,223.9571 49.672468,217.30763 42.240234,203.5 l 16.023438,-31.98047 c 0.889372,-1.77519 -0.638614,-3.80098 -2.589844,-3.43359 l -31.671875,5.95117 C 19.29457,168.33448 17.06802,159.36738 18.265625,150.89062 l 31.091797,-14.46874 c 1.648148,-0.76695 1.878465,-3.01656 0.419922,-4.10157 l -24.3125,-18.08008 c 2.035282,-9.42528 9.622889,-19.583269 21.371094,-20.777339 l 12.585937,4.685547 c 8.808882,8.674222 19.904773,21.136982 29.470703,36.681642 1.858624,3.01973 5.782221,3.95537 8.802734,2.09765 3.021648,-1.85867 3.957268,-5.78601 2.097657,-8.80664 C 90.459351,112.95394 79.786362,100.56586 70.857422,91.492188 L 58.767578,64.947266 c 1.424236,-11.20376 9.172708,-19.481435 17.800781,-21.654297 l 22.408203,25.335937 c 1.302908,1.471944 3.725928,0.839056 4.142578,-1.082031 l 7.90625,-36.458984 c 2.95088,-0.905719 6.09659,-1.448395 9.31445,-1.439453 z"
       sodipodi:nodetypes="scccccccccscccccccccccccccccccccccccs"
       inkscape:original-d="m 120.34563,27.248466 c -3.91534,-0.01088 -7.80742,0.63348 -11.35383,1.893941 L 100.77421,67.039319 77.377706,40.58512 C 66.993193,42.464246 57.655184,52.279587 56.275118,65.263717 v 5.16e-4 l 12.564091,27.58488 c 8.897798,9.007497 19.586614,21.380927 28.90883,36.529557 1.158456,1.88172 0.571639,4.3463 -1.310515,5.50405 -1.881283,1.15705 -4.34431,0.57039 -5.501989,-1.31051 C 81.125379,117.63068 69.717263,104.86474 60.761666,96.084574 l -5.17e-4,-5.16e-4 -13.688053,-5.09323 C 33.250646,92.114082 24.498445,104.42591 22.771737,115.22914 l 25.574666,19.01745 -32.364433,15.06006 c -1.760899,9.80103 0.971445,20.95804 6.959265,27.37352 l 33.17627,-6.23424 -16.640328,33.21037 c 7.65112,16.30992 35.690111,23.25903 81.696303,-3.24528 48.04618,28.50857 75.48326,20.50584 82.38826,3.30833 l -15.72618,-32.56391 30.98468,5.82084 c 7.89805,-7.11614 10.97331,-20.1658 8.90901,-31.13557 l -33.71422,-15.14223 22.33042,-19.33577 c -1.93316,-8.83656 -8.50059,-18.268871 -19.05362,-20.29075 l -16.1835,6.538619 c -8.85115,8.863281 -19.32747,21.342811 -26.98544,36.658741 -0.98846,1.97572 -3.39142,2.77601 -5.36711,1.78749 -1.9754,-0.98788 -2.77629,-3.38985 -1.78904,-5.36556 6.03196,-12.06394 13.64876,-22.4172 20.98373,-30.770217 L 185.40005,70.561068 C 187.03374,55.50361 178.32669,45.509075 167.17378,43.105379 l -27.28103,24.729757 -5.86734,-37.686589 c -4.18797,-1.927885 -8.94427,-2.886923 -13.67978,-2.900081 z"
       inkscape:path-effect="#path-effect8732" />
    <path
       style="color:#000000;display:inline;fill:#000000;fill-opacity:0.362637;stroke:none;stroke-linecap:round;-inkscape-stroke:none"
       d="m 55.035201,143.74312 -4.5e-5,0.001 0.0074,0 c 0.09187,0.0128 0.183796,0.0271 0.275766,0.043 l 0.134766,0.0117 c 5.32103,0.9529 10.816998,2.59174 14.521484,3.74414 8.696801,2.70545 20.341658,7.08483 32.253911,13.86133 2.4073,1.36942 4.80235,2.87829 7.19336,4.47851 l 3.13867,2.09961 -0.29493,-44.63281 -0.30664,-0.48438 c -3.70835,-5.8505 -7.47784,-11.18311 -11.15625,-15.86914 C 92.804639,96.807081 85.248283,89.339588 79.722656,84.443359 c -2.950215,-2.61417 -5.911818,-5.073953 -8.595703,-6.90039 l -0.115234,-0.115235 -0.16211,-0.109375 c -3.854287,-2.58383 -4.909266,-7.929355 -2.333984,-11.783203 l 0.0059,-0.0078 c 1.253558,-1.870432 3.20248,-3.171079 5.414063,-3.607422 0.546241,-0.108004 1.098767,-0.162727 1.658203,-0.16211 1.645955,0.0024 3.246187,0.498635 4.621094,1.394532 l 0.386718,0.386718 h 0.16211 c 4.118315,2.827882 8.581602,6.680755 12.234375,10.033204 4.430919,4.066617 9.839033,9.87175 15.515623,16.5 l 3.55469,4.15039 -0.13281,-20.40039 c -0.0292,-4.642689 3.80377,-8.525101 8.44531,-8.554688 4.64047,-0.02921 8.5227,3.801659 8.55469,8.441406 l 0.1875,28.613286 3.59961,-5.167973 c 2.00103,-2.872705 3.95597,-5.552937 5.79296,-7.833985 3.63243,-4.510493 9.34734,-11.115288 14.25196,-15.259765 0.004,-0.0032 0.008,-0.0085 0.0117,-0.01172 h 0.002 c 1.72539,-1.453277 3.95952,-2.162673 6.20117,-1.970703 2.24396,0.192661 4.32769,1.272595 5.7793,2.998047 2.9881,3.549955 2.52278,8.982546 -1.02539,11.972656 -0.001,0.0012 -0.002,0.0027 -0.004,0.0039 l -0.004,0.002 c -0.002,0.0021 -0.005,0.0057 -0.008,0.0078 l -0.0547,0.04492 -0.0645,0.0625 0.043,-0.03125 c -9.28478,7.832486 -20.96703,24.963728 -24.79883,31.388668 -3.15148,5.28425 -6.31634,11.24627 -9.31054,17.875 l -0.17969,0.40039 0.19531,29.8711 3.13672,-2.23633 c 10.37528,-7.39807 20.98313,-12.46846 29.82031,-15.55664 3.38194,-1.18184 12.67219,-4.24994 20.61328,-5.27148 l 0.10743,-0.008 c 4.58651,-0.58258 8.89142,2.7224 9.49804,7.31055 0.60497,4.58808 -2.69853,8.89699 -7.27929,9.52344 l -2.10547,0.28906 0.0312,0.15625 c -8.88708,1.63759 -19.98881,5.91316 -21.29493,6.45703 -4.76985,1.98621 -9.85487,4.59951 -14.91015,7.76172 l -4.23242,2.64648 4.88867,1.00782 c 2.65751,0.54767 5.21942,1.1483 7.59766,1.85351 0.82724,0.24531 9.80086,2.84016 17.82226,6.5957 l 0.006,0.002 c 4.20139,1.97051 6.05566,7.09814 4.08789,11.30078 -1.96771,4.20507 -7.09756,6.06187 -11.30273,4.09375 -6.73482,-3.15097 -14.54403,-5.42805 -15.44532,-5.69531 -5.88631,-1.74545 -12.6416,-3.05687 -18.74218,-3.37305 l -2.11719,-0.10937 0.0254,3.95898 c 0.0316,4.64418 -3.80251,8.52911 -8.44727,8.55859 -4.64297,0.0298 -8.52307,-3.8032 -8.55273,-8.44726 l -0.0215,-3.06836 -2.24219,0.29297 c -4.75281,0.61956 -10.00931,1.85733 -14.863284,3.75 l -0.01172,0.004 -0.05078,0.0156 c -0.0032,0.001 -0.0065,0.003 -0.0098,0.004 l -0.02148,0.008 -0.0078,0.004 -0.03516,0.0156 c -5.894388,2.24736 -10.300782,4.64453 -10.300782,4.64453 -1.336368,0.6903 -2.704616,1.43905 -4.02539,2.22851 l -0.0039,0.002 -0.002,0.002 c -3.983288,2.38055 -9.26966,1.04694 -11.652344,-2.93555 -2.38257,-3.98221 -1.056472,-9.27202 2.925782,-11.65625 3.94141,-2.36171 8.104565,-4.36184 11.34375,-5.80664 1.616767,-0.72113 2.991816,-1.29787 3.976562,-1.69921 0.39175,-0.15966 0.784952,-0.31439 1.091797,-0.43555 0.184107,-0.0727 0.33554,-0.13218 0.4375,-0.17188 0.03312,-0.0129 0.05135,-0.0212 0.07227,-0.0293 v 0.002 c 1.593612,-0.62399 3.322006,-1.15495 5.111328,-1.70703 l 4.335937,-1.33789 -3.914062,-2.29688 c -5.905474,-3.46711 -11.858973,-6.57563 -17.414063,-8.86133 -2.985416,-1.22837 -12.738468,-5.2205 -23.279297,-7.50195 l 0.01758,-0.10547 -1.921875,-0.36328 c -4.537122,-0.85977 -7.618195,-5.32294 -6.78711,-9.86914 0.812683,-4.44671 5.092317,-7.48816 9.531295,-6.87602 z"
       id="path7152"
       sodipodi:nodetypes="ccccccsscccscccccsccssccccccccccccsccccscscccccccsccsccccccccscccccsccccccccc"
       inkscape:path-effect="#path-effect10962"
       inkscape:original-d="m 75.59375,59.757812 c -0.688147,-7.63e-4 -1.372042,0.06579 -2.046875,0.199219 -2.732608,0.539141 -5.139356,2.147046 -6.6875,4.457031 h -0.002 c -3.196523,4.772365 -1.895338,11.365858 2.878906,14.566407 l 0.002,0.002 c 2.639643,1.765308 5.632373,4.275859 8.658203,6.957031 5.448819,4.82817 12.919302,12.208271 20.833985,22.29102 3.634421,4.62999 7.363431,9.9062 11.039061,15.70508 l 0.26563,40.28515 c -2.42053,-1.61999 -4.85982,-3.15611 -7.31836,-4.55468 C 91.149935,152.80161 79.359993,148.36776 70.568359,145.63281 66.83568,144.47164 61.209476,142.791 55.753906,141.81836 h -0.0078 c -5.649541,-1.02753 -11.17608,2.78972 -12.208985,8.44141 -1.02952,5.63168 2.763746,11.12892 8.38086,12.19335 l -0.002,0.0117 c 11.06745,2.1341 21.613819,6.53405 24.796875,7.84375 5.445739,2.2407 11.307673,5.29804 17.164062,8.73633 -1.787179,0.55142 -3.582134,1.10085 -5.25,1.75391 0.366136,-0.14322 -0.62666,0.23881 -1.626953,0.64648 -1.00133,0.4081 -2.397801,0.99342 -4.037109,1.72461 -3.278617,1.46238 -7.523101,3.50105 -11.556641,5.91797 -4.92954,2.95138 -6.564841,9.46849 -3.615234,14.39844 2.950015,4.93074 9.466451,6.57264 14.398437,3.62304 l 0.002,-0.002 c 6.398791,-3.82481 14.046875,-6.73633 14.046875,-6.73633 l 0.02344,-0.008 0.02344,-0.01 c 4.714447,-1.84595 9.820597,-3.04889 14.464847,-3.6543 l 0.006,0.80664 c 0.0367,5.74682 4.81848,10.47051 10.56641,10.43359 5.74973,-0.0365 10.47271,-4.8231 10.43359,-10.57226 l -0.0117,-1.83789 c 5.91698,0.30666 12.51209,1.58342 18.27734,3.29297 0.93448,0.2771 8.58311,2.50994 15.16602,5.58984 5.20537,2.43624 11.52493,0.14726 13.96094,-5.05859 2.43654,-5.20382 0.15006,-11.52322 -5.05469,-13.96094 h -0.002 c -8.21419,-3.84581 -17.39447,-6.49345 -18.10157,-6.70313 -2.44713,-0.72564 -5.07416,-1.34067 -7.76171,-1.89453 4.96686,-3.1069 9.95499,-5.66914 14.61914,-7.61133 1.27934,-0.53272 13.99537,-5.51904 22.87304,-6.75586 l -0.002,-0.01 c 5.67176,-0.77565 9.7395,-6.08508 8.99023,-11.76758 -0.75313,-5.69623 -6.08377,-9.78328 -11.77929,-9.0332 l 0.52148,-0.0352 h -0.25781 l -0.25195,0.0312 c -8.11671,1.03365 -17.67152,4.18299 -21.09375,5.37891 -8.99947,3.14489 -19.78482,8.3027 -30.32227,15.8164 l -0.16797,-25.58203 c 2.96185,-6.55711 6.09083,-12.45201 9.20508,-17.67383 3.785,-6.34648 15.39451,-23.36801 24.45117,-30.966793 l 0.004,-0.002 0.002,-0.002 c 4.39745,-3.700704 4.97214,-10.396483 1.27149,-14.792969 -1.79265,-2.13083 -4.36375,-3.465044 -7.13672,-3.703125 -2.77111,-0.237311 -5.53148,0.638992 -7.66211,2.433594 h -0.002 l -0.002,0.002 c -5.01511,4.23502 -10.87322,11.002639 -14.53125,15.544922 -1.87681,2.330485 -3.86045,5.053199 -5.875,7.945313 l -0.14648,-22.316407 c -0.0396,-5.744803 -4.8216,-10.46389 -10.56641,-10.427734 -5.74642,0.03663 -10.46977,4.818901 -10.43359,10.566406 l 0.0976,14.9375 C 104.33183,82.113331 98.856235,76.235709 94.349609,72.099609 90.543441,68.606377 85.792502,64.469847 81.431641,61.539062 h -0.002 l -0.002,-0.002 c -1.722943,-1.155 -3.752417,-1.776312 -5.832031,-1.779297 z m -20.558628,81.996098 0.705078,0.0625 -0.347656,-0.0625 z" />
    <path
       id="path301"
       style="fill:#cbaf3b;fill-opacity:1;stroke:none;stroke-width:0.304;stroke-linecap:butt;stroke-linejoin:miter;stroke-dasharray:none;stroke-opacity:1"
       d="m 22.771737,115.22914 c -1.205959,7.54531 1.006852,14.34831 7.312732,16.06931 -8.197681,2.84447 -12.666304,9.97207 -14.109733,18.01182 l 32.371777,-15.06364 z"
       sodipodi:nodetypes="ccccc" />
    <path
       id="path1009"
       style="fill:#cbaf3b;fill-opacity:1;stroke:none;stroke-width:0.264583px;stroke-linecap:butt;stroke-linejoin:miter;stroke-opacity:1"
       d="m 56.117308,170.44605 -33.176073,6.23412 c 4.287004,4.59321 10.236519,6.75575 17.388603,4.2447 -3.713522,8.04795 -3.939807,16.15033 -0.852661,22.73143 z"
       sodipodi:nodetypes="ccccc" />
    <path
       id="path1011"
       style="fill:#cbaf3b;fill-opacity:1;stroke:none;stroke-width:0.264583px;stroke-linecap:butt;stroke-linejoin:miter;stroke-opacity:1"
       d="M 108.99335,29.134139 C 101.43714,31.813115 95.470005,37.323648 94.342045,45.50885 89.137685,40.914047 83.09559,39.541692 77.371505,40.578402 l 23.402865,26.460719 z"
       sodipodi:nodetypes="ccccc" />
    <path
       id="path1013"
       style="fill:#cbaf3b;fill-opacity:1;stroke:none;stroke-width:0.265;stroke-linecap:butt;stroke-linejoin:miter;stroke-dasharray:none;stroke-opacity:1"
       d="m 134.02541,30.148547 5.86717,37.686387 27.28171,-24.730072 c -6.32787,-1.363847 -13.43948,-0.289774 -19.89387,3.694349 -1.39772,-8.08552 -6.60884,-13.591324 -13.25501,-16.650664 z"
       sodipodi:nodetypes="ccccc" />
    <path
       id="path1015"
       style="fill:#cbaf3b;fill-opacity:1;stroke:none;stroke-width:0.304;stroke-linecap:butt;stroke-linejoin:miter;stroke-dasharray:none;stroke-opacity:1"
       d="m 216.34545,111.36271 -22.3306,19.33585 33.7144,15.14215 c -1.72621,-9.17324 -7.04135,-16.89058 -16.13648,-18.45779 4.86008,-2.102 6.31818,-8.86424 4.75268,-16.02021 z"
       sodipodi:nodetypes="ccccc" />
    <path
       id="path1017"
       style="fill:#cbaf3b;fill-opacity:1;stroke:none;stroke-width:0.265;stroke-linecap:butt;stroke-linejoin:miter;stroke-dasharray:none;stroke-opacity:1"
       d="m 187.83556,171.15544 15.72618,32.56391 c 2.56497,-6.38831 2.30213,-14.04313 -0.79737,-21.56974 6.61288,0.59798 11.98007,-1.4954 16.06052,-5.1723 z" />
    <path
       style="display:inline;fill:none;fill-opacity:1;stroke:url(#radialGradient8048);stroke-width:5;stroke-linecap:butt;stroke-linejoin:miter;stroke-dasharray:none;stroke-opacity:1"
       d="m 207.13911,119.08052 c -0.0112,0.001 -0.0153,-0.008 -0.004,-0.0376 0.0212,-0.0577 0.0446,-0.12671 0.0684,-0.20703 0.0264,-0.0895 0.0541,-0.19031 0.0801,-0.30664 0.0289,-0.12926 0.0558,-0.2735 0.0801,-0.4336 0.69172,-4.56432 -4.77122,-28.420004 -28.58008,-12.61718 -8.84815,5.876 -19.20187,-4.98686 -12.9082,-13.542973 25.45865,-34.637648 -1.05288,-44.799906 -13.60352,-37.052735 -5.72352,3.533468 -13.2054,0.163161 -14.35156,-6.464843 -1.26717,-7.33032 -9.01593,-11.646067 -17.60156,-11.669922 -8.78865,-0.02442 -15.75103,4.141714 -16.56641,10.058594 -1.03583,7.507964 -10.014883,10.839498 -15.697262,5.824218 -2.454694,-2.167189 -5.272907,-2.969321 -7.517579,-2.875 -9.186004,0.385998 -26.872427,18.452301 -3.652343,41.984375 3.434602,3.484104 3.660634,9.007596 0.523437,12.761716 -3.137196,3.75413 -8.611628,4.51114 -12.650391,1.75 -15.612904,-10.685712 -24.675051,-4.60613 -29.060546,1.78711 -5.095064,7.42766 -3.686783,13.93865 -3.111328,14.09571 9.006194,2.46096 9.43139,15.0769 0.611328,18.13867 -13.230657,4.59084 -9.263064,36.34121 3.986328,31.68945 7.919002,-2.78051 15.289503,5.32239 11.773437,12.94336 -4.386014,9.50538 -1.725615,17.88572 6.546875,21.50781 9.917022,4.34215 29.913058,3.63324 60.927734,-14.23437 2.97333,-1.71255 6.63909,-1.68866 9.58984,0.0625 31.72542,18.82452 51.47627,19.66971 61.12305,15.42578 8.23808,-3.6242 10.82358,-12.21234 6.83399,-21.90039 -2.71582,-6.5963 2.53614,-13.72092 9.64062,-13.07813 18.90867,1.70985 19.08641,-33.75262 6.36133,-35.94531 -9.03017,-1.5581 -10.64852,-13.52687 -2.81917,-17.66301 -0.0108,0.005 -0.0192,0.006 -0.0222,-6.1e-4 z m 0.0776,-0.0284 c -0.007,0.003 -0.0155,0.008 -0.0237,0.0124 0.008,-0.004 0.0158,-0.008 0.0237,-0.0124 z"
       id="path8037"
       sodipodi:nodetypes="cccccccccc"
       inkscape:path-effect="#path-effect8041"
       inkscape:original-d="m 94.342131,45.508891 c 3.314643,-24.053186 48.381489,-25.070995 52.938459,1.290121 23.69923,-14.628897 56.28191,9.901758 26.24864,50.76339 36.84322,-24.454208 52.60535,23.531028 38.06357,29.820388 25.58961,4.40941 21.28879,57.49032 -8.82837,54.76692 11.44355,27.78873 -15.69705,57.36034 -81.59115,18.26156 C 56.602976,237.61035 27.412865,208.91834 40.329751,180.92485 14.995887,189.81938 4.7384552,140.0932 30.084561,131.29847 10.439481,125.93694 30.461485,71.266751 70.123919,98.412348 35.834306,63.662012 72.483048,26.210039 94.342131,45.508891 Z" />
    <path
       style="display:inline;fill:none;fill-opacity:1;stroke:url(#radialGradient5627);stroke-width:5;stroke-linecap:butt;stroke-linejoin:miter;stroke-dasharray:none;stroke-opacity:1"
       d="m 120.33789,29.748047 c 11.28619,0.03136 22.46812,5.835541 24.48047,17.476562 0.30205,1.743162 2.2695,2.629684 3.77539,1.701172 20.77672,-12.824913 51.75596,7.926181 22.92187,47.15625 -1.64997,2.250887 1.06949,5.103269 3.39649,3.5625 17.37028,-11.529296 28.95825,-5.814782 34.86328,2.720699 6.20445,8.96829 5.97234,20.49693 0.82617,22.72266 -2.28009,0.98721 -1.88011,4.33547 0.56836,4.75781 22.21685,3.82824 18.99694,52.27213 -8.18164,49.81446 -1.8695,-0.16916 -3.2516,1.70556 -2.53711,3.4414 5.26594,12.78744 1.69416,25.61516 -10.48828,30.97461 -12.55315,5.52254 -34.88811,3.54418 -67.51367,-15.81445 -0.77661,-0.4605 -1.74118,-0.46647 -2.52344,-0.0156 -31.950815,18.40693 -54.484054,20.16022 -67.228514,14.58008 -12.31169,-5.39065 -16.010724,-18.03871 -10.097657,-30.85351 0.924986,-2.0052 -1.013891,-4.13723 -3.097656,-3.40625 -22.179641,7.7871 -30.7814534,-37.2088 -8.597656,-44.90625 2.321184,-0.80618 2.20842,-4.1266 -0.162109,-4.77344 -2.898381,-0.79103 -4.659704,-2.98305 -5.410157,-6.23438 -3.019905,-13.08369 13.062421,-42.926813 43.378907,-22.17773 2.497691,1.70538 5.312964,-1.66295 3.191406,-3.81836 -26.323618,-26.677308 -8.429451,-53.189883 8.339844,-53.894531 4.178533,-0.175583 8.578001,1.208692 12.445312,4.623047 1.495536,1.319874 3.858616,0.442798 4.130859,-1.533204 1.435756,-10.418773 12.179931,-16.135023 23.519531,-16.103515 z"
       id="path5619"
       sodipodi:nodetypes="cccccccccc"
       inkscape:path-effect="#path-effect5637"
       inkscape:original-d="m 94.342131,45.508891 c 3.314643,-24.053186 48.381489,-25.070995 52.938459,1.290121 23.69923,-14.628897 56.28191,9.901758 26.24864,50.76339 36.84322,-24.454208 52.60535,23.531028 38.06357,29.820388 25.58961,4.40941 21.28879,57.49032 -8.82837,54.76692 11.44355,27.78873 -15.69705,57.36034 -81.59115,18.26156 C 56.602976,237.61035 27.412865,208.91834 40.329751,180.92485 14.995887,189.81938 4.7384552,140.0932 30.084561,131.29847 10.439481,125.93694 30.461485,71.266751 70.123919,98.412348 35.834306,63.662012 72.483048,26.210039 94.342131,45.508891 Z" />
    <path
       id="path1766"
       style="fill:none;fill-opacity:1;stroke:#877d52;stroke-width:3;stroke-linecap:butt;stroke-linejoin:round;stroke-dasharray:none;stroke-opacity:1"
       d="M 15.974736,149.31027 48.346513,134.24663 22.771737,115.22914"
       sodipodi:nodetypes="ccc" />
    <path
       id="path2989"
       style="color:#000000;fill:url(#radialGradient17204);fill-opacity:1;stroke-linecap:round"
       d="M 56.275118,65.263717 C 55.220766,75.183407 58.807931,86.9446 70.123885,98.412598 61.410988,92.449353 53.647077,90.436278 47.04209,90.97946 l 13.719059,5.104598 5.17e-4,5.16e-4 c 8.955633,8.780206 20.363677,21.546066 30.173869,37.487636 a 4,4 0 0 0 5.501989,1.31051 4,4 0 0 0 1.310515,-5.50405 C 88.425787,114.23 77.737043,101.85665 68.839209,92.849113 Z" />
    <path
       id="path2991"
       style="color:#000000;fill:url(#radialGradient17196);fill-opacity:1;stroke-linecap:round"
       d="m 185.40367,70.555383 -17.4532,29.36565 c -7.33498,8.353027 -14.95176,18.706267 -20.98373,30.770217 a 4,4 0 0 0 1.78904,5.36556 4,4 0 0 0 5.36711,-1.78749 c 7.65798,-15.31595 18.13429,-27.79545 26.98544,-36.658741 l 16.18919,-6.541202 c -6.47399,-1.239824 -14.44465,0.30485 -23.76806,6.493143 7.43844,-10.120332 11.03148,-19.237187 11.87421,-27.007137 z" />
    <path
       id="path4719"
       style="color:#000000;fill:none;stroke:#877d52;stroke-width:3;stroke-linecap:butt;stroke-linejoin:round;stroke-dasharray:none;stroke-opacity:1"
       d="m 47.04209,90.97946 13.719059,5.104598 5.17e-4,5.16e-4 c 8.955633,8.780206 20.363677,21.546066 30.173869,37.487636 1.157679,1.8809 3.620706,2.46756 5.501989,1.31051 1.882154,-1.15775 2.468971,-3.62233 1.310515,-5.50405 C 88.425787,114.23 77.737043,101.85665 68.839209,92.849113 L 56.275118,65.263717"
       sodipodi:nodetypes="ccsccccc" />
    <path
       id="path4721"
       style="color:#000000;fill:none;stroke:#877d52;stroke-width:3;stroke-linecap:butt;stroke-linejoin:round;stroke-dasharray:none;stroke-opacity:1"
       d="m 185.40367,70.555383 -17.4532,29.36565 c -7.33498,8.353027 -14.95176,18.706267 -20.98373,30.770217 -0.98725,1.97571 -0.18636,4.37768 1.78904,5.36556 1.97569,0.98852 4.37865,0.18823 5.36711,-1.78749 7.65798,-15.31595 18.13429,-27.79545 26.98544,-36.658741 l 16.18919,-6.541202"
       sodipodi:nodetypes="ccccccc" />
    <path
       id="path4723"
       style="fill:none;fill-opacity:1;stroke:#877d52;stroke-width:3;stroke-linecap:butt;stroke-linejoin:round;stroke-dasharray:none;stroke-opacity:1"
       d="m 77.371505,40.578402 23.402865,26.460719 8.21898,-37.904982"
       sodipodi:nodetypes="ccc" />
    <path
       id="path5469"
       style="fill:none;fill-opacity:1;stroke:#877d52;stroke-width:3;stroke-linecap:butt;stroke-linejoin:round;stroke-dasharray:none;stroke-opacity:1"
       d="m 134.02541,30.148547 5.86717,37.686387 27.28171,-24.730072"
       sodipodi:nodetypes="ccc" />
    <path
       id="path5471"
       style="display:inline;fill:none;fill-opacity:1;stroke:#877d52;stroke-width:3;stroke-linecap:butt;stroke-linejoin:round;stroke-dasharray:none;stroke-opacity:1"
       d="m 39.477177,203.6563 16.640131,-33.21025 -33.176073,6.23412"
       sodipodi:nodetypes="ccc" />
    <path
       id="path5473"
       style="fill:none;fill-opacity:1;stroke:#877d52;stroke-width:3;stroke-linecap:butt;stroke-linejoin:round;stroke-dasharray:none;stroke-opacity:1"
       d="m 216.34545,111.36271 -22.3306,19.33585 33.7144,15.14215"
       sodipodi:nodetypes="ccc" />
    <path
       id="path5475"
       style="display:inline;fill:none;fill-opacity:1;stroke:#877d52;stroke-width:3;stroke-linecap:butt;stroke-linejoin:round;stroke-dasharray:none;stroke-opacity:1"
       d="m 218.82489,176.97731 -30.98933,-5.82187 15.72618,32.56391"
       sodipodi:nodetypes="ccc" />
    <path
       style="display:inline;fill:url(#radialGradient6994);fill-opacity:1;stroke:none;stroke-width:0.405;stroke-linecap:butt;stroke-linejoin:miter;stroke-dasharray:none;stroke-opacity:1"
       d="m 34.290502,142.52755 c -0.09016,0.0372 -0.181133,0.0736 -0.272924,0.10917 -9.952358,3.45332 -7.641585,30.47051 2.337891,26.9668 10.00276,-3.51148 19.312131,6.72345 14.871093,16.3496 -3.840638,8.32344 -1.548669,15.17946 5.28125,18.16993 8.907223,3.90001 27.995443,3.56563 58.675778,-14.10938 3.75559,-2.16339 8.38591,-2.13353 12.11329,0.0781 31.40391,18.63376 50.233,19.07635 58.84179,15.28906 6.82938,-3.00447 9.06305,-10.07903 5.5293,-18.66016 -3.43183,-8.33189 3.20137,-17.33257 12.17578,-16.52148 15.92267,1.43984 15.01079,-29.38809 5.71289,-30.99024 -10.95074,-1.88629 -13.22055,-15.85266 -4.65234,-21.60156 0.014,-0.10727 0.0275,-0.21902 0.0371,-0.35351 0.0128,-0.18001 0.0219,-0.38063 0.0215,-0.60157 -0.004,-2.55351 -0.89334,-5.83577 -3,-8.88086 -2.7761,-4.01275 -8.42166,-9.088562 -21.79687,-0.21093 -11.17598,7.42342 -24.25568,-6.29703 -16.30664,-17.105472 24.24363,-32.98457 -0.6858,-39.364711 -10.2754,-33.445312 -7.22941,4.461978 -16.67874,0.20515 -18.12695,-8.166016 -1.00103,-5.790783 -7.52338,-9.574527 -15.14453,-9.595703 -7.87759,-0.02189 -13.49018,3.591331 -14.08398,7.900391 -1.30807,9.483972 -12.650214,13.692586 -19.828129,7.357421 -1.950188,-1.721773 -4.20576,-2.317252 -5.759766,-2.251953 -6.475023,0.272082 -24.08715,15.322798 -1.976563,37.730469 4.337285,4.401198 4.622593,11.375705 0.660157,16.117185 -3.962436,4.74149 -10.877025,5.69964 -15.978516,2.21289 -21.751666,-14.887179 -27.860994,3.87511 -28.690424,10.31935 -0.09909,0.79835 -0.115323,1.40004 -0.06934,1.71386 9.845441,3.97885 10.060829,18.33435 -0.295436,22.17989 z m 0.290825,-22.07734 c 0.003,-0.0396 0.0073,-0.0841 0.0046,-0.10255 -0.0065,-0.003 -0.01289,-0.005 -0.01931,-0.008 0.0041,0.0405 0.009,0.0773 0.0147,0.11043 z"
       id="path6986"
       sodipodi:nodetypes="cccccccccc"
       inkscape:original-d="m 94.342131,45.508891 c 3.314643,-24.053186 48.381489,-25.070995 52.938459,1.290121 23.69923,-14.628897 56.28191,9.901758 26.24864,50.76339 36.84322,-24.454208 52.60535,23.531028 38.06357,29.820388 25.58961,4.40941 21.28879,57.49032 -8.82837,54.76692 11.44355,27.78873 -15.69705,57.36034 -81.59115,18.26156 C 56.602976,237.61035 27.412865,208.91834 40.329751,180.92485 14.995887,189.81938 4.7384552,140.0932 30.084561,131.29847 10.439481,125.93694 30.461485,71.266751 70.123919,98.412348 35.834306,63.662012 72.483048,26.210039 94.342131,45.508891 Z"
       inkscape:path-effect="#path-effect8035" />
    <path
       id="path2494"
       style="color:#000000;display:inline;fill:url(#radialGradient15622);fill-opacity:1;stroke:#877d52;stroke-width:3;stroke-linecap:round;stroke-dasharray:none;stroke-opacity:1"
       d="m 75.587118,66.257971 a 4,4 0 0 0 -0.780315,0.07596 4,4 0 0 0 -2.549198,1.69757 4,4 0 0 0 1.096057,5.548499 c 0,0 22.831623,15.269911 43.401488,48.38309 l 0.36483,54.99923 C 89.482176,154.41836 54.587882,148.21266 54.587882,148.21266 a 4,4 0 0 0 -4.656046,3.21531 4,4 0 0 0 3.214791,4.65398 c 0,0 31.740178,6.12038 57.074033,25.79687 -6.74797,0.72227 -13.448456,2.71196 -19.222597,4.97282 -9.273886,3.6312 -16.251721,7.81245 -16.251721,7.81245 a 4,4 0 0 0 -1.379244,5.48648 4,4 0 0 0 5.486487,1.37873 c 0,0 6.455928,-3.85934 15.060579,-7.2285 7.378286,-2.88897 16.278056,-5.1946 23.289536,-4.71186 l 0.0522,7.87601 a 4,4 0 0 0 4.0256,3.97443 4,4 0 0 0 3.97443,-4.02714 l -0.0558,-8.43514 c 8.30541,-0.77895 18.4284,1.17116 26.66917,3.61476 9.26211,2.74645 16.07396,5.93349 16.07396,5.93349 a 4,4 0 0 0 5.31854,-1.92753 4,4 0 0 0 -1.92598,-5.31854 c 0,0 -7.33491,-3.43398 -17.19327,-6.35723 -6.71262,-1.99046 -14.63131,-3.70827 -22.51387,-4.00596 23.14128,-20.73899 53.19365,-24.92561 53.19365,-24.92561 a 4,4 0 0 0 3.4432,-4.48862 4,4 0 0 0 -4.49016,-3.44113 c 0,0 -33.19826,4.21836 -58.66206,27.88305 l -0.2682,-40.41769 a 4,4 0 0 0 0.51212,-0.81907 c 15.45186,-34.2964 35.4769,-51.097653 35.4769,-51.097653 a 4,4 0 0 0 0.48421,-5.636865 4,4 0 0 0 -2.7187,-1.41025 4,4 0 0 0 -2.91817,0.926041 c 0,0 -16.15021,13.639509 -30.95211,40.574787 L 124.4353,73.740202 a 4,4 0 0 0 -4.02508,-3.972368 4,4 0 0 0 -3.97443,4.025078 l 0.22272,33.573658 C 97.246718,79.998425 77.808687,66.935449 77.808687,66.935449 a 4,4 0 0 0 -2.221569,-0.677478 z" />
  </g>
</svg>
