<?xml version="1.0" encoding="UTF-8" standalone="no"?>
<!-- Created with Inkscape (http://www.inkscape.org/) -->

<svg
   width="240mm"
   height="240mm"
   viewBox="0 0 240 240"
   version="1.1"
   id="svg5"
   inkscape:version="1.2.1 (9c6d41e410, 2022-07-14)"
   sodipodi:docname="leaf.svg"
   xmlns:inkscape="http://www.inkscape.org/namespaces/inkscape"
   xmlns:sodipodi="http://sodipodi.sourceforge.net/DTD/sodipodi-0.dtd"
   xmlns:xlink="http://www.w3.org/1999/xlink"
   xmlns="http://www.w3.org/2000/svg"
   xmlns:svg="http://www.w3.org/2000/svg">
  <sodipodi:namedview
     id="namedview7"
     pagecolor="#181818"
     bordercolor="#666666"
     borderopacity="1.0"
     inkscape:showpageshadow="2"
     inkscape:pageopacity="0"
     inkscape:pagecheckerboard="0"
     inkscape:deskcolor="#353535"
     inkscape:document-units="mm"
     showgrid="false"
     inkscape:zoom="0.093205495"
     inkscape:cx="520.35559"
     inkscape:cy="-134.11226"
     inkscape:window-width="958"
     inkscape:window-height="1008"
     inkscape:window-x="953"
     inkscape:window-y="0"
     inkscape:window-maximized="0"
     inkscape:current-layer="layer1"
     showguides="true" />
  <defs
     id="defs2">
    <linearGradient
       inkscape:collect="always"
       id="linearGradient13230">
      <stop
         style="stop-color:#00beff;stop-opacity:1;"
         offset="0.25787967"
         id="stop13226" />
      <stop
         style="stop-color:#00ff91;stop-opacity:1;"
         offset="0.99426931"
         id="stop13228" />
    </linearGradient>
    <linearGradient
       id="linearGradient11722">
      <stop
         style="stop-color:#3c3c3c;stop-opacity:0.31472084;"
         offset="0"
         id="stop12450" />
      <stop
         style="stop-color:#ffffff;stop-opacity:0;"
         offset="1"
         id="stop12452" />
    </linearGradient>
    <linearGradient
       id="linearGradient11722-1">
      <stop
         style="stop-color:#ffffff;stop-opacity:0.47208121;"
         offset="0"
         id="stop11718" />
      <stop
         style="stop-color:#ffffff;stop-opacity:0;"
         offset="1"
         id="stop11720" />
    </linearGradient>
    <inkscape:path-effect
       effect="offset"
       id="path-effect8732"
       is_visible="true"
       lpeversion="1.2"
       linejoin_type="round"
       unit="mm"
       offset="-3.4"
       miter_limit="4"
       attempt_force_join="false"
       update_on_knot_move="true" />
    <inkscape:path-effect
       effect="offset"
       id="path-effect7904"
       is_visible="true"
       lpeversion="1.2"
       linejoin_type="round"
       unit="mm"
       offset="6.5"
       miter_limit="4"
       attempt_force_join="false"
       update_on_knot_move="true" />
    <inkscape:path-effect
       effect="offset"
       id="path-effect7900"
       is_visible="true"
       lpeversion="1.2"
       linejoin_type="round"
       unit="mm"
       offset="6.5"
       miter_limit="4"
       attempt_force_join="false"
       update_on_knot_move="true" />
    <inkscape:path-effect
       effect="offset"
       id="path-effect7896"
       is_visible="true"
       lpeversion="1.2"
       linejoin_type="round"
       unit="mm"
       offset="6.5"
       miter_limit="4"
       attempt_force_join="false"
       update_on_knot_move="true" />
    <inkscape:path-effect
       effect="offset"
       id="path-effect7166"
       is_visible="true"
       lpeversion="1.2"
       linejoin_type="round"
       unit="mm"
       offset="6"
       miter_limit="4"
       attempt_force_join="false"
       update_on_knot_move="true" />
    <inkscape:path-effect
       effect="offset"
       id="path-effect7162"
       is_visible="true"
       lpeversion="1.2"
       linejoin_type="round"
       unit="mm"
       offset="6"
       miter_limit="4"
       attempt_force_join="false"
       update_on_knot_move="true" />
    <inkscape:path-effect
       effect="offset"
       id="path-effect7154"
       is_visible="true"
       lpeversion="1.2"
       linejoin_type="round"
       unit="mm"
       offset="2.5"
       miter_limit="4"
       attempt_force_join="false"
       update_on_knot_move="true" />
    <linearGradient
       inkscape:collect="always"
       id="linearGradient6992">
      <stop
         style="stop-color:#ffffff;stop-opacity:0;"
         offset="0"
         id="stop6988" />
      <stop
         style="stop-color:#000000;stop-opacity:0.16751269;"
         offset="1"
         id="stop6990" />
    </linearGradient>
    <inkscape:path-effect
       effect="offset"
       id="path-effect6984"
       is_visible="true"
       lpeversion="1.2"
       linejoin_type="round"
       unit="mm"
       offset="-4"
       miter_limit="4"
       attempt_force_join="false"
       update_on_knot_move="true" />
    <radialGradient
       inkscape:collect="always"
       xlink:href="#linearGradient6992"
       id="radialGradient6994"
       cx="120.1878"
       cy="135.37875"
       fx="120.1878"
       fy="135.37875"
       r="106.45666"
       gradientTransform="matrix(0.95871707,0.04863712,-0.04237351,0.83525118,10.992282,13.554817)"
       gradientUnits="userSpaceOnUse" />
    <radialGradient
       inkscape:collect="always"
       xlink:href="#linearGradient11722-1"
       id="radialGradient10990"
       gradientUnits="userSpaceOnUse"
       gradientTransform="matrix(0.27538062,-1.0479395,1.2071692,0.31722345,-112.94381,217.13401)"
       cx="110.77506"
       cy="171.83737"
       fx="110.77506"
       fy="171.83737"
       r="106.45666" />
    <radialGradient
       inkscape:collect="always"
       xlink:href="#linearGradient13230"
       id="radialGradient13232"
       cx="161.8891"
       cy="181.20248"
       fx="161.8891"
       fy="181.20248"
       r="106.45666"
       gradientTransform="matrix(1.4823002,-0.92455401,0.5288785,0.84792964,-165.72662,154.40534)"
       gradientUnits="userSpaceOnUse" />
  </defs>
  <g
     inkscape:label="Layer 1"
     inkscape:groupmode="layer"
     id="layer1">
    <path
       style="fill:url(#radialGradient13232);fill-opacity:1;stroke:none;stroke-width:0.405455px;stroke-linecap:butt;stroke-linejoin:miter;stroke-opacity:1"
       d="m 94.342131,45.508891 c 3.314643,-24.053186 48.381489,-25.070995 52.938459,1.290121 23.69923,-14.628897 56.28191,9.901758 26.24864,50.76339 36.84322,-24.454208 52.60535,23.531028 38.06357,29.820388 25.58961,4.40941 21.28879,57.49032 -8.82837,54.76692 11.44355,27.78873 -15.69705,57.36034 -81.59115,18.26156 C 56.602976,237.61035 27.412865,208.91834 40.329751,180.92485 14.995887,189.81938 4.7384552,140.0932 30.084561,131.29847 10.439481,125.93694 30.461485,71.266751 70.123919,98.412348 35.834306,63.662012 72.483048,26.210039 94.342131,45.508891 Z"
       id="path119"
       sodipodi:nodetypes="cccccccccc" />
    <path
       style="fill:url(#radialGradient10990);fill-opacity:1;stroke:none;stroke-width:0.405;stroke-linecap:butt;stroke-linejoin:miter;stroke-opacity:1;stroke-dasharray:none"
       d="m 94.342131,45.508891 c 3.314643,-24.053186 48.381489,-25.070995 52.938459,1.290121 23.69923,-14.628897 56.28191,9.901758 26.24864,50.76339 36.84322,-24.454208 52.60535,23.531028 38.06357,29.820388 25.58961,4.40941 21.28879,57.49032 -8.82837,54.76692 11.44355,27.78873 -15.69705,57.36034 -81.59115,18.26156 C 56.602976,237.61035 27.412865,208.91834 40.329751,180.92485 14.995887,189.81938 4.7384552,140.0932 30.084561,131.29847 10.439481,125.93694 30.461485,71.266751 70.123919,98.412348 35.834306,63.662012 72.483048,26.210039 94.342131,45.508891 Z"
       id="path10988"
       sodipodi:nodetypes="cccccccccc" />
    <path
       id="path7906"
       style="fill:none;fill-opacity:1;stroke:#000000;stroke-width:7;stroke-linecap:round;stroke-linejoin:round;stroke-dasharray:none;stroke-opacity:0.1"
       d="m 120.33594,30.648438 c 3.70769,0.0103 7.3256,0.784756 10.64648,2.058593 l 5.55078,35.652344 c 0.41649,2.673617 3.63752,3.813077 5.64258,1.996094 l 25.85938,-23.441407 c 8.50825,2.544697 15.07879,10.370761 14.00195,22.652344 l -16.86914,28.386719 c -7.40961,8.472575 -15.11374,18.961825 -21.24219,31.218755 -1.83403,3.67031 -0.36037,8.09096 3.3086,9.92578 3.67005,1.83628 8.09288,0.36474 9.92968,-3.30664 7.32525,-14.65049 17.31785,-26.64235 25.90625,-35.30664 l 14.42383,-5.82813 c 7.80664,1.900167 12.83854,8.65823 14.9043,15.62695 l -20.60938,17.84571 c -1.87853,1.6272 -1.43344,4.65429 0.83399,5.67187 L 224.5,148.11719 c 1.22753,9.06929 -1.19171,19.14186 -6.87891,25.17383 l -29.1582,-5.47657 c -2.74159,-0.51516 -4.90275,2.30842 -3.68945,4.82032 l 14.94922,30.95312 c -6.61772,13.58707 -30.91919,21.13074 -76.81446,-6.10156 -1.05609,-0.62626 -2.36779,-0.63447 -3.43164,-0.0215 -43.790973,25.22812 -68.725428,18.77076 -76.083982,5.96485 L 59.15625,171.96875 c 1.260759,-2.51466 -0.903446,-5.38529 -3.667969,-4.86523 l -31.041015,5.83398 c -4.198307,-5.37968 -6.213661,-13.49452 -5.230469,-21.38672 l 30.5625,-14.22266 c 2.335099,-1.08616 2.661834,-4.27316 0.595703,-5.81054 L 26.585938,113.82812 c 2.136473,-8.83306 9.259853,-18.119001 20.15039,-19.333979 l 12.125,4.511718 c 8.747097,8.629161 19.714572,20.966821 29.179688,36.347661 2.150684,3.49425 6.682542,4.57543 10.177734,2.42578 3.49643,-2.15073 4.57754,-6.68647 2.42578,-10.18164 C 91.307649,112.42519 80.644028,100.03229 71.703125,90.931641 L 59.806641,64.814453 C 61.236203,54.367959 68.321253,46.690735 76.230469,44.421875 l 21.996093,24.869141 c 1.845198,2.08585 5.278158,1.190194 5.869138,-1.53125 l 7.77735,-35.861328 c 2.69672,-0.768999 5.53847,-1.258127 8.46289,-1.25 z"
       sodipodi:nodetypes="scccccccccscccccccccccccccccccccccccs"
       inkscape:original-d="m 120.34563,27.248466 c -3.91534,-0.01088 -7.80742,0.63348 -11.35383,1.893941 L 100.77421,67.039319 77.377706,40.58512 C 66.993193,42.464246 57.655184,52.279587 56.275118,65.263717 v 5.16e-4 l 12.564091,27.58488 c 8.897798,9.007497 19.586614,21.380927 28.90883,36.529557 1.158456,1.88172 0.571639,4.3463 -1.310515,5.50405 -1.881283,1.15705 -4.34431,0.57039 -5.501989,-1.31051 C 81.125379,117.63068 69.717263,104.86474 60.761666,96.084574 l -5.17e-4,-5.16e-4 -13.688053,-5.09323 C 33.250646,92.114082 24.498445,104.42591 22.771737,115.22914 l 25.574666,19.01745 -32.364433,15.06006 c -1.760899,9.80103 0.971445,20.95804 6.959265,27.37352 l 33.17627,-6.23424 -16.640328,33.21037 c 7.65112,16.30992 35.690111,23.25903 81.696303,-3.24528 48.04618,28.50857 75.48326,20.50584 82.38826,3.30833 l -15.72618,-32.56391 30.98468,5.82084 c 7.89805,-7.11614 10.97331,-20.1658 8.90901,-31.13557 l -33.71422,-15.14223 22.33042,-19.33577 c -1.93316,-8.83656 -8.50059,-18.268871 -19.05362,-20.29075 l -16.1835,6.538619 c -8.85115,8.863281 -19.32747,21.342811 -26.98544,36.658741 -0.98846,1.97572 -3.39142,2.77601 -5.36711,1.78749 -1.9754,-0.98788 -2.77629,-3.38985 -1.78904,-5.36556 6.03196,-12.06394 13.64876,-22.4172 20.98373,-30.770217 L 185.40005,70.561068 C 187.03374,55.50361 178.32669,45.509075 167.17378,43.105379 l -27.28103,24.729757 -5.86734,-37.686589 c -4.18797,-1.927885 -8.94427,-2.886923 -13.67978,-2.900081 z"
       inkscape:path-effect="#path-effect8732" />
    <path
       style="color:#000000;fill:#000000;fill-opacity:0.1;stroke-linecap:round;-inkscape-stroke:none"
       d="m 75.59375,59.757812 c -0.688147,-7.63e-4 -1.372042,0.06579 -2.046875,0.199219 -2.732608,0.539141 -5.139356,2.147046 -6.6875,4.457031 h -0.002 c -3.196523,4.772365 -1.895338,11.365858 2.878906,14.566407 l 0.002,0.002 c 2.639643,1.765308 5.632373,4.275859 8.658203,6.957031 5.448819,4.82817 12.919302,12.208271 20.833985,22.29102 3.634421,4.62999 7.363431,9.9062 11.039061,15.70508 l 0.26563,40.28515 c -2.42053,-1.61999 -4.85982,-3.15611 -7.31836,-4.55468 C 91.149935,152.80161 79.359993,148.36776 70.568359,145.63281 66.83568,144.47164 61.209476,142.791 55.753906,141.81836 h -0.0078 c -5.649541,-1.02753 -11.17608,2.78972 -12.208985,8.44141 -1.02952,5.63168 2.763746,11.12892 8.38086,12.19335 l -0.002,0.0117 c 11.06745,2.1341 21.613819,6.53405 24.796875,7.84375 5.445739,2.2407 11.307673,5.29804 17.164062,8.73633 -1.787179,0.55142 -3.582134,1.10085 -5.25,1.75391 0.366136,-0.14322 -0.62666,0.23881 -1.626953,0.64648 -1.00133,0.4081 -2.397801,0.99342 -4.037109,1.72461 -3.278617,1.46238 -7.523101,3.50105 -11.556641,5.91797 -4.92954,2.95138 -6.564841,9.46849 -3.615234,14.39844 2.950015,4.93074 9.466451,6.57264 14.398437,3.62304 l 0.002,-0.002 c 6.398791,-3.82481 14.046875,-6.73633 14.046875,-6.73633 l 0.02344,-0.008 0.02344,-0.01 c 4.714447,-1.84595 9.820597,-3.04889 14.464847,-3.6543 l 0.006,0.80664 c 0.0367,5.74682 4.81848,10.47051 10.56641,10.43359 5.74973,-0.0365 10.47271,-4.8231 10.43359,-10.57226 l -0.0117,-1.83789 c 5.91698,0.30666 12.51209,1.58342 18.27734,3.29297 0.93448,0.2771 8.58311,2.50994 15.16602,5.58984 5.20537,2.43624 11.52493,0.14726 13.96094,-5.05859 2.43654,-5.20382 0.15006,-11.52322 -5.05469,-13.96094 h -0.002 c -8.21419,-3.84581 -17.39447,-6.49345 -18.10157,-6.70313 -2.44713,-0.72564 -5.07416,-1.34067 -7.76171,-1.89453 4.96686,-3.1069 9.95499,-5.66914 14.61914,-7.61133 1.27934,-0.53272 13.99537,-5.51904 22.87304,-6.75586 l -0.002,-0.01 c 5.67176,-0.77565 9.7395,-6.08508 8.99023,-11.76758 -0.75313,-5.69623 -6.08377,-9.78328 -11.77929,-9.0332 l 0.52148,-0.0352 h -0.25781 l -0.25195,0.0312 c -8.11671,1.03365 -17.67152,4.18299 -21.09375,5.37891 -8.99947,3.14489 -19.78482,8.3027 -30.32227,15.8164 l -0.16797,-25.58203 c 2.96185,-6.55711 6.09083,-12.45201 9.20508,-17.67383 3.785,-6.34648 15.39451,-23.36801 24.45117,-30.966793 l 0.004,-0.002 0.002,-0.002 c 4.39745,-3.700704 4.97214,-10.396483 1.27149,-14.792969 -1.79265,-2.13083 -4.36375,-3.465044 -7.13672,-3.703125 -2.77111,-0.237311 -5.53148,0.638992 -7.66211,2.433594 h -0.002 l -0.002,0.002 c -5.01511,4.23502 -10.87322,11.002639 -14.53125,15.544922 -1.87681,2.330485 -3.86045,5.053199 -5.875,7.945313 l -0.14648,-22.316407 c -0.0396,-5.744803 -4.8216,-10.46389 -10.56641,-10.427734 -5.74642,0.03663 -10.46977,4.818901 -10.43359,10.566406 l 0.0976,14.9375 C 104.33183,82.113331 98.856235,76.235709 94.349609,72.099609 90.543441,68.606377 85.792502,64.469847 81.431641,61.539062 h -0.002 l -0.002,-0.002 c -1.722943,-1.155 -3.752417,-1.776312 -5.832031,-1.779297 z m -20.558628,81.996098 0.705078,0.0625 -0.347656,-0.0625 z"
       id="path7152"
       sodipodi:nodetypes="ccccccsscccscccccsccssccccccccccccsccccscscccccccsccsccccccccscccccsccccccccc" />
    <path
       id="path301"
       style="fill:#e0c769;fill-opacity:1;stroke:none;stroke-width:0.303686px;stroke-linecap:butt;stroke-linejoin:miter;stroke-opacity:1"
       d="m 22.771737,115.22914 c -1.205959,7.54531 1.006852,14.34831 7.312732,16.06931 -8.197681,2.84447 -12.666304,9.97207 -14.109733,18.01182 l 32.371777,-15.06364 z"
       sodipodi:nodetypes="ccccc" />
    <path
       id="path1009"
       style="fill:#e0c769;fill-opacity:1;stroke:none;stroke-width:0.264583px;stroke-linecap:butt;stroke-linejoin:miter;stroke-opacity:1"
       d="m 56.117308,170.44605 -33.176073,6.23412 c 4.287004,4.59321 10.236519,6.75575 17.388603,4.2447 -3.713522,8.04795 -3.939807,16.15033 -0.852661,22.73143 z"
       sodipodi:nodetypes="ccccc" />
    <path
       id="path1011"
       style="fill:#e0c769;fill-opacity:1;stroke:none;stroke-width:0.264583px;stroke-linecap:butt;stroke-linejoin:miter;stroke-opacity:1"
       d="M 108.99335,29.134139 C 101.43714,31.813115 95.470005,37.323648 94.342045,45.50885 89.137685,40.914047 83.09559,39.541692 77.371505,40.578402 l 23.402865,26.460719 z"
       sodipodi:nodetypes="ccccc" />
    <path
       id="path1013"
       style="fill:#e0c769;fill-opacity:1;stroke:none;stroke-width:0.264583px;stroke-linecap:butt;stroke-linejoin:miter;stroke-opacity:1"
       d="m 134.02541,30.148547 5.86717,37.686387 27.28171,-24.730072 c -6.32787,-1.363847 -13.43948,-0.289774 -19.89387,3.694349 -1.39772,-8.08552 -6.60884,-13.591324 -13.25501,-16.650664 z"
       sodipodi:nodetypes="ccccc" />
    <path
       id="path1015"
       style="fill:#e0c769;fill-opacity:1;stroke:none;stroke-width:0.303686px;stroke-linecap:butt;stroke-linejoin:miter;stroke-opacity:1"
       d="m 216.34545,111.36271 -22.3306,19.33585 33.7144,15.14215 c -1.72621,-9.17324 -7.04135,-16.89058 -16.13648,-18.45779 4.86008,-2.102 6.31818,-8.86424 4.75268,-16.02021 z"
       sodipodi:nodetypes="ccccc" />
    <path
       id="path1017"
       style="fill:#e0c769;fill-opacity:1;stroke:none;stroke-width:0.264583px;stroke-linecap:butt;stroke-linejoin:miter;stroke-opacity:1"
       d="M 187.83556 171.15544 L 203.56174 203.71935 C 206.12671 197.33104 205.86387 189.67622 202.76437 182.14961 C 209.37725 182.74759 214.74444 180.65421 218.82489 176.97731 L 187.83556 171.15544 z " />
    <path
       id="path1766"
       style="fill:none;fill-opacity:1;stroke:#b19526;stroke-width:3;stroke-linecap:butt;stroke-linejoin:round;stroke-opacity:1;stroke-dasharray:none"
       d="M 15.974736,149.31027 48.346513,134.24663 22.771737,115.22914"
       sodipodi:nodetypes="ccc" />
    <path
       id="path2989"
       style="color:#000000;fill:#e0c769;stroke-linecap:round"
       d="M 56.275118 65.263717 C 55.220766 75.183407 58.807931 86.9446 70.123885 98.412598 C 61.410988 92.449353 53.647077 90.436278 47.04209 90.97946 L 60.761149 96.084058 L 60.761666 96.084574 C 69.717299 104.86478 81.125343 117.63064 90.935535 133.57221 A 4 4 0 0 0 96.437524 134.88272 A 4 4 0 0 0 97.748039 129.37867 C 88.425787 114.23 77.737043 101.85665 68.839209 92.849113 L 56.275118 65.263717 z " />
    <path
       id="path2991"
       style="color:#000000;fill:#e0c769;stroke-linecap:round"
       d="M 185.40367 70.555383 L 167.95047 99.921033 C 160.61549 108.27406 152.99871 118.6273 146.96674 130.69125 A 4 4 0 0 0 148.75578 136.05681 A 4 4 0 0 0 154.12289 134.26932 C 161.78087 118.95337 172.25718 106.47387 181.10833 97.610579 L 197.29752 91.069377 C 190.82353 89.829553 182.85287 91.374227 173.52946 97.56252 C 180.9679 87.442188 184.56094 78.325333 185.40367 70.555383 z " />
    <path
       id="path4719"
       style="color:#000000;fill:none;stroke:#b19526;stroke-width:3;stroke-linecap:butt;stroke-dasharray:none;stroke-opacity:1;stroke-linejoin:round"
       d="m 47.04209,90.97946 13.719059,5.104598 5.17e-4,5.16e-4 c 8.955633,8.780206 20.363677,21.546066 30.173869,37.487636 1.157679,1.8809 3.620706,2.46756 5.501989,1.31051 1.882154,-1.15775 2.468971,-3.62233 1.310515,-5.50405 C 88.425787,114.23 77.737043,101.85665 68.839209,92.849113 L 56.275118,65.263717"
       sodipodi:nodetypes="ccsccccc" />
    <path
       id="path4721"
       style="color:#000000;fill:none;stroke:#b19526;stroke-width:3;stroke-linecap:butt;stroke-linejoin:round;stroke-dasharray:none;stroke-opacity:1"
       d="m 185.40367,70.555383 -17.4532,29.36565 c -7.33498,8.353027 -14.95176,18.706267 -20.98373,30.770217 -0.98725,1.97571 -0.18636,4.37768 1.78904,5.36556 1.97569,0.98852 4.37865,0.18823 5.36711,-1.78749 7.65798,-15.31595 18.13429,-27.79545 26.98544,-36.658741 l 16.18919,-6.541202"
       sodipodi:nodetypes="ccccccc" />
    <path
       id="path4723"
       style="fill:none;fill-opacity:1;stroke:#b19526;stroke-width:3;stroke-linecap:butt;stroke-linejoin:round;stroke-dasharray:none;stroke-opacity:1"
       d="m 77.371505,40.578402 23.402865,26.460719 8.21898,-37.904982"
       sodipodi:nodetypes="ccc" />
    <path
       id="path5469"
       style="fill:none;fill-opacity:1;stroke:#b19526;stroke-width:3;stroke-linecap:butt;stroke-linejoin:round;stroke-dasharray:none;stroke-opacity:1"
       d="m 134.02541,30.148547 5.86717,37.686387 27.28171,-24.730072"
       sodipodi:nodetypes="ccc" />
    <path
       id="path5471"
       style="fill:none;fill-opacity:1;stroke:#b19526;stroke-width:3;stroke-linecap:butt;stroke-linejoin:round;stroke-dasharray:none;stroke-opacity:1"
       d="m 39.477177,203.6563 16.640131,-33.21025 -33.176073,6.23412"
       sodipodi:nodetypes="ccc" />
    <path
       id="path5473"
       style="fill:none;fill-opacity:1;stroke:#b19526;stroke-width:3;stroke-linecap:butt;stroke-linejoin:round;stroke-dasharray:none;stroke-opacity:1"
       d="m 216.34545,111.36271 -22.3306,19.33585 33.7144,15.14215"
       sodipodi:nodetypes="ccc" />
    <path
       id="path5475"
       style="fill:none;fill-opacity:1;stroke:#b19526;stroke-width:3;stroke-linecap:butt;stroke-linejoin:round;stroke-dasharray:none;stroke-opacity:1"
       d="m 218.82489,176.97731 -30.98933,-5.82187 15.72618,32.56391"
       sodipodi:nodetypes="ccc" />
    <path
       style="display:inline;fill:url(#radialGradient6994);fill-opacity:1;stroke:none;stroke-width:0.405455px;stroke-linecap:butt;stroke-linejoin:miter;stroke-opacity:1"
       d="m 94.342131,45.508891 c 3.314643,-24.053186 48.381489,-25.070995 52.938459,1.290121 23.69923,-14.628897 56.28191,9.901758 26.24864,50.76339 36.84322,-24.454208 52.60535,23.531028 38.06357,29.820388 25.58961,4.40941 21.28879,57.49032 -8.82837,54.76692 11.44355,27.78873 -15.69705,57.36034 -81.59115,18.26156 C 56.602976,237.61035 27.412865,208.91834 40.329751,180.92485 14.995887,189.81938 4.7384552,140.0932 30.084561,131.29847 10.439481,125.93694 30.461485,71.266751 70.123919,98.412348 35.834306,63.662012 72.483048,26.210039 94.342131,45.508891 Z"
       id="path6986"
       sodipodi:nodetypes="cccccccccc" />
    <path
       id="path2494"
       style="color:#000000;fill:#e0c769;stroke-linecap:round;stroke:#b19526;stroke-opacity:1;stroke-width:3;stroke-dasharray:none"
       d="M 75.587118 66.257971 A 4 4 0 0 0 74.806803 66.333936 A 4 4 0 0 0 72.257605 68.031506 A 4 4 0 0 0 73.353662 73.580005 C 73.353662 73.580005 96.185285 88.849916 116.75515 121.9631 L 117.11998 176.96233 C 89.482176 154.41836 54.587882 148.21266 54.587882 148.21266 A 4 4 0 0 0 49.931836 151.42797 A 4 4 0 0 0 53.146627 156.08195 C 53.146627 156.08195 84.886805 162.20233 110.22066 181.87882 C 103.47269 182.60109 96.772204 184.59078 90.998063 186.85164 C 81.724177 190.48284 74.746342 194.66409 74.746342 194.66409 A 4 4 0 0 0 73.367098 200.15057 A 4 4 0 0 0 78.853585 201.5293 C 78.853585 201.5293 85.309513 197.66996 93.914164 194.3008 C 101.29245 191.41183 110.19222 189.1062 117.2037 189.58894 L 117.25589 197.46495 A 4 4 0 0 0 121.28149 201.43938 A 4 4 0 0 0 125.25592 197.41224 L 125.20011 188.9771 C 133.50552 188.19815 143.62851 190.14826 151.86928 192.59186 C 161.13139 195.33831 167.94324 198.52535 167.94324 198.52535 A 4 4 0 0 0 173.26178 196.59782 A 4 4 0 0 0 171.3358 191.27928 C 171.3358 191.27928 164.00089 187.8453 154.14253 184.92205 C 147.42991 182.93159 139.51122 181.21378 131.62866 180.91609 C 154.76994 160.1771 184.82231 155.99048 184.82231 155.99048 A 4 4 0 0 0 188.26551 151.50186 A 4 4 0 0 0 183.77535 148.06073 C 183.77535 148.06073 150.57709 152.27909 125.11329 175.94378 L 124.84509 135.52609 A 4 4 0 0 0 125.35721 134.70702 C 140.80907 100.41062 160.83411 83.609367 160.83411 83.609367 A 4 4 0 0 0 161.31832 77.972502 A 4 4 0 0 0 158.59962 76.562252 A 4 4 0 0 0 155.68145 77.488293 C 155.68145 77.488293 139.53124 91.127802 124.72934 118.06308 L 124.4353 73.740202 A 4 4 0 0 0 120.41022 69.767834 A 4 4 0 0 0 116.43579 73.792912 L 116.65851 107.36657 C 97.246718 79.998425 77.808687 66.935449 77.808687 66.935449 A 4 4 0 0 0 75.587118 66.257971 z " />
  </g>
</svg>
