<?xml version="1.0" encoding="UTF-8" standalone="no"?>
<!-- Created with Inkscape (http://www.inkscape.org/) -->

<svg
   width="240mm"
   height="240mm"
   viewBox="0 0 240 240"
   version="1.1"
   id="svg5"
   inkscape:version="1.2.1 (9c6d41e410, 2022-07-14)"
   sodipodi:docname="mushroom.svg"
   xmlns:inkscape="http://www.inkscape.org/namespaces/inkscape"
   xmlns:sodipodi="http://sodipodi.sourceforge.net/DTD/sodipodi-0.dtd"
   xmlns:xlink="http://www.w3.org/1999/xlink"
   xmlns="http://www.w3.org/2000/svg"
   xmlns:svg="http://www.w3.org/2000/svg">
  <sodipodi:namedview
     id="namedview7"
     pagecolor="#181818"
     bordercolor="#666666"
     borderopacity="1.0"
     inkscape:showpageshadow="2"
     inkscape:pageopacity="0"
     inkscape:pagecheckerboard="0"
     inkscape:deskcolor="#353535"
     inkscape:document-units="mm"
     showgrid="false"
     inkscape:zoom="0.37282196"
     inkscape:cx="396.97232"
     inkscape:cy="505.60326"
     inkscape:window-width="958"
     inkscape:window-height="1008"
     inkscape:window-x="946"
     inkscape:window-y="0"
     inkscape:window-maximized="0"
     inkscape:current-layer="layer1"
     showguides="false"
     inkscape:lockguides="true" />
  <defs
     id="defs2">
    <linearGradient
       inkscape:collect="always"
       id="linearGradient1451">
      <stop
         style="stop-color:#efece7;stop-opacity:1;"
         offset="0.13753583"
         id="stop1443" />
      <stop
         style="stop-color:#eaceb4;stop-opacity:1;"
         offset="0.25501433"
         id="stop1445" />
      <stop
         style="stop-color:#bda78b;stop-opacity:1;"
         offset="0.55587393"
         id="stop1447" />
      <stop
         style="stop-color:#39351d;stop-opacity:1;"
         offset="1"
         id="stop1449" />
    </linearGradient>
    <linearGradient
       inkscape:collect="always"
       id="linearGradient58611">
      <stop
         style="stop-color:#ffffff;stop-opacity:1;"
         offset="0"
         id="stop58607" />
      <stop
         style="stop-color:#ffffff;stop-opacity:0;"
         offset="1"
         id="stop58609" />
    </linearGradient>
    <linearGradient
       inkscape:collect="always"
       id="linearGradient58578">
      <stop
         style="stop-color:#7bab3b;stop-opacity:1;"
         offset="0.02578797"
         id="stop58618" />
      <stop
         style="stop-color:#559700;stop-opacity:1;"
         offset="0.32091689"
         id="stop58582" />
      <stop
         style="stop-color:#406f00;stop-opacity:1;"
         offset="0.5931232"
         id="stop58574" />
      <stop
         style="stop-color:#253f00;stop-opacity:1;"
         offset="1"
         id="stop58576" />
    </linearGradient>
    <inkscape:path-effect
       effect="offset"
       id="path-effect58474"
       is_visible="true"
       lpeversion="1.2"
       linejoin_type="round"
       unit="mm"
       offset="-2"
       miter_limit="4"
       attempt_force_join="false"
       update_on_knot_move="true" />
    <linearGradient
       inkscape:collect="always"
       id="linearGradient43000">
      <stop
         style="stop-color:#ffffff;stop-opacity:1;"
         offset="0.1060172"
         id="stop44456" />
      <stop
         style="stop-color:#eaf2fb;stop-opacity:1;"
         offset="0.27793697"
         id="stop42996" />
      <stop
         style="stop-color:#aeb0b9;stop-opacity:1;"
         offset="1"
         id="stop42998" />
    </linearGradient>
    <linearGradient
       inkscape:collect="always"
       id="linearGradient29807">
      <stop
         style="stop-color:#ffffff;stop-opacity:0;"
         offset="0.72779369"
         id="stop29799" />
      <stop
         style="stop-color:#ffffff;stop-opacity:0.19289342;"
         offset="0.8080228"
         id="stop29803" />
      <stop
         style="stop-color:#ffffff;stop-opacity:0.10152283;"
         offset="0.92550141"
         id="stop36352" />
      <stop
         style="stop-color:#ffffff;stop-opacity:0;"
         offset="1"
         id="stop29805" />
    </linearGradient>
    <linearGradient
       inkscape:collect="always"
       id="linearGradient18120">
      <stop
         style="stop-color:#000000;stop-opacity:0;"
         offset="0.47564471"
         id="stop18118" />
      <stop
         style="stop-color:#000000;stop-opacity:1;"
         offset="1"
         id="stop18116" />
    </linearGradient>
    <linearGradient
       id="linearGradient7125">
      <stop
         style="stop-color:#000000;stop-opacity:1"
         offset="0.52722061"
         id="stop7880" />
      <stop
         style="stop-color:#000000;stop-opacity:1;"
         offset="0.84813756"
         id="stop7882" />
    </linearGradient>
    <linearGradient
       id="linearGradient7125-2">
      <stop
         style="stop-color:#ffffff;stop-opacity:1;"
         offset="0.1461318"
         id="stop7875" />
      <stop
         style="stop-color:#ffffff;stop-opacity:0;"
         offset="1"
         id="stop7873" />
    </linearGradient>
    <inkscape:path-effect
       effect="offset"
       id="path-effect7145"
       is_visible="true"
       lpeversion="1.2"
       linejoin_type="miter"
       unit="mm"
       offset="-9"
       miter_limit="4"
       attempt_force_join="false"
       update_on_knot_move="true" />
    <inkscape:path-effect
       effect="offset"
       id="path-effect7129"
       is_visible="true"
       lpeversion="1.2"
       linejoin_type="miter"
       unit="mm"
       offset="-3"
       miter_limit="4"
       attempt_force_join="false"
       update_on_knot_move="true" />
    <linearGradient
       id="linearGradient7125-1">
      <stop
         style="stop-color:#000000;stop-opacity:0.19289342;"
         offset="0.52722061"
         id="stop7123" />
      <stop
         style="stop-color:#000000;stop-opacity:0;"
         offset="0.84813756"
         id="stop7121" />
    </linearGradient>
    <linearGradient
       inkscape:collect="always"
       id="linearGradient6332">
      <stop
         style="stop-color:#e7ecfe;stop-opacity:1;"
         offset="0.04297994"
         id="stop6328" />
      <stop
         style="stop-color:#8f99ee;stop-opacity:1;"
         offset="0.13467048"
         id="stop6338" />
      <stop
         style="stop-color:#4053d3;stop-opacity:1;"
         offset="0.33524355"
         id="stop6336" />
      <stop
         style="stop-color:#4053d3;stop-opacity:1;"
         offset="1"
         id="stop6340" />
    </linearGradient>
    <radialGradient
       inkscape:collect="always"
       xlink:href="#linearGradient1451"
       id="radialGradient5408"
       cx="120.92643"
       cy="182.67682"
       fx="120.92643"
       fy="182.67682"
       r="49.412945"
       gradientTransform="matrix(1.2340947,-0.04211028,0.04072372,1.1934592,-36.390866,-32.245927)"
       gradientUnits="userSpaceOnUse" />
    <radialGradient
       inkscape:collect="always"
       xlink:href="#linearGradient1451"
       id="radialGradient5546"
       cx="121.52753"
       cy="148.84035"
       fx="121.52753"
       fy="148.84035"
       r="52.730377"
       gradientTransform="matrix(1.2385522,-0.0951134,0.0453664,0.59075426,-35.703888,59.968036)"
       gradientUnits="userSpaceOnUse" />
    <radialGradient
       inkscape:collect="always"
       xlink:href="#linearGradient6332"
       id="radialGradient6334"
       cx="100.01431"
       cy="53.292892"
       fx="100.01431"
       fy="53.292892"
       r="105.72643"
       gradientTransform="matrix(1.6290205,-0.15141813,0.08800949,0.94684341,-59.693719,21.177678)"
       gradientUnits="userSpaceOnUse" />
    <radialGradient
       inkscape:collect="always"
       xlink:href="#linearGradient18120"
       id="radialGradient18122"
       cx="130.00403"
       cy="46.801823"
       fx="130.00403"
       fy="46.801823"
       r="125.81079"
       gradientTransform="matrix(1.6718739,-0.02858596,0.00679076,0.39716402,-89.922295,62.545766)"
       gradientUnits="userSpaceOnUse" />
    <radialGradient
       inkscape:collect="always"
       xlink:href="#linearGradient29807"
       id="radialGradient29814"
       cx="122.48799"
       cy="209.09798"
       fx="122.48799"
       fy="209.09798"
       r="93.74736"
       gradientTransform="matrix(1.7409377,-0.02706077,0.00827502,0.53236803,-96.322715,28.432719)"
       gradientUnits="userSpaceOnUse" />
    <radialGradient
       inkscape:collect="always"
       xlink:href="#linearGradient43000"
       id="radialGradient43002"
       cx="67.239525"
       cy="58.041111"
       fx="67.239525"
       fy="58.041111"
       r="17.972705"
       gradientTransform="matrix(1.1756082,-0.77651427,0.60805477,0.92056811,-46.619135,56.232964)"
       gradientUnits="userSpaceOnUse" />
    <radialGradient
       inkscape:collect="always"
       xlink:href="#linearGradient43000"
       id="radialGradient45972"
       cx="139.67731"
       cy="64.613602"
       fx="139.67731"
       fy="64.613602"
       r="26.034822"
       gradientTransform="matrix(1.4941199,0.29702637,-0.19105514,0.96105697,-54.06532,-41.055244)"
       gradientUnits="userSpaceOnUse" />
    <radialGradient
       inkscape:collect="always"
       xlink:href="#linearGradient43000"
       id="radialGradient45980"
       cx="91.030701"
       cy="88.760719"
       fx="91.030701"
       fy="88.760719"
       r="11.953196"
       gradientTransform="matrix(1.1049544,0,0,1.0735403,-9.6732348,-6.6478042)"
       gradientUnits="userSpaceOnUse" />
    <radialGradient
       inkscape:collect="always"
       xlink:href="#linearGradient43000"
       id="radialGradient46714"
       cx="190.44759"
       cy="83.404144"
       fx="190.44759"
       fy="83.404144"
       r="13.665498"
       gradientTransform="matrix(0.90100533,0.01308111,-0.01307763,0.90076401,19.777761,5.875642)"
       gradientUnits="userSpaceOnUse" />
    <radialGradient
       inkscape:collect="always"
       xlink:href="#linearGradient43000"
       id="radialGradient46732"
       cx="209.87883"
       cy="57.925163"
       fx="209.87883"
       fy="57.925163"
       r="13.041156"
       gradientTransform="matrix(0.90434705,0.73883602,-0.45674014,0.55905721,45.773727,-126.71487)"
       gradientUnits="userSpaceOnUse" />
    <radialGradient
       inkscape:collect="always"
       xlink:href="#linearGradient43000"
       id="radialGradient48202"
       cx="31.016085"
       cy="73.546974"
       fx="31.016085"
       fy="73.546974"
       r="11.696437"
       gradientTransform="matrix(0.62482758,-0.82323658,0.55767406,0.42326854,-31.953468,68.731816)"
       gradientUnits="userSpaceOnUse" />
    <radialGradient
       inkscape:collect="always"
       xlink:href="#linearGradient43000"
       id="radialGradient48226"
       cx="101.62806"
       cy="23.765289"
       fx="101.62806"
       fy="23.765289"
       r="13.888203"
       gradientTransform="matrix(0.93676783,-0.37939304,0.23349979,0.57653955,0.75842864,48.933788)"
       gradientUnits="userSpaceOnUse" />
    <radialGradient
       inkscape:collect="always"
       xlink:href="#linearGradient58578"
       id="radialGradient58580"
       cx="124.89977"
       cy="192.57568"
       fx="124.89977"
       fy="192.57568"
       r="37.513694"
       gradientTransform="matrix(1.3469949,-0.75872324,0.51037545,0.90609206,-144.0589,113.6822)"
       gradientUnits="userSpaceOnUse" />
    <linearGradient
       inkscape:collect="always"
       xlink:href="#linearGradient58611"
       id="linearGradient58613"
       x1="98.883286"
       y1="153.72502"
       x2="121.2597"
       y2="207.30566"
       gradientUnits="userSpaceOnUse" />
    <radialGradient
       inkscape:collect="always"
       xlink:href="#linearGradient43000"
       id="radialGradient29763"
       cx="155.02232"
       cy="31.404249"
       fx="155.02232"
       fy="31.404249"
       r="18.590349"
       gradientTransform="matrix(0.94601299,0.45888871,-0.27707978,0.57120837,18.236389,-57.655318)"
       gradientUnits="userSpaceOnUse" />
  </defs>
  <g
     inkscape:label="Layer 1"
     inkscape:groupmode="layer"
     id="layer1">
    <path
       id="rect1058"
       style="fill:url(#radialGradient5408);fill-opacity:1.0;stroke:none;stroke-width:0.264999"
       d="m 88.629731,133.98196 c -2.335179,16.54983 -8.93599,21.33866 -13.076124,35.01345 -25.46358,74.76906 109.715883,81.38132 94.410623,7.06361 -1.22343,-12.8103 -9.29595,-22.01213 -12.63532,-41.57524 z"
       sodipodi:nodetypes="ccccc" />
    <path
       style="fill:url(#radialGradient5546);fill-opacity:1.0;stroke:none;stroke-width:0.249878px;stroke-linecap:butt;stroke-linejoin:miter;stroke-opacity:1"
       d="m 99.083684,79.805611 c 0,0 -6.3026,46.121469 -14.052987,51.176339 -19.585229,0.6978 -18.726711,23.54282 -5.978258,24.91094 27.260991,2.92555 65.688791,4.34249 87.747151,-0.93759 11.24091,-2.69073 13.45964,-22.274 -6.54736,-23.50455 -6.76115,-4.28635 -15.98747,-52.276978 -15.98747,-52.276978 l -45.181076,0.631837 z"
       id="path1002"
       sodipodi:nodetypes="ccsscccc" />
    <path
       style="fill:url(#radialGradient6334);fill-opacity:1;stroke:none;stroke-width:0.265;stroke-linecap:butt;stroke-linejoin:miter;stroke-opacity:1;stroke-dasharray:none"
       d="M 24.817817,106.1123 C 88.99506,120.39494 128.5408,100.60271 210.1903,110.55299 231.8394,113.19128 233.428,65.814019 201.00627,57.780364 176.43992,51.693162 152.34813,-9.7255829 78.010495,32.238096 22.939087,63.325968 -0.76076457,100.41978 24.817817,106.1123 Z"
       id="path242"
       sodipodi:nodetypes="sssss" />
    <path
       id="path16662"
       style="fill:url(#radialGradient18122);stroke:none;stroke-width:0.264583px;stroke-linecap:butt;stroke-linejoin:miter;stroke-opacity:1;fill-opacity:1"
       d="M 45.789453 53.733671 C 14.779031 78.44372 5.0013661 101.70228 24.817607 106.11239 C 88.994785 120.39501 128.54085 100.60267 210.19027 110.55294 C 231.14665 113.10681 233.30471 68.796059 204.01339 58.670837 C 204.37338 60.481231 205.23116 62.261557 206.69436 63.906694 C 226.24334 85.886379 206.56224 101.77982 194.08221 100.29775 C 139.85383 93.857884 86.796933 105.33321 45.129545 102.52759 C 15.567571 100.53707 28.703043 78.794953 44.04434 57.017708 C 44.86403 55.854143 45.434286 54.75374 45.789453 53.733671 z " />
    <path
       id="path29069"
       style="display:inline;fill:url(#radialGradient29814);fill-opacity:1;stroke:none;stroke-width:0.265;stroke-linecap:butt;stroke-linejoin:miter;stroke-opacity:1;stroke-dasharray:none"
       d="m 125.135,17.669722 c -13.09617,0.04802 -28.539868,4.077711 -47.124258,14.56862 -12.406428,7.003443 -23.203845,14.309955 -32.221289,21.495329 -5.1e-5,1.46e-4 5.1e-5,3.71e-4 0,5.17e-4 -0.355177,1.019945 -0.925541,2.120123 -1.745113,3.28352 -15.341282,21.777224 -28.476739,43.519362 1.085205,45.509882 41.667346,2.80562 94.724335,-8.669696 148.952665,-2.22984 12.48002,1.48207 32.16111,-14.411393 12.61215,-36.391056 -1.4632,-1.645136 -2.32098,-3.425464 -2.68097,-5.235857 -0.96821,-0.334684 -1.96966,-0.633333 -3.00705,-0.890385 C 182.58159,53.215056 164.42351,17.525655 125.135,17.669722 Z m 78.87839,41.001115 c -136.008927,-39.113891 -68.00446,-19.556946 0,0 z"
       sodipodi:nodetypes="ssccsssscsscc" />
    <path
       style="fill:url(#radialGradient48226);fill-opacity:1;stroke:none;stroke-width:0.264583px;stroke-linecap:butt;stroke-linejoin:miter;stroke-opacity:1"
       d="M 88.123123,32.973725 C 88.806591,16.032847 107.4119,13.114431 115.89953,23.43651 110.24866,34.626972 98.952585,36.81881 88.123123,32.973725 Z"
       id="path1787"
       sodipodi:nodetypes="ccc" />
    <path
       style="fill:url(#radialGradient29763);fill-opacity:1;stroke:none;stroke-width:0.264583px;stroke-linecap:butt;stroke-linejoin:miter;stroke-opacity:1"
       d="m 139.72673,30.051721 c 4.05089,-16.46362 42.97501,-0.384526 36.44384,16.66986 -12.0594,0.715463 -30.42668,-6.284975 -36.44384,-16.66986 z"
       id="path1814"
       sodipodi:nodetypes="ccc" />
    <path
       style="fill:url(#radialGradient46732);fill-opacity:1;stroke:none;stroke-width:0.264583px;stroke-linecap:butt;stroke-linejoin:miter;stroke-opacity:1"
       d="m 196.69747,60.817017 c 7.31864,-12.575317 30.0518,-0.820407 25.48039,15.518086 -9.1378,-0.120243 -19.80963,-6.768052 -25.48039,-15.518086 z"
       id="path1820"
       sodipodi:nodetypes="ccc" />
    <path
       style="fill:url(#radialGradient48202);fill-opacity:1;stroke:none;stroke-width:0.264583px;stroke-linecap:butt;stroke-linejoin:miter;stroke-opacity:1"
       d="M 19.750774,90.478497 C 11.042324,78.790029 33.355702,56.387169 41.134563,66.167878 41.684021,77.101658 33.066099,90.030134 19.750774,90.478497 Z"
       id="path1822"
       sodipodi:nodetypes="ccc" />
    <path
       style="fill:url(#radialGradient43002);fill-opacity:1;stroke:none;stroke-width:0.330091px;stroke-linecap:butt;stroke-linejoin:miter;stroke-opacity:1"
       d="M 54.256977,76.62119 C 37.945291,55.472498 83.707706,31.386212 86.255016,49.627072 90.322386,67.287255 65.246326,84.971207 54.256977,76.62119 Z"
       id="path1822-1"
       sodipodi:nodetypes="ccc" />
    <path
       style="fill:url(#radialGradient45980);fill-opacity:1;stroke:none;stroke-width:0.264583px;stroke-linecap:butt;stroke-linejoin:miter;stroke-opacity:1"
       d="M 80.212888,91.913956 C 84.964457,76.747613 101.09648,77.387312 104.11928,92.31922 100.79912,102.96178 83.251238,102.1898 80.212888,91.913956 Z"
       id="path1705"
       sodipodi:nodetypes="ccc" />
    <path
       style="fill:url(#radialGradient45972);fill-opacity:1;stroke:none;stroke-width:0.474491px;stroke-linecap:butt;stroke-linejoin:miter;stroke-opacity:1"
       d="M 166.30618,87.196334 C 181.8986,49.002917 125.82575,27.196905 116.95942,63.68615 c 0.26211,28.681849 35.70496,35.529165 49.34676,23.510184 z"
       id="path3885"
       sodipodi:nodetypes="ccc" />
    <path
       style="fill:url(#radialGradient46714);fill-opacity:1;stroke:none;stroke-width:0.264583px;stroke-linecap:butt;stroke-linejoin:miter;stroke-opacity:1"
       d="m 204.56594,92.45021 c 5.45194,-23.468708 -26.68247,-22.497244 -26.70819,-5.708665 1.05936,13.737185 22.87865,17.008335 26.70819,5.708665 z"
       id="path5362"
       sodipodi:nodetypes="ccc" />
    <g
       id="g58727"
       transform="matrix(0.97162327,0,0,1.0412019,2.6120614,-9.4466519)">
      <path
         style="fill:url(#radialGradient58580);fill-opacity:1;stroke:none;stroke-width:0.290766px;stroke-linecap:butt;stroke-linejoin:miter;stroke-opacity:1"
         d="m 124.91521,179.80123 c 6.18375,-15.23229 10.2688,-14.65486 10.13177,1e-5 -0.11192,11.97005 -2.95188,17.8167 4.49361,29.04544 0.76433,-18.92839 13.34586,-19.26129 11.24248,-39.84812 -0.93897,-9.19027 2.4235,-13.52611 9.15449,-0.14644 9.90965,19.69815 15.82312,36.02368 2.73867,47.07256 -17.64021,14.89589 -38.43005,15.00067 -56.4748,12.10085 -9.007135,-1.44746 -12.189401,-15.53429 -13.843109,-27.432 -1.515833,-10.90576 2.821842,-14.38814 7.016522,-5.77928 3.126447,6.41651 9.315207,8.04917 12.480667,14.04392 3.16549,-12.78233 10.04724,-21.63639 13.0597,-29.05694 z"
         id="path55550"
         sodipodi:nodetypes="sscsssssscs" />
      <path
         id="path58605"
         style="fill:url(#linearGradient58613);fill-opacity:1;stroke:none;stroke-width:0.264583px;stroke-linecap:butt;stroke-linejoin:miter;stroke-opacity:1"
         d="m 152.94932,160.37987 c -1.9068,0.0188 -2.67977,3.59268 -2.16628,8.6186 1.9396,18.98382 -8.60771,20.74531 -10.86135,35.74666 3.4641,-10.30055 19.58761,-14.04393 15.74426,-42.65942 -1.06873,-1.17962 -1.97869,-1.7131 -2.71663,-1.70584 z m -20.59771,8.21346 c -1.7771,-0.0722 -4.34437,3.59196 -7.43624,11.2081 -2.80454,6.90838 -8.96127,15.06078 -12.35221,26.46712 6.64759,-6.86442 18.18382,-19.29656 20.56877,-37.3631 -0.23977,-0.19607 -0.50027,-0.30075 -0.78032,-0.31212 z M 94.751322,189.9822 c -1.965907,0.0726 -3.192192,3.59661 -2.511991,9.66039 5.445697,2.25145 12.544359,2.38032 18.632969,7.61246 -3.33515,-4.74578 -8.66917,-6.63593 -11.497487,-12.44058 -1.638545,-3.36284 -3.298726,-4.88116 -4.623491,-4.83227 z" />
    </g>
  </g>
</svg>
