<?xml version="1.0" encoding="UTF-8" standalone="no"?>
<!-- Created with Inkscape (http://www.inkscape.org/) -->

<svg
   width="240mm"
   height="240mm"
   viewBox="0 2.233 240 240"
   version="1.1"
   id="svg5"
   inkscape:version="1.2.1 (9c6d41e410, 2022-07-14)"
   sodipodi:docname="mushroom.svg"
   xmlns:inkscape="http://www.inkscape.org/namespaces/inkscape"
   xmlns:sodipodi="http://sodipodi.sourceforge.net/DTD/sodipodi-0.dtd"
   xmlns:xlink="http://www.w3.org/1999/xlink"
   xmlns="http://www.w3.org/2000/svg"
   xmlns:svg="http://www.w3.org/2000/svg">
  <sodipodi:namedview
     id="namedview7"
     pagecolor="#181818"
     bordercolor="#666666"
     borderopacity="1.0"
     inkscape:showpageshadow="2"
     inkscape:pageopacity="0"
     inkscape:pagecheckerboard="0"
     inkscape:deskcolor="#353535"
     inkscape:document-units="mm"
     showgrid="false"
     inkscape:zoom="0.37282196"
     inkscape:cx="564.61266"
     inkscape:cy="704.08943"
     inkscape:window-width="958"
     inkscape:window-height="1008"
     inkscape:window-x="946"
     inkscape:window-y="0"
     inkscape:window-maximized="0"
     inkscape:current-layer="layer1"
     showguides="false"
     inkscape:lockguides="true" />
  <defs
     id="defs2">
    <linearGradient
       inkscape:collect="always"
       id="linearGradient1451">
      <stop
         style="stop-color:#efece7;stop-opacity:1;"
         offset="0.13753583"
         id="stop1443" />
      <stop
         style="stop-color:#eaceb4;stop-opacity:1;"
         offset="0.25501433"
         id="stop1445" />
      <stop
         style="stop-color:#bda78b;stop-opacity:1;"
         offset="0.55587393"
         id="stop1447" />
      <stop
         style="stop-color:#39351d;stop-opacity:1;"
         offset="1"
         id="stop1449" />
    </linearGradient>
    <linearGradient
       inkscape:collect="always"
       id="linearGradient58611">
      <stop
         style="stop-color:#ffffff;stop-opacity:1;"
         offset="0"
         id="stop58607" />
      <stop
         style="stop-color:#ffffff;stop-opacity:0;"
         offset="1"
         id="stop58609" />
    </linearGradient>
    <linearGradient
       inkscape:collect="always"
       id="linearGradient58578">
      <stop
         style="stop-color:#7bab3b;stop-opacity:1;"
         offset="0.02578797"
         id="stop58618" />
      <stop
         style="stop-color:#559700;stop-opacity:1;"
         offset="0.32091689"
         id="stop58582" />
      <stop
         style="stop-color:#406f00;stop-opacity:1;"
         offset="0.5931232"
         id="stop58574" />
      <stop
         style="stop-color:#253f00;stop-opacity:1;"
         offset="1"
         id="stop58576" />
    </linearGradient>
    <inkscape:path-effect
       effect="offset"
       id="path-effect58474"
       is_visible="true"
       lpeversion="1.2"
       linejoin_type="round"
       unit="mm"
       offset="-2"
       miter_limit="4"
       attempt_force_join="false"
       update_on_knot_move="true" />
    <linearGradient
       inkscape:collect="always"
       id="linearGradient43000">
      <stop
         style="stop-color:#ffffff;stop-opacity:1;"
         offset="0.1060172"
         id="stop44456" />
      <stop
         style="stop-color:#eaf2fb;stop-opacity:1;"
         offset="0.27793697"
         id="stop42996" />
      <stop
         style="stop-color:#aeb0b9;stop-opacity:1;"
         offset="1"
         id="stop42998" />
    </linearGradient>
    <linearGradient
       inkscape:collect="always"
       id="linearGradient29807">
      <stop
         style="stop-color:#ffffff;stop-opacity:0;"
         offset="0.72779369"
         id="stop29799" />
      <stop
         style="stop-color:#ffffff;stop-opacity:0.19289342;"
         offset="0.8080228"
         id="stop29803" />
      <stop
         style="stop-color:#ffffff;stop-opacity:0.10152283;"
         offset="0.92550141"
         id="stop36352" />
      <stop
         style="stop-color:#ffffff;stop-opacity:0;"
         offset="1"
         id="stop29805" />
    </linearGradient>
    <linearGradient
       inkscape:collect="always"
       id="linearGradient18120">
      <stop
         style="stop-color:#000000;stop-opacity:0;"
         offset="0.47564471"
         id="stop18118" />
      <stop
         style="stop-color:#000000;stop-opacity:1;"
         offset="1"
         id="stop18116" />
    </linearGradient>
    <linearGradient
       id="linearGradient7125">
      <stop
         style="stop-color:#000000;stop-opacity:1"
         offset="0.52722061"
         id="stop7880" />
      <stop
         style="stop-color:#000000;stop-opacity:1;"
         offset="0.84813756"
         id="stop7882" />
    </linearGradient>
    <linearGradient
       id="linearGradient7125-2">
      <stop
         style="stop-color:#ffffff;stop-opacity:1;"
         offset="0.1461318"
         id="stop7875" />
      <stop
         style="stop-color:#ffffff;stop-opacity:0;"
         offset="1"
         id="stop7873" />
    </linearGradient>
    <inkscape:path-effect
       effect="offset"
       id="path-effect7145"
       is_visible="true"
       lpeversion="1.2"
       linejoin_type="miter"
       unit="mm"
       offset="-9"
       miter_limit="4"
       attempt_force_join="false"
       update_on_knot_move="true" />
    <inkscape:path-effect
       effect="offset"
       id="path-effect7129"
       is_visible="true"
       lpeversion="1.2"
       linejoin_type="miter"
       unit="mm"
       offset="-3"
       miter_limit="4"
       attempt_force_join="false"
       update_on_knot_move="true" />
    <linearGradient
       id="linearGradient7125-1">
      <stop
         style="stop-color:#000000;stop-opacity:0.19289342;"
         offset="0.52722061"
         id="stop7123" />
      <stop
         style="stop-color:#000000;stop-opacity:0;"
         offset="0.84813756"
         id="stop7121" />
    </linearGradient>
    <linearGradient
       inkscape:collect="always"
       id="linearGradient6332">
      <stop
         style="stop-color:#e7ecfe;stop-opacity:1;"
         offset="0.04297994"
         id="stop6328" />
      <stop
         style="stop-color:#8f99ee;stop-opacity:1;"
         offset="0.13467048"
         id="stop6338" />
      <stop
         style="stop-color:#4053d3;stop-opacity:1;"
         offset="0.33524355"
         id="stop6336" />
      <stop
         style="stop-color:#4053d3;stop-opacity:1;"
         offset="1"
         id="stop6340" />
    </linearGradient>
    <radialGradient
       inkscape:collect="always"
       xlink:href="#linearGradient1451"
       id="radialGradient5408"
       cx="120.92643"
       cy="182.67682"
       fx="120.92643"
       fy="182.67682"
       r="49.412945"
       gradientTransform="matrix(1.2340947,-0.04211028,0.04072372,1.1934592,-36.390866,-32.245927)"
       gradientUnits="userSpaceOnUse" />
    <radialGradient
       inkscape:collect="always"
       xlink:href="#linearGradient1451"
       id="radialGradient5546"
       cx="121.52753"
       cy="148.84035"
       fx="121.52753"
       fy="148.84035"
       r="52.730377"
       gradientTransform="matrix(1.2385522,-0.0951134,0.0453664,0.59075426,-35.703888,59.968036)"
       gradientUnits="userSpaceOnUse" />
    <radialGradient
       inkscape:collect="always"
       xlink:href="#linearGradient6332"
       id="radialGradient6334"
       cx="100.01431"
       cy="53.292892"
       fx="100.01431"
       fy="53.292892"
       r="105.72643"
       gradientTransform="matrix(1.6290205,-0.15141813,0.08800949,0.94684341,-59.693719,21.177678)"
       gradientUnits="userSpaceOnUse" />
    <radialGradient
       inkscape:collect="always"
       xlink:href="#linearGradient18120"
       id="radialGradient18122"
       cx="130.00403"
       cy="46.801823"
       fx="130.00403"
       fy="46.801823"
       r="125.81079"
       gradientTransform="matrix(1.6718739,-0.02858596,0.00679076,0.39716402,-89.922295,62.545766)"
       gradientUnits="userSpaceOnUse" />
    <radialGradient
       inkscape:collect="always"
       xlink:href="#linearGradient29807"
       id="radialGradient29814"
       cx="122.48799"
       cy="209.09798"
       fx="122.48799"
       fy="209.09798"
       r="93.74736"
       gradientTransform="matrix(1.7409377,-0.02706077,0.00827502,0.53236803,-96.322715,28.432719)"
       gradientUnits="userSpaceOnUse" />
    <radialGradient
       inkscape:collect="always"
       xlink:href="#linearGradient43000"
       id="radialGradient43002"
       cx="67.239525"
       cy="58.041111"
       fx="67.239525"
       fy="58.041111"
       r="17.972706"
       gradientTransform="matrix(1.1756082,-0.77651427,0.60805477,0.92056811,-46.619135,56.232964)"
       gradientUnits="userSpaceOnUse" />
    <radialGradient
       inkscape:collect="always"
       xlink:href="#linearGradient43000"
       id="radialGradient45972"
       cx="139.67731"
       cy="64.613602"
       fx="139.67731"
       fy="64.613602"
       r="26.034822"
       gradientTransform="matrix(1.4941199,0.29702637,-0.19105514,0.96105697,-54.06532,-41.055244)"
       gradientUnits="userSpaceOnUse" />
    <radialGradient
       inkscape:collect="always"
       xlink:href="#linearGradient43000"
       id="radialGradient45980"
       cx="91.030701"
       cy="88.760719"
       fx="91.030701"
       fy="88.760719"
       r="11.953196"
       gradientTransform="matrix(1.1049544,0,0,1.0735403,-9.6732348,-6.6478042)"
       gradientUnits="userSpaceOnUse" />
    <radialGradient
       inkscape:collect="always"
       xlink:href="#linearGradient43000"
       id="radialGradient46714"
       cx="190.44759"
       cy="83.404144"
       fx="190.44759"
       fy="83.404144"
       r="13.665498"
       gradientTransform="matrix(0.90100533,0.01308111,-0.01307763,0.90076401,19.777761,5.875642)"
       gradientUnits="userSpaceOnUse" />
    <radialGradient
       inkscape:collect="always"
       xlink:href="#linearGradient43000"
       id="radialGradient46732"
       cx="209.87883"
       cy="57.925163"
       fx="209.87883"
       fy="57.925163"
       r="13.041156"
       gradientTransform="matrix(0.90434705,0.73883602,-0.45674014,0.55905721,45.773727,-126.71487)"
       gradientUnits="userSpaceOnUse" />
    <radialGradient
       inkscape:collect="always"
       xlink:href="#linearGradient43000"
       id="radialGradient48202"
       cx="31.016085"
       cy="73.546974"
       fx="31.016085"
       fy="73.546974"
       r="11.696437"
       gradientTransform="matrix(0.62482758,-0.82323658,0.55767406,0.42326854,-31.953468,68.731816)"
       gradientUnits="userSpaceOnUse" />
    <radialGradient
       inkscape:collect="always"
       xlink:href="#linearGradient43000"
       id="radialGradient48226"
       cx="101.62806"
       cy="23.765289"
       fx="101.62806"
       fy="23.765289"
       r="13.888203"
       gradientTransform="matrix(0.93676783,-0.37939304,0.23349979,0.57653955,0.75842864,48.933788)"
       gradientUnits="userSpaceOnUse" />
    <radialGradient
       inkscape:collect="always"
       xlink:href="#linearGradient58578"
       id="radialGradient58580"
       cx="124.89977"
       cy="192.57568"
       fx="124.89977"
       fy="192.57568"
       r="37.513695"
       gradientTransform="matrix(1.3087716,-0.78998408,0.49589266,0.94342477,-137.35892,108.91947)"
       gradientUnits="userSpaceOnUse" />
    <linearGradient
       inkscape:collect="always"
       xlink:href="#linearGradient58611"
       id="linearGradient58613"
       x1="98.883286"
       y1="153.72502"
       x2="121.2597"
       y2="207.30566"
       gradientUnits="userSpaceOnUse"
       gradientTransform="matrix(0.97162327,0,0,1.0412019,2.6120614,-9.4466519)" />
    <radialGradient
       inkscape:collect="always"
       xlink:href="#linearGradient43000"
       id="radialGradient29763"
       cx="155.02232"
       cy="31.404249"
       fx="155.02232"
       fy="31.404249"
       r="18.590349"
       gradientTransform="matrix(0.94601299,0.45888871,-0.27707978,0.57120837,18.236389,-57.655318)"
       gradientUnits="userSpaceOnUse" />
  </defs>
  <g
     inkscape:label="Layer 1"
     inkscape:groupmode="layer"
     id="layer1">
    <path
       id="path368"
       style="fill:none;fill-opacity:1;stroke:#ffffff;stroke-width:25.962;stroke-linejoin:round;stroke-dasharray:none;stroke-opacity:1;paint-order:normal"
       d="m 103.2769,17.446997 c -5.692938,-0.03298 -11.249732,2.919162 -13.768668,8.936922 -3.696795,1.677414 -7.520895,3.609631 -11.49749,5.854423 -18.397171,10.385224 -33.27065,21.436404 -43.998348,31.76757 -7.367106,1.684905 -16.247034,11.702351 -16.245003,20.26388 -5.83403,11.112217 -3.965884,19.390958 7.050216,21.842598 25.276981,5.62539 46.734082,5.95866 68.446468,4.91132 -2.315515,9.4848 -5.15977,17.95369 -8.233606,19.95848 -19.58521,0.6978 -18.72637,23.5425 -5.97793,24.91062 0.629662,0.0676 1.293529,0.12995 1.934766,0.19585 -1.920559,3.77366 -3.85573,7.69445 -5.433777,12.90671 -25.463555,74.76898 109.716022,81.38129 94.410772,7.06365 -0.67962,-7.11617 -3.47372,-13.1232 -6.39496,-20.40702 1.10739,-0.21931 2.19251,-0.44819 3.2303,-0.6966 11.2409,-2.69073 13.45957,-22.27396 -6.54741,-23.50451 -3.01487,-1.91133 -6.51834,-12.51417 -9.47694,-23.67556 17.53371,-0.44496 36.86359,0.0294 59.41498,2.77761 14.53844,1.77174 20.02945,-19.012513 12.24938,-35.289834 2.92681,-13.92287 -13.79489,-24.104661 -22.68027,-17.841288 -7.21408,-2.324215 -14.46623,-9.189461 -23.03115,-16.574699 -1.7237,-9.502016 -15.5651,-17.440475 -25.89661,-17.674373 -10.94332,-4.916777 -23.98171,-7.285333 -40.13037,-3.915524 -2.33122,-1.189482 -4.89124,-1.795552 -7.42435,-1.810225 z" />
    <path
       id="rect1058"
       style="fill:url(#radialGradient5408);fill-opacity:1;stroke:none;stroke-width:0.264999"
       d="m 88.629731,133.98196 c -2.335179,16.54983 -8.93599,21.33866 -13.076124,35.01345 -25.46358,74.76906 109.715883,81.38132 94.410623,7.06361 -1.22343,-12.8103 -9.29595,-22.01213 -12.63532,-41.57524 z"
       sodipodi:nodetypes="ccccc" />
    <path
       style="fill:url(#radialGradient5546);fill-opacity:1;stroke:none;stroke-width:0.249878px;stroke-linecap:butt;stroke-linejoin:miter;stroke-opacity:1"
       d="m 99.083684,79.805611 c 0,0 -6.3026,46.121469 -14.052987,51.176339 -19.585229,0.6978 -18.726711,23.54282 -5.978258,24.91094 27.260991,2.92555 65.688791,4.34249 87.747151,-0.93759 11.24091,-2.69073 13.45964,-22.274 -6.54736,-23.50455 -6.76115,-4.28635 -15.98747,-52.276978 -15.98747,-52.276978 l -45.181076,0.631837 z"
       id="path1002"
       sodipodi:nodetypes="ccsscccc" />
    <path
       style="fill:url(#radialGradient6334);fill-opacity:1;stroke:none;stroke-width:0.265;stroke-linecap:butt;stroke-linejoin:miter;stroke-dasharray:none;stroke-opacity:1"
       d="M 24.817817,106.1123 C 88.99506,120.39494 128.5408,100.60271 210.1903,110.55299 231.8394,113.19128 233.428,65.814019 201.00627,57.780364 176.43992,51.693162 152.34813,-9.7255829 78.010495,32.238096 22.939087,63.325968 -0.76076457,100.41978 24.817817,106.1123 Z"
       id="path242"
       sodipodi:nodetypes="sssss" />
    <path
       id="path16662"
       style="fill:url(#radialGradient18122);fill-opacity:1;stroke:none;stroke-width:0.264583px;stroke-linecap:butt;stroke-linejoin:miter;stroke-opacity:1"
       d="M 45.789453,53.733671 C 14.779031,78.44372 5.0013661,101.70228 24.817607,106.11239 c 64.177178,14.28262 103.723243,-5.50972 185.372663,4.44055 20.95638,2.55387 23.11444,-41.756881 -6.17688,-51.882103 0.35999,1.810394 1.21777,3.59072 2.68097,5.235857 19.54898,21.979685 -0.13212,37.873126 -12.61215,36.391056 -54.22838,-6.439866 -107.285277,5.03546 -148.952665,2.22984 -29.561974,-1.99052 -16.426502,-23.732637 -1.085205,-45.509882 0.81969,-1.163565 1.389946,-2.263968 1.745113,-3.284037 z" />
    <path
       id="path29069"
       style="display:inline;fill:url(#radialGradient29814);fill-opacity:1;stroke:none;stroke-width:0.265;stroke-linecap:butt;stroke-linejoin:miter;stroke-dasharray:none;stroke-opacity:1"
       d="m 125.135,17.669722 c -13.09617,0.04802 -28.539868,4.077711 -47.124258,14.56862 -12.406428,7.003443 -23.203845,14.309955 -32.221289,21.495329 -5.1e-5,1.46e-4 5.1e-5,3.71e-4 0,5.17e-4 -0.355177,1.019945 -0.925541,2.120123 -1.745113,3.28352 -15.341282,21.777224 -28.476739,43.519362 1.085205,45.509882 41.667346,2.80562 94.724335,-8.669696 148.952665,-2.22984 12.48002,1.48207 32.16111,-14.411393 12.61215,-36.391056 -1.4632,-1.645136 -2.32098,-3.425464 -2.68097,-5.235857 -0.96821,-0.334684 -1.96966,-0.633333 -3.00705,-0.890385 C 182.58159,53.215056 164.42351,17.525655 125.135,17.669722 Z m 78.87839,41.001115 c -136.008927,-39.113891 -68.00446,-19.556946 0,0 z"
       sodipodi:nodetypes="ssccsssscsscc" />
    <path
       style="fill:url(#radialGradient48226);fill-opacity:1;stroke:none;stroke-width:0.264583px;stroke-linecap:butt;stroke-linejoin:miter;stroke-opacity:1"
       d="M 88.123123,32.973725 C 88.806591,16.032847 107.4119,13.114431 115.89953,23.43651 110.24866,34.626972 98.952585,36.81881 88.123123,32.973725 Z"
       id="path1787"
       sodipodi:nodetypes="ccc" />
    <path
       style="fill:url(#radialGradient29763);fill-opacity:1;stroke:none;stroke-width:0.264583px;stroke-linecap:butt;stroke-linejoin:miter;stroke-opacity:1"
       d="m 139.72673,30.051721 c 4.05089,-16.46362 42.97501,-0.384526 36.44384,16.66986 -12.0594,0.715463 -30.42668,-6.284975 -36.44384,-16.66986 z"
       id="path1814"
       sodipodi:nodetypes="ccc" />
    <path
       style="fill:url(#radialGradient46732);fill-opacity:1;stroke:none;stroke-width:0.264583px;stroke-linecap:butt;stroke-linejoin:miter;stroke-opacity:1"
       d="m 196.69747,60.817017 c 7.31864,-12.575317 30.0518,-0.820407 25.48039,15.518086 -9.1378,-0.120243 -19.80963,-6.768052 -25.48039,-15.518086 z"
       id="path1820"
       sodipodi:nodetypes="ccc" />
    <path
       style="fill:url(#radialGradient48202);fill-opacity:1;stroke:none;stroke-width:0.264583px;stroke-linecap:butt;stroke-linejoin:miter;stroke-opacity:1"
       d="M 19.750774,90.478497 C 11.042324,78.790029 33.355702,56.387169 41.134563,66.167878 41.684021,77.101658 33.066099,90.030134 19.750774,90.478497 Z"
       id="path1822"
       sodipodi:nodetypes="ccc" />
    <path
       style="fill:url(#radialGradient43002);fill-opacity:1;stroke:none;stroke-width:0.330091px;stroke-linecap:butt;stroke-linejoin:miter;stroke-opacity:1"
       d="M 54.256977,76.62119 C 37.945291,55.472498 83.707706,31.386212 86.255016,49.627072 90.322386,67.287255 65.246326,84.971207 54.256977,76.62119 Z"
       id="path1822-1"
       sodipodi:nodetypes="ccc" />
    <path
       style="fill:url(#radialGradient45980);fill-opacity:1;stroke:none;stroke-width:0.264583px;stroke-linecap:butt;stroke-linejoin:miter;stroke-opacity:1"
       d="M 80.212888,91.913956 C 84.964457,76.747613 101.09648,77.387312 104.11928,92.31922 100.79912,102.96178 83.251238,102.1898 80.212888,91.913956 Z"
       id="path1705"
       sodipodi:nodetypes="ccc" />
    <path
       style="fill:url(#radialGradient45972);fill-opacity:1;stroke:none;stroke-width:0.474491px;stroke-linecap:butt;stroke-linejoin:miter;stroke-opacity:1"
       d="M 166.30618,87.196334 C 181.8986,49.002917 125.82575,27.196905 116.95942,63.68615 c 0.26211,28.681849 35.70496,35.529165 49.34676,23.510184 z"
       id="path3885"
       sodipodi:nodetypes="ccc" />
    <path
       style="fill:url(#radialGradient46714);fill-opacity:1;stroke:none;stroke-width:0.264583px;stroke-linecap:butt;stroke-linejoin:miter;stroke-opacity:1"
       d="m 204.56594,92.45021 c 5.45194,-23.468708 -26.68247,-22.497244 -26.70819,-5.708665 1.05936,13.737185 22.87865,17.008335 26.70819,5.708665 z"
       id="path5362"
       sodipodi:nodetypes="ccc" />
    <path
       style="display:inline;fill:url(#radialGradient58580);fill-opacity:1;stroke:none;stroke-width:0.292456px;stroke-linecap:butt;stroke-linejoin:miter;stroke-opacity:1"
       d="m 123.98259,177.76273 c 6.00827,-15.85989 9.9774,-15.25867 9.84426,1e-5 -0.10874,12.46324 -2.86812,18.55078 4.3661,30.24217 0.74264,-19.70828 12.96714,-20.05489 10.92345,-41.48994 -0.91232,-9.56893 2.35473,-14.08341 8.89472,-0.15247 9.62844,20.50975 15.37411,37.50792 2.66095,49.01204 -17.13964,15.50962 -37.33953,15.61872 -54.87223,12.59942 -8.75154,-1.50709 -11.843504,-16.17433 -13.450285,-28.56225 -1.472818,-11.3551 2.741768,-14.98096 6.817416,-6.01739 3.037729,6.68088 9.050869,8.38081 12.126509,14.62255 3.07566,-13.30898 9.76213,-22.52785 12.68911,-30.25414 z"
       id="path55550"
       sodipodi:nodetypes="sscsssssscs" />
    <path
       id="path58605"
       style="display:inline;fill:url(#linearGradient58613);fill-opacity:1;stroke:none;stroke-width:0.266121px;stroke-linecap:butt;stroke-linejoin:miter;stroke-opacity:1"
       d="m 151.22118,157.54117 c -1.85269,0.0196 -2.60373,3.74071 -2.10481,8.97371 1.88456,19.76599 -8.36345,21.60005 -10.55314,37.21949 3.3658,-10.72496 19.03178,-14.62257 15.29749,-44.41707 -1.0384,-1.22823 -1.92254,-1.78369 -2.63954,-1.77613 z m -20.01321,8.55187 c -1.72668,-0.0752 -4.2211,3.73996 -7.22523,11.6699 -2.72495,7.19302 -8.70698,15.68131 -12.00169,27.55761 6.45895,-7.14724 17.66782,-20.09161 19.98509,-38.90253 -0.23296,-0.20414 -0.48607,-0.31314 -0.75817,-0.32498 z m -36.533319,22.27014 c -1.910121,0.0756 -3.101608,3.74479 -2.440709,10.05841 5.291166,2.34422 12.188388,2.4784 18.104228,7.92611 -3.24051,-4.94132 -8.42317,-6.90934 -11.171228,-12.95316 -1.592048,-3.50139 -3.205119,-5.08227 -4.492291,-5.03136 z" />
    <path
       style="display:inline;fill:url(#radialGradient58580);fill-opacity:1;stroke:none;stroke-width:0.292456px;stroke-linecap:butt;stroke-linejoin:miter;stroke-opacity:1"
       d="m 123.98259,177.76273 c 6.00827,-15.85989 9.9774,-15.25867 9.84426,1e-5 -0.10874,12.46324 -2.86812,18.55078 4.3661,30.24217 0.74264,-19.70828 12.96714,-20.05489 10.92345,-41.48994 -0.91232,-9.56893 2.35473,-14.08341 8.89472,-0.15247 9.62844,20.50975 15.37411,37.50792 2.66095,49.01204 -17.13964,15.50962 -37.33953,15.61872 -54.87223,12.59942 -8.75154,-1.50709 -11.843504,-16.17433 -13.450285,-28.56225 -1.472818,-11.3551 2.741768,-14.98096 6.817416,-6.01739 3.037729,6.68088 9.050869,8.38081 12.126509,14.62255 3.07566,-13.30898 9.76213,-22.52785 12.68911,-30.25414 z"
       id="path366"
       sodipodi:nodetypes="sscsssssscs" />
  </g>
</svg>
